/* XPM */
static char *out[] = {
/* columns rows colors chars-per-pixel */
"65 64 249 2 ",
"   c #130A03",
".  c #24140A",
"X  c #2B1609",
"o  c #2C190C",
"O  c #311708",
"+  c #341B0B",
"@  c #3C1E0A",
"#  c #321E12",
"$  c #3E210C",
"%  c #332010",
"&  c #3C2313",
"*  c #451E06",
"=  c #711D08",
"-  c #44220C",
";  c #4B260C",
":  c #4D290F",
">  c #5A2901",
",  c #50260D",
"<  c #542A0E",
"1  c #5A2D0E",
"2  c #5E300F",
"3  c #442512",
"4  c #4A2711",
"5  c #462916",
"6  c #4D2A12",
"7  c #542C12",
"8  c #5C2E11",
"9  c #5C3115",
"0  c #5A3619",
"q  c #5D3419",
"w  c #612F0F",
"e  c #6F2B0A",
"r  c #752609",
"t  c #63310F",
"y  c #6A330E",
"u  c #79360A",
"i  c #622F11",
"p  c #633312",
"a  c #6D3612",
"s  c #653916",
"d  c #6D3914",
"f  c #633619",
"g  c #663819",
"h  c #6C3B1B",
"j  c #713612",
"k  c #7F3314",
"l  c #743A14",
"z  c #793E17",
"x  c #733D1B",
"c  c #7A3E19",
"v  c #553E2C",
"b  c #6C431A",
"n  c #75421E",
"m  c #7C421B",
"M  c #794518",
"N  c #6C521B",
"B  c #715312",
"V  c #7D4520",
"C  c #794822",
"Z  c #73512E",
"A  c #7D682E",
"S  c #6F5747",
"D  c #8E1F05",
"F  c #A91C03",
"G  c #B31B03",
"H  c #852909",
"J  c #992708",
"K  c #8F3505",
"L  c #942D10",
"P  c #883A15",
"I  c #A92A07",
"U  c #BB2805",
"Y  c #BD2A04",
"T  c #B4370F",
"R  c #CB1E03",
"E  c #D71903",
"W  c #E01E02",
"Q  c #C72705",
"!  c #DB2607",
"~  c #C83409",
"^  c #D4390C",
"/  c #D93C12",
"(  c #E82907",
")  c #E6370B",
"_  c #EB3309",
"`  c #83451C",
"'  c #8A451A",
"]  c #86481D",
"[  c #894A1E",
"{  c #94481B",
"}  c #8E5312",
"|  c #B04C14",
" . c #95660E",
".. c #AA6605",
"X. c #B97608",
"o. c #A86919",
"O. c #B57213",
"+. c #824621",
"@. c #844A22",
"#. c #8C4C22",
"$. c #884B27",
"%. c #924E23",
"&. c #9D4C22",
"*. c #8D5223",
"=. c #885427",
"-. c #945225",
";. c #9A5526",
":. c #9C5A26",
">. c #965728",
",. c #9C5629",
"<. c #9D5A29",
"1. c #A45825",
"2. c #A35D2A",
"3. c #B45223",
"4. c #976629",
"5. c #906B32",
"6. c #A5622B",
"7. c #AA652C",
"8. c #AD692D",
"9. c #B86226",
"0. c #B16D2F",
"q. c #A5792D",
"w. c #B4702F",
"e. c #B5782D",
"r. c #A56C36",
"t. c #B26E30",
"y. c #A77836",
"u. c #B57131",
"i. c #B97D3A",
"p. c #CF480D",
"a. c #D9460D",
"s. c #C64614",
"d. c #D54515",
"f. c #D95717",
"g. c #E6430E",
"h. c #E64A17",
"j. c #E45819",
"k. c #C17D08",
"l. c #E5671C",
"z. c #C65B27",
"x. c #D55822",
"c. c #E75B23",
"v. c #F15E28",
"b. c #DB6827",
"n. c #CD742F",
"m. c #EB6C23",
"M. c #E86529",
"N. c #EA7526",
"B. c #F17726",
"V. c #F37C2B",
"C. c #F36E33",
"Z. c #907242",
"A. c #A67E46",
"S. c #D27E46",
"D. c #F87B41",
"F. c #AB8812",
"G. c #B1872B",
"H. c #BA8834",
"J. c #C98A0D",
"K. c #C88A17",
"L. c #D1941D",
"P. c #DBA618",
"I. c #CB932E",
"U. c #C99A39",
"Y. c #F5842C",
"T. c #F78635",
"R. c #EB9034",
"E. c #F9933B",
"W. c #D9A628",
"Q. c #CFA537",
"!. c #D8A633",
"~. c #EAAD2E",
"^. c #E4A73B",
"/. c #E7B438",
"(. c #F1B935",
"). c #F4C23F",
"_. c #B58F4D",
"`. c #B59564",
"'. c #CF964B",
"]. c #D69D44",
"[. c #FA8B49",
"{. c #FA9849",
"}. c #ED9050",
"|. c #FD945A",
" X c #CEA749",
".X c #D9A643",
"XX c #D4AA59",
"oX c #DDB256",
"OX c #E0AE4F",
"+X c #FCA746",
"@X c #E9B846",
"#X c #F7B946",
"$X c #FDA757",
"%X c #E6B855",
"&X c #F9BA58",
"*X c #EF9C67",
"=X c #CDAB66",
"-X c #D8A569",
";X c #DCB86A",
":X c #D4B979",
">X c #E4B969",
",X c #F4B171",
"<X c #FFB576",
"1X c #FAC54C",
"2X c #EEC25C",
"3X c #F5C656",
"4X c #FAD15C",
"5X c #EDC56C",
"6X c #F6CA67",
"7X c #FBD768",
"8X c #E7C47C",
"9X c #F8CA77",
"0X c #FAD478",
"qX c #FAD57B",
"wX c #FEE179",
"eX c #CDB086",
"rX c #FDBE85",
"tX c #DEC486",
"yX c #E9C886",
"uX c #FAC886",
"iX c #F8D386",
"pX c #FCDA83",
"aX c #FBDA8C",
"sX c #EBCC92",
"dX c #F3D595",
"fX c #FCDB93",
"gX c #F6D798",
"hX c #FCDD9C",
"jX c #FEE385",
"kX c #FEE195",
"lX c #FDE39D",
"zX c #DDCAA2",
"xX c #F5DCA5",
"cX c #FCDEA2",
"vX c #F4DDAA",
"bX c #EFDBB3",
"nX c #FEE2A3",
"mX c #FDE4AC",
"MX c #FDE8A9",
"NX c #FDE5B3",
"BX c #FFE9B5",
"VX c #F3E2B9",
"CX c #FBE6BA",
"ZX c #FEEABD",
"AX c #F8E7C4",
"SX c #FEECC3",
"DX c #FEEDCA",
"FX c #FAEBCC",
"GX c #FEF0CC",
/* pixels */
"h 5 *.7.[ j l -.-.] C 8.<.,.,.,.%.` %.$.v =.6.6.M m [ -.,.,.;.3 x ;.8.t.t.<.l z +.%.h & 5 f <.6.-.;.6.2.-.] ] #.:.7.n 0 h -.;.<.<.",
"@.7 ` 7.-.M -.:.*.n ,.2.;.;.,.,.+.j #.h 0 <.6.-.j j l ` %.6.<.x g @.7.t.0.2.[ [ +.h 9 q C <.-.` l ] <.,.-.%.` j l >.<.` s s z M x ",
"8 7 *.2.0.7.7.<.m b 2.` z c ` z j j h n ;.-.] j j a a z -.8.2.-.f p ` 6.2.<.<.@.< < #.,.6.<.+.j c -.,.,.1.8.7.-.` y M z #.9 , y 1 ",
"- s -.;.<.<.,.,.*.s l a j a a j j p 4 ;.*.x a a a a j -.7.w.t.2.h , j %.,.;.#.a y l 2.2.<.,.,.-.%.,.2.,.<.7.0.0.6.-.' #.;.m 8 ; ; ",
"- a j ` -.;.-.` z t 1 a a p w w 8 7 @ #.%.` #.` ` z l [ 8.t.w.2.$., a a x l y ; j m -.%.-.-.<.<.,.2.-.$.` #.<.6.2.2.2.-.#.8 + - 1 ",
"; y j a m ` ` j y p - a p 8 9 8 9 7 q h -.-.,.,.;.-.%.2.8.0.0.2.-.f - w 1 1 , - j l #.#.#.[ %.-.-.] c l j j ' -.;.%.%.` l 4 + : s ",
"s : a a a a a y j a @ , h $.,.6.<.;.;.h x ,.<.<.<.2.,.,.,.-.#.;.,.c   4 f s ; ; a a %.-.%.%.z c l j l P #.a a z c c l a , 9 m >.6.",
"m h 1 a a j a a j a $ m ,.;.7.u.8.<.;.m 7 #.;.,.,.-.#.z j a j c c 1 + ,.8.8.z + * 1 ` l ] ,.j a l %.2.1.#.j j a a j p $ 1 z ` ;.7.",
"z @.f 8 a a a a p ; 3 ,.,.,.8.t.8.<.;.#.q a c ` M j a a y t 1 1 ; o o #.8.0.z a 1 - * ; p z j a j %.;.%.j a a a w 8 ; + 1 d a l ] ",
"#.-.;.g 8 a p ; 7 7 7 2.,.2.8.t.8.1.<.-.m - , y a j j t , - s - + # ; z 6.0.#.` a a p 1 , : y a d ` %.c a a 1 0 h *.4.*.7 a l a j ",
"-.2.8.;.q 4 + h M j 9 ,.,.2.2.2.2.<.:.-.z 1 , @ , 1 ; + ; M <.f g 9 ` l ;.8.<.;.t K ' a a $ : 1 a M m a 1 - & M 4.>.8.0.] : a a a ",
"<.2.t.8.;.n 3 8.` M s ,.,.,.,.%.l j j a a t ; 7 a : 7 ` 6.8.2.6 @.f ;.[ %.,.2.} | H u y ; , l 1 * O $ 0 C 7 3 6.{ j -.2.-.O - a j ",
"m #.;.<.-.-.9 7.7.6.V 8 #.-.#.j a a a 2 - : M 0.0.7.8.6.6.<.V h ;.q %.;.;.;.#.| | H * , l ;.0.8.-.& ` ] ,.,.q ;.-.#.-.[ l $ & , 4 ",
"j j M P z ' g *.6.7.-.- 8 k l d l a j - t ` <.6.<.<.,.,.;.` q 2.6.9 a [ -.#.z.| e - 1 a -.7.8.6.-.6 ;.-.;.;.6 m -.-.` j t g #.-.@.",
"a a d a j z s h ;.;.` p O 8 a d a a j % 1 z M @.;.%.%.+.M s -.0.8.C < x P 9.o.y - . > a ` [ [ ` d 3 ` #.-.` , 8 l z l y 1 m -.<.,.",
"p j a a j j - 1 j l j j O @ * ; < 1 1 . $ p C r.i.I.e.3.9.n.i.e.9.7.c r { P 1 q n >.>.M p t p p 9 - a a a a a + @ i p ; 1 j x m ` ",
"1 a a j a a + - a a j y - a y t 1 < 6 @ # Z _.9X0X4X3XU.z.^.^.R.N.N.T K u u *.A.S.D.M.3.k j 8 x ;.h 7 d j a 8 6 3 3 6 ; p a m [ #.",
"* 1 a j p ; * $ ; 1 , ; M >.-.*.-.:.>.h Z.sXhXlXkXaXpX9XoX!.W.J.I.o.K o.'.oX>XOX_.S.D.C.v.h.s.1.6.8.x 8 i , V <.<.@.@.m f 1 z -.%.",
"+ + , , ; , t 2 O - 1 d :.8.7.7.7.7.4._.yXlXlXfXhXkXhXaX5XH.W.F. .} H.oXqXdXfXfXyX-X*XrX,X|.v.x.1.-.V 6 < +.2.7.0.8.8.7.>.f 1 l d ",
"f p a d M [ -.1 ; a -.8.8.2.<.<.-.@._.iXhXnXnXmXZXDXDXCXdXq.F.A N  X9XiXlXnXmXnXmXvX*XgXCXvXrX|.C.1.l s +.%.+.$.-.<.7.8.t.7.*.f S ",
"[ %.-.-.;.,.,.- p z 2.8.2.,.-.-.V 5.eXcXcXNXBXDXDXDXDXDXnXy.B b  X9X9XfXMXnXnXnXnXmX-X,XSXNXcXrX[.C.&.f c l j j l ` [ ,.<.2.<.@.S ",
"2.8.8.2.%.,.;.3 y l ' -.[ m l ; Z 8XlXmXCXDXDXDXDXDXAXDXxXG.> G.2XqXaXmXBXBXmXhXnXnXrX-XGXGXNXhX<XC.x.P i j a i t y j j c M m c 8 ",
"w.w.0.[ l l -.n , a a a y - O : =XlXcXDXFXDXDXDXDXAXAXVX8Xo...P.0XhXvXVXSXZXBXnXcXlXeX*XGXGXDXmXrX|.C.x.i 3 @ 7 7 . O O + ; 1 @ 7 ",
"e.u.<.c j j ` ,.3 - 8 3 o 8 m =XhXcXCXDXDXDXDXDXDXSXGXdX!.X.P.3XfXmXbXZXSXZXSXmXcXlXrX-XcXmXSXNXuX<X[.v.P i %.2.2.q p p y 1 7 #.,.",
"0.8.[ l j j l ,.g @ 8 7 6 q >.sXhXBXSXDXFXDXDXFXAXDXSX.XX.F.1XpXNXZXZXSXZXZXSXBXhXnX,X'.fXhXcXnXgX<X*XD.3.x 8.t.8.#.7 m j ` :.7.t.",
"7.2.c a a a a -.+.; p a a 6 A.hXmXSXDXDXDXFXDXAXbXyXOXk...J.0XfXzXVXSXZXZXSXZXBXcXhX8X!.uX<X<XuXdX<X|.D.x.h t.t.7.h h ;.-.<.8.w.r.",
"` ` j j a j j %.-.s w ` c 4.8XhXNXDXDXDXDXbXzX%XW.(.1XO...J.3XMXBXSXZXVXZXZXSXBXnXnX>X4X6X6X<X<XrX[.h.( v.n 7.8.*.7 2.t.w.e.8.2.$.",
"a a j a d a ` ;.%.a 1 %.<.XXiXcXZXDXDXAXxX;X/.(.@XQ.H.} } W.(.6XjXkXMXSXSXSXZXBXcXcX;X1X1X+X$X$X|.B.) ! h.%.m c ; m %.,.2.<.-.] b ",
"1 a a a a j l c f * p 2.t.8XhXmXDXDXSXiX2X%X@XQ.4.} G.A b Q.4X1X4XwXjXZXSXSXSXNXcXgX'.1X1X+X$X$X{.v.( E h.,.8 < . 8 z ` [ m l j f ",
"7 1 j a a a y 1 * , m 8.H.yXcXSXDXDXxXyXaX6X!.' 1 G.A 5.B G.4X7X4X7XwXZXSXSXGXMXcXyX].1X(.{.|.{.T.h.E E h.,.< f s ; a j l a a a 8 ",
"#.g 1 t a 1 ; , m %.8.t.-XcXBXDXGXSXdXvX8Xy.a { G.H.A 4.r U.4XqX4X0XkXZXDXDXNXlXvX-X#X(.Y.T.{.T.B.( W E v.-.-.7.7.@.- p a 1 8 x #.",
"#.#.- - ; - 1 l #.>.7.6.:XBXSXAXAXNXxXxX0Xq.b G.oX_.5.} r .X6XhX5XqXMXSXDXDXnXlXsX}.(.~.Y.Y.T.T.j.( E R M.$.6.t.8.%.. : 1 9 V ,.,.",
"a j ; X * w j j l z m *.mXDXDXAXAXxXhXNXaX@X/.OX_.G.~.G.q.5XdXxX0XaXMXGXGXZXlXlX XQ.+XE.Y.T.[.T.g.( ( ! M.C 7.8.2.V 6 $.=.7.8.2.<.",
"a 1 - 1 : 1 p j a a a 4.VXDXGXDXDXBXfXBXgX2X1X].4.H.(./.%XiXmXaXaXkXZXFXSXBXnXdXU./.&XR.V.T.{.V.) _ ( ^ b.c 2.2.-.q $.8.u.u.8.<.-.",
"; 1 l l a a < < t t l '.SXDXDXDXDXSXhXxXVX6X~.}  .~.).3XpXfXkXpXlXBXGXGXZXMXlX8X.X7X$XV.Y.T.V.j.) _ / h.&.p z l 7 +.8.t.t.,.V f 7 ",
"p z [ [ m z j i < 1 d ;XDXDXDXDXAXDXfX8XVX0X~...X./.1X6XiXpXjXlXMXAXGXGXBXMXnX;X%X9XE.B.B.V.m.d.! _ d.c.` p j p 7 ,.6.8.<.l 1 , a ",
"*.2.8.7.-.%.] c j t C dXDXDXDXDXGXDXlX2X5X6XW.k.L.2X0XqXqXaXlXMXSXDXDXAXMXlXgX;XqX&XV.B.N.N.d.U ! / f.z.j j a - 8 #.-.` l : t [ 2.",
"0.w.e.8.2.,.2.,.-.b 4.cXDXDXDXAXFXDXnX0X1X!.J.J.).wXpXwXlXlXlXSXGXDXDXBXlXlX:X;XqX+XV.N.b.l.U R ) h.x.&.i j w ; t d j 8 - l %.2.8.",
"u.u.t.7.-.%.;.;.n h r.BXDXDXDXFXGXSXMXqX#XO.X.I.2XqXqXMXlXlXVXGXDXDXGXBXnXtXXXpX$XT.B.l.f.~ U Q g.f.3.h 9 7 f g s 8 - + 1 z #.-.;.",
"8.8.8.2.m z #.m 8 a r.vXDXDXDXDXGXZXnXqX@X..F.2X0XjXlXlXlXNXVXDXDXDXSXMXgX=X2X9XE.B.B.l.a.Q U ^ g.m.%.` q $.7.,.#.f 3 o 1 l m ` [ ",
"` -.;.` j j t + - d 5.NXDXDXDXDXZXlXlX6XW.K.oXnXnXlXMXMXBXSXFXDXFXAXnXnX=X.X1X$XY.m.l.a.~ Y ~ g.c.&.a l h 2.2.-.;.;.n $ - t t a j ",
"1 j z a a 7 o . @ < V vXCXDXDXDXmXkXkX%XO.oXdXMXnXSXGXDXGXGXDXDXNXnXnXtX!.(.&XT.B.l.f.~ Y U a.c.9.8 d i +.#.l j j d t - 7 n h 6 1 ",
"g s p 9 s n 6 p d 9 0 eXSXFXFXCXlXkXpXI.o.sXZXZXSXDXGXDXSXDXGXZXMXxXgX X@X&XE.Y.l.l.a.~ U Y x.z.a 7 1 ; p j p t i f @.6.w.8.2.-.h ",
"[ #.#.;.0.u.*.: n +.h Z CXAXCXdXlXfX`.Z 5.mXDXGXDXDXDXDXDXGXDXmXxXdX=X!.3X{.V.N.l.f.^ ~ U / z.P 8 8 1 7 - , s n $.2.7.8.6.-.#.` m ",
"m ;.7.0.e.u.6.7 d ] 6.=.eXVXCXsXdX`.5.5._.NXDXDXDXSXDXDXDXDXSXcXhX:X!.4X$XT.V.l.l.a.~ Y ~ f.c h P m x p , p d ` ` ` [ ` ` c l l g ",
"j j %.7.7.6.@.; ' 6.u.0.2.S.}.R.7.=.N 0 5.sXBXDXDXDXDXDXDXDXMXfXXX/.&X{.V.m.f.s.p.~ Y T s.{ #.2.6.0.-.h 1 8 8 a a a y p 1 t 1 1 v ",
"a a M [ %.` : 1 ` 2.8.8.;.&.s.f.l.f.| u <.yXNXDXGXGXDXDXSXCXhX>X!.@X{.B.l.l.p.p.~ Q Y s.#.+.2.8.t.8.#.f f g , 1 1 1 , , ; 7 9 C $.",
"; t a l j 1 o a l m @.P c j z -.9.a.a.I L -XaXmXNXZXCXnXkX,Xn.M.Y.Y.V.m.f.s.s.~ I I | k $.;.2.8.w.<.V 6 c ;.#.` n x + 1 p j x z V ",
", , a a 9 , 0 , a j l a j y p $ a | 3.~ I 2.'.rXuXiXuX,X}.M./ j.M.M.M.c.~ T I I J J P #.-.#.;.2.7.,.n ; j ` ;.-.;.+.7 g 9 7 , i 6 ",
"-.>.s t 9 ,.t.#.9 a a p p 1 ; o , ` #.P L D F ^ / d./ ( ) ) / / d.d.~ I I D = = r w *.%.z a %.;.#.d & + , y l #.@.6 ;.8.0.8.;.q & ",
":.0.@.p s 8.t.6.7 4 , f m ` m 7 - a l ` j H J F F G R Q R R Q U I I J J H r e 1 < y m l d a ` ` s + % & + 1 w 8 4 s ,.7.0.8.2.$.0 ",
"M >.6.<.C #.8.7.s o g ;.<.<.,.;.h i a a j a e r r = H L L L r = P #.{ P #.#.#.#.2 t a j a a p , 9 b @.@.` a p p 6 w [ 2.2.2.;.%.l ",
"y j #.;.@.h -.c f n ,.2.6.0.8.,.,.h i a a d a 8 ; $.w.8.<.` 6 9 , c ,.,.1.;.<.2.M 7 a a d a 8 $.2.0.t.0.t.2.,.,.-.- j l z ` l a 8 ",
"1 a m -.#.x %.c j n ,.,.0.t.t.0.2.;.g 8 w , - 6 m ;.7.6.m x #.l p 8 a +.;.,.t.t.6.#.; 1 ; + x %.2.8.t.t.0.2.,.1.2.n , p a p 1 , 7 ",
"1 t ` -.n g ;.%.V g %.;.2.0.t.t.7.,.f @ - + . 7 j ` *.M f @.z a l x 7 d #.,.t.t.t.6.+ o o @ 8 m #.,.2.7.2.,.,.,.,.,.7 1 p : , j n ",
"< y ] ,.7 l #.%.#.f 8 z ` ,.7.2.,.#.7 a p V q , a a j a p ` j a j j V 8 x $.2.t.7.<.& & 7 a ; 1 j z ' %.-.,.[ %.;.;.s 7 1 a l -.;.",
"- y z m + p a d f 4 + , a j l ` ` 1 8 %.#.,.,.h , a a d y #.z y a a ` g p l ,.;.[ z ; x -.6.s * p a a j z j j l ' x ; j $.-.,.8.6.",
"@ 9 1 9 f g a a < 9 %.f , p a j a , l ,.;.,.7.V 4 8 p i , x -.` l l ` l , p j 1 , @ d #.6.8.%.g $ a a a a a j j a , 7 %.2.2.7.8.2.",
"j ] <.6.#.' #.+.6 c x +.5 7 i a < 3 +.#.` ;.<.x V -.+.V s 8 [ %.` z l 7 , ; ; , 9 p a j [ 2.<.#.9 - 1 y a a a p ; , #.2.t.t.t.2.;.",
"] 6.8.<.l l @.;.9 a a x -.+.s - + 5 @.` j %.,.h <.6.,.,.@.8 l x c l a 8 a p 8 l ] @.1 j [ ;.;.+.m V q ; ; a a 4 < #.;.t.t.t.t.2.m ",
"#.<.<.,.%.[ %.;.n , 1 -.t.0.2.-.0 # V @.l %.;.h 6.6.+.[ ,.8 a a a a - #.` j l 6.7.V t a M ` a < C <.8.6.n . X 3 +.,.2.8.t.0.2.8 @ ",
"` [ -.,.0.0.w.7.@.8 - %.2.7.2.,.,.h x %.l $.-.9 #.l j l z n 4 1 1 - i ;.%.` ,.0.8.h y a y a : - a z ' [ %.%.s # , ` %.-.<.7.-.; 1 ",
"a z c ' 2.7.8.2.$.6 w j ` ;.,.;.] l 9 *.c c x ; j a y j a z s ; ; @ j ` [ %.6.0.2.9 y j j y - t a a a a l z m 6 7 a l z z ` m , ; ",
"a a a j ` -.;.#.7 + , a x ` #.c l 4 3 P l j t $ p j a j j a ; w y - a l l z ] [ ] p w j a 9 : a l a a a a a c f 7 a a a a a j p ; "
};
