/* XPM */
static char *out[] = {
/* columns rows colors chars-per-pixel */
"65 64 95 2 ",
"   c #130A03",
".  c #251307",
"X  c #2B1507",
"o  c #24150B",
"O  c #2B160A",
"+  c #2C190C",
"@  c #311708",
"#  c #341C0B",
"$  c #3C1E0B",
"%  c #2C1B11",
"&  c #331E11",
"*  c #3D210D",
"=  c #3C2313",
"-  c #44220C",
";  c #4C260D",
":  c #4D290E",
">  c #51270E",
",  c #532A0E",
"<  c #5A2D0E",
"1  c #5E300F",
"2  c #442511",
"3  c #4A2611",
"4  c #452813",
"5  c #4D2A12",
"6  c #472C1B",
"7  c #4B2C18",
"8  c #542C12",
"9  c #5C2E11",
"0  c #563115",
"q  c #5C3114",
"w  c #53301A",
"e  c #5D3418",
"r  c #5F3A1C",
"t  c #602F0F",
"y  c #63310F",
"u  c #6A340F",
"i  c #622F10",
"p  c #633212",
"a  c #6D3612",
"s  c #663916",
"d  c #6D3814",
"f  c #633619",
"g  c #6A371A",
"h  c #663919",
"j  c #6C3B1A",
"k  c #713612",
"l  c #743A14",
"z  c #793E17",
"x  c #733D1B",
"c  c #793E18",
"v  c #553E2C",
"b  c #6E411C",
"n  c #774017",
"m  c #7C4117",
"M  c #75411E",
"N  c #7C421B",
"B  c #7C4B1E",
"V  c #5C402B",
"C  c #66422A",
"Z  c #764121",
"A  c #7D4520",
"S  c #7E4921",
"D  c #685547",
"F  c #765947",
"G  c #83451C",
"H  c #88471D",
"J  c #86481D",
"K  c #894A1E",
"L  c #824721",
"P  c #844A22",
"I  c #8C4C22",
"U  c #844F2D",
"Y  c #924E23",
"T  c #845023",
"R  c #8D5124",
"E  c #88582A",
"W  c #945225",
"Q  c #9A5526",
"!  c #965825",
"~  c #9C5A26",
"^  c #965328",
"/  c #9C5629",
"(  c #975A28",
")  c #9D5A29",
"_  c #A15B27",
"`  c #A35D2A",
"'  c #9C6129",
"]  c #A5612B",
"[  c #AA652C",
"{  c #AD692D",
"}  c #B26D2E",
"|  c #B4702F",
" . c #AE6930",
".. c #B26E30",
"X. c #B47131",
/* pixels */
"j - R [ K a l W Q G S [ ) ) ) / Y L Y P v E ] ` m m K Q ) ) ^ 2 x / { } ..~ l z G Y j = 6 r ~ ] ^ Q ] ` Y H H K ~ [ B 0 j W ( ~ ) ",
"T 0 L [ ! N W ~ I M ~ ) / / / ^ G k I g r ) ] ! l a l N W ` ) x f P [ } } ` I K L g w f P ) W G k J ) Q W Y G z l W ` N p s z z m ",
"9 5 I ] { [ [ _ B b ` J z c G z a k j x ^ W G k k k d z W } ` / p i P ` ` ) ) P 8 , I _ ` ) P k c ^ ) ) _ { ` ^ G k z z K q > a , ",
"- s W Q ) ) / ~ I h d k k u a k a a 4 / I c d d d u k W ] | .._ j 8 a Y / ) Y p u c _ _ ~ / / Y Y _ _ / _ [ | } ] W J Y ) G 8 ; ; ",
"- k k G W Q W G z t , a k p t < 9 9 - Y Y G I G G z l I [ ..X.` P 8 a a l l u ; k z W W ^ ^ ) ) / / W I G I _ ` _ ) _ ^ I < $ - < ",
"; u k d c G N k u a - k p 9 9 q 8 8 w j Y W / / Q W Y _ [ ..} _ ^ i - t < < > - k z K K K H Y W W H c k k k H W / ^ Y H l 2 # : p ",
"f : a k d a k k k a $ > j P ~ [ _ / ^ g x ) ) ) Q _ Q _ _ W I ^ ) c   3 f s - ; k k Y W Y Y z z z k l G I k k l m c k p 5 p N ( [ ",
"m x , a a k a u k a $ A / ) [ ..[ Q ) L , I / ~ ~ ^ I c k k k c c 8 # _ [ } z # $ < c z H / k a l I _ _ I k k a a k a $ , l G / [ ",
"c P e 9 a a a a i ; 2 ) ) /  ...} ~ Q I p p z G m k a a u p < < 3 + @ P { ..l a < ; $ ; p z d a a Y / I l a a u t i : # < d u l J ",
"K ^ ^ h 9 a p ; 8 8 8 ) / _ [ ..{ ` Q ^ N - ; a a k d u ; - d - # & 3 c [ ..I G G G l , > ; a a a J Y c k a < 0 b I ~ T 0 d d k a ",
"Q ` { ! q 3 # j z l e ) / _ ` ` ` ~ Q W N 1 : $ > < 3 # - m ) e f 9 G l Q { Q ^ ^ / G z d - ; t a m G a < - = B ' ! { } J > d u k ",
"Q ] | { / Z 2  .G m f ~ / / ) Y l k k a a y - < f ; 8 J ' | ` 5 P f / I Y / _ / ) W N l - ; z , * @ * e M 8 4 ` I a W ` ^ @ - k k ",
"G I Q _ W W q [ [ [ A 9 I Y Y k a d k < - , N } } [ [ [ ` ) A j / w Y Q ) ) ) Y z d 5 3 M / { { ^ * J J ^ ) q ) Y I Q G l * * : ; ",
"a k c m z H j I ] [ Y ; i l l k k a a ; y G ~ ` _ ~ _ / / P e ` [ q a G / ) ) z a - 9 d W [ { [ W 5 ^ W / ) 3 N Y W G d y j R R P ",
"a k k k u z s j Q Q G t @ t a a d k d # < z c Y / / ^ I N q W } { M , z H I H a ; . 9 a G K J N l * H K Y G , 8 l c l a < M W ) / ",
"a k a a k k - < k k k k @ $ $ 3 > , < o * u a k l l k , ; N ] } [ ^ - p k k a - q P W g y a p p q - a d a a a $ $ y y ; t a l G G ",
"> a a a k a @ ; a u k u ; u u y < > > - + > 1 a a a p - < z Q [ _ Q M > y p : 5 P ( ] N * < s M ( j 9 a a a < 5 4 4 3 ; p d N I I ",
"- , d k p ; * $ ; < , ; k ! W R ! ~ ~ p # h l 8 y a X > a a m I J G z p - > < y q 0 h q q P { } } { x 9 p 8 N ) ~ P P N p 9 z Y Y ",
"$ # ; > ; > y y + - < d ~ { { [ [ [ ] q p ~ ] x q 9 : 5 , u k z k k a a * , u k p y < 1 ! { | | } ~ N 5 8 N ) { } { { [ ~ e , l j ",
"9 a a d m H W < : k W } { ] ) ) W M 8 a G { { Q Q Q ^ I h $ y a k a a a - - : q p < < u W ~ W c l k a s P I H I W ' [ {  .[ W f D ",
"K W ^ Y Q Q Q - u z ` { ` ^ Q W M 3 : < j T B Z N A j f 8 $ ; t < < < q 0 S e 3 , 5 5 8 K Y G a k d a p c l k a l G K Q ] ` ~ P F ",
"` { [ _ W Q / 4 u l G W H N z : > l l p , = o < p p f z d k t t p a - P [ ../ l N I 3 3 K c a a k u a t y a a y y u k l c n N c 9 ",
"| | } I l z Y M > u a d u ; # > I ~ / c 0 = = G [ ..| [ I l c K W ) h Z ` ` / W ) ) x 5 W ^ c k k d u 8 , - $ 8 8 . X X # > < $ 8 ",
"| X.~ z a a G ) 4 - 8 2 + 8 J [ { { ` d q W f K [ X...[ ) ) ` [ ` ` ^ 3 G H Y ) Y I 9 8 _ ` H c z d y ; ; x Y ` ` e p a u 8 9 P ) ",
"| } K l a k l Q j $ 8 8 5 e W |  .` R 5 l W j c W [ | ..[ [ } | ...._ f i a c I z t ; P ....) ^ Y I c w I ` [ } [ I 8 N l G ~ [ ..",
"[ ) c k a k a W N 8 p a a : N { ] ^ f i z Y M a G _ [ [ [ ..| X.} } / j 8 a k k 8 8 8 Y } } ` ) _ Y s 9 ] } ..} [ x j Q W ~ { } [ ",
"G G k u a a a Y Y g t G N > : ^ W 8 + k d I ^ - k Y _ / _ ) ` [ [ ] _ j # 9 a - x Z d H _ ` _ ) H a * s ] ..} } R 0 ) } | | } ` I ",
"a a k k k a G Q Y s < W ] K p O & p - k k I / p 5 k c c l l l N H K Y e o = e I _ P i l c c l k < O * l W Y K N 3 N Y ) _ ~ W H C ",
"1 a k a a u l c p - u ~ { ) G ; j ] M < k K Q P 8 9 a d k a k k k a l g + h  ...` ^ , k a a 9 $ O j 3 d c l a > X q z G K G k k f ",
"8 < a k a k a < - > m { } ` P 0 ' ..( ; a c N z t - a a k u a k a k a p 8 P  . .) I 3 t a a $ O = ^ 9 a a 8 q f h 3 u k l d a a 9 ",
"I j , p a < ; > N W { } [ N h { | { ] = = y u k k > X 9 a k d u a k a i N ^ W Y H l ; ; $ $ I Z L _ g 3 p R ] [ ] P * p a 9 9 x P ",
"I J - - ; - < k K Q ] [ R h R ..} ` / = = ; < a y > o + - < p y t t t ; j H G N l k i - - j ^ x P ^ f 4 W [ } | { Y o ; < q A ) ) ",
"a d ; + - y k k l l G Y j Y ` [ Q G J $ & - - ; 9 A A 7 O - 8 > ; > > # , k k a a k t ; N ) ' M d G q M ) } } [ ` A 7 P ! [  .) ) ",
"u 1 - > > > p a k k k z 9 Y ) Q G k x 3 9 i i a N / / P e g a p y a a > - t k a a k > e ' X.[ M p l q Y ) ` ` ` ) e I } ....{ ) W ",
"; < k z k u < , i a k a - k z l a < ; d k k I / ` ..[ ` P h ^ Y J G c I W j 8 p q , 8 R } | ] P 9 y 9 N G z z z 8 P { | } ^ N f 8 ",
"u z H Y m z k t > , < < - i p 9 < - 9 c k k Y ` } X...[ ^ f _  .] _ Q Q / Q g - q j g p ] [ { ( q > t u k a a p 5 Q ` { ~ z < > d ",
"R ] { [ ^ Y H z k p 8 x d > > 8 O 5 G K k d L ` } | X.] / x [ ..X.[ Y N I / R e W _ p f K ~ } } I - i k d k a - 9 I W G l ; p K ` ",
"{ | | { ) ) ) / W x P { } _ Q / 7 9 Y I k a G _ ` [ | ` ) x Y / ] ` z a d z L M _ _ 9 c W _ | } X.] 8 3 a a y : p a a < ; l W ) { ",
"X.| | [ W Y Q ^ n d ) | } ^ ^ ) x p K K k k c / _ _ _ _ _ g u N Y H k k k a 8 G m l , l G K Q ] [ { ) R e 9 e p f < 2 # < z I W Q ",
"[ { { ] G m K N 0 a W [ Q H H ) A 8 d N k k k I W W Y / ) q - a c l a k y , p N k k - u u l G J I ) ) / e P [ ` P g 4 # , l m G J ",
"N W ^ H d d < * - a z N l d G Q / A 8 i k k k k c l l G P 9 - - a a a , # * l l a i X , a k a d l z c x x ) _ ^ ^ Q N * - q y u a ",
"< k z k a < o . $ , a a k a J W I I K $ ; t d k k k a ; $ i d < # # O % % $ d a * o - - y a a k a k k i A Y l k l k y * 5 N j 8 p ",
"s f p p s B 5 u d q < u k u k y , > - $ ; 8 8 # - - ; < a a k u k u ; = I M ; ; f q x N ; > < i t < < ; p d p i i f P { } { ` ^ h ",
"I R P Q { X.R : n P M , ; - - : $ < y k N Q R ; a a a a a a k z l a $ M Q Q W ! Q ^ f ^ c a t < t < 9 ; - , p A P _ [ { [ Q P G c ",
"N Q [ } X.| ] 8 k K ] K Z g 9 9 > a a c ! { R > a k k G G G G I l k ; c / [ { ` ~ Q e ) W N k c G G l p , i d G G G G K G c l l d ",
"k l Y [ [ ] T 2 G ] } | ) ) ^ l 9 k G ) ` { { : i c _ ` [ ......Q J 9 d J ^ ] ` ~ I S | [ ~ ) ` [ [ W j 9 8 9 a a a u y < t 1 < V ",
"u d m K W G : < G ` { [ ^ Y Y P 8 G W [ ` [ [ x 3 z ` } } } ..[ _ Q q a a m G I I x ] | ` _ ` [ ..[ I f f d 8 8 < , , > ; 8 q M U ",
"; u u l d < X k l G H G l l z N ; G ^ [ ] ) W W j d ) ) ` ] ` ` Q Q - d a k k k < M | | ` Q ` [ X.` A 5 c ^ Y N N n # > p d z N N ",
"; > u a y 5 q 8 a k k k k u a - > H / ` ` Q G K I h S e 8 g P Y Y c % i a a k i ; G | { Q I Q ` [ ) M ; k G W Q Q P 8 g 9 8 5 t 8 ",
"W ^ j y q ) ..P < a a y y , - + ; G I Y m c l k m J X c c s ; ; 8 3 7 - ; ; ; - 1 z W K z u Y ^ I d = # > a l H P 3 ) [ ..[ Q f = ",
"~ | T 1 j { ..[ 0 5 : f N G N q ; a z G k k a d d m * / ) G a - M W _ c 8 < l f 1 u G z a a G G p # & = $ , i i 3 s ) [ ....` P w ",
"n R [ ~ M P } ` h O h ^ ) ) Q Q l 9 a k k a k d a q M [ ` Y q 3 W ` ` / W Y W Y 1 y k k u a p 8 q b P P G s i i 3 i I _ ` _ Q Y j ",
"a k I ) P j ^ z g Z ) ) ] } [ _ _ j i a a a a < 4 R | { ) J 5 q > z Q ) _ / _ _ M 9 a d a u 9 P _ X...} .._ / / W - a k c G l a 9 ",
"1 a m W P x Y c g c ^ ) } ......` ^ f < t > 2 ; N Q { ~ S j I l f 9 d G Q Q ....] I - < ; # x W ) { } } ..` / _ ) M , a a i < > 8 ",
"< y N ^ N g ^ Y N j Y / ` } ....[ / g $ ; O o 8 l G K G p L z a l c 8 k I / ..X...` # % + $ , N Y / ` [ ` Q _ ) _ / 8 8 p , > l N ",
", u K Q 8 l I Y I f 9 c H ) ` ` _ P 8 a s M e 8 d d k k p P k a d l M 9 z P `  . .) 4 = 8 a > < l z J Y / ^ H Y / ^ p 9 < p z I ) ",
"- u z M $ u k k f ; # > a d l G G < 9 Y I ) / g > a k a a P l a a a G g a l / W K z - c ( ` p - y a d a l k k l H l ; k I ^ ) [ ` ",
"$ p < q p g p f 8 q I g > a a a a > l / ^ ) [ A 3 9 p q , n W G z l G c ; p d < > - d I ] { Y j $ a a a k a d a a > , Y / ] [  ._ ",
"l J ) [ P G I P 5 c l L 5 8 < k , - L I m / _ x N R L A g 9 K Y G z l 8 > ; ; > 9 q a l K ` ) P q - < u a k a a ; ; P ` ......` ^ ",
"G ] [ ~ z l G ) 9 s a x R L f - & 2 P G l Y / g ) [ / / L 9 l c z k a , a p p k K L < a J Q / L M P e : ; a p ; 8 I _ ........_ G ",
"I ) ) ) Y I Y Q c , , ^ ..} ` W w = A P x Y / h ] [ G P Q 8 a a a a ; P N k l ] [ S t k m N a < N ) { [ x o O 4 L Q ) [ ....` 9 $ ",
"G K W ) } ..| [ P 8 ; I ` [ ` / / h Z Y z I W e P c k k m M 5 < , - i Q Y G Q } { j a u u d ; - a c G J Y W h & 8 G W W _ [ W 3 < ",
"k l c G _ [  .` P 8 t l H / ) ^ H l 9 Y c z z - k k k k k z f ; > $ a G K W [ { ` q u k k d - y d k a d l z N 4 8 a z z z N N > ; ",
"u a a l G Y ^ P 8 $ , u l G P N l 8 * m l k p $ y k u k u k ; < u ; a k l m H K J p t a a 9 ; k k k u a k k c p 8 a k k u k k p ; "
};
