/* XPM */
static char *out[] = {
/* columns rows colors chars-per-pixel */
"65 64 190 2 ",
"   c #130A03",
".  c #2B1507",
"X  c #24140B",
"o  c #26160B",
"O  c #2B160A",
"+  c #2C190C",
"@  c #301607",
"#  c #311708",
"$  c #341B0B",
"%  c #3C1E0B",
"&  c #271910",
"*  c #2E1D13",
"=  c #311E13",
"-  c #3E210D",
";  c #342115",
":  c #3B2315",
">  c #362418",
",  c #3C2519",
"<  c #3F2819",
"1  c #44220C",
"2  c #4B260D",
"3  c #4D290E",
"4  c #51270E",
"5  c #532A0E",
"6  c #5A2D0E",
"7  c #5E300F",
"8  c #432512",
"9  c #4A2611",
"0  c #452813",
"q  c #4D2A12",
"w  c #412719",
"e  c #43291C",
"r  c #4A2E1E",
"t  c #542C12",
"y  c #5B2E11",
"u  c #4C311F",
"i  c #563115",
"p  c #5C3215",
"a  c #553119",
"s  c #5D3419",
"d  c #5F3A1C",
"f  c #602F0F",
"g  c #63310F",
"h  c #6A340F",
"j  c #622F10",
"k  c #633212",
"l  c #6D3612",
"z  c #663917",
"x  c #6D3914",
"c  c #643619",
"v  c #663819",
"b  c #6C3B1B",
"n  c #713612",
"m  c #743A14",
"M  c #793E17",
"N  c #733E1B",
"B  c #7A3E18",
"V  c #462D20",
"C  c #4C2E20",
"Z  c #502F20",
"A  c #4D3121",
"S  c #543523",
"D  c #593724",
"F  c #563826",
"G  c #5C3926",
"H  c #553E2C",
"J  c #5D3B29",
"K  c #623C25",
"L  c #6D3E21",
"P  c #623D2A",
"I  c #6E411C",
"U  c #774017",
"Y  c #7C4016",
"T  c #75421E",
"R  c #7C421B",
"E  c #7C4B1E",
"W  c #6F4127",
"Q  c #65412D",
"!  c #6A432D",
"~  c #6E492F",
"^  c #764121",
"/  c #7C4521",
"(  c #7E4921",
")  c #7D4C2D",
"_  c #664231",
"`  c #6B4532",
"'  c #6B4933",
"]  c #704733",
"[  c #744B34",
"{  c #7B4D35",
"}  c #7B4E38",
"|  c #7F5036",
" . c #7D5139",
".. c #706337",
"X. c #685547",
"o. c #765947",
"O. c #83451C",
"+. c #88471D",
"@. c #86481D",
"#. c #894A1E",
"$. c #814621",
"%. c #844A22",
"&. c #8C4C22",
"*. c #844D2B",
"=. c #8B4F29",
"-. c #924E23",
";. c #855023",
":. c #8C5223",
">. c #8B522E",
",. c #88582A",
"<. c #945225",
"1. c #9A5526",
"2. c #965825",
"3. c #9C5A26",
"4. c #95542A",
"5. c #9C5629",
"6. c #975928",
"7. c #9D5929",
"8. c #814F36",
"9. c #815135",
"0. c #8C5433",
"q. c #83543A",
"w. c #89573C",
"e. c #87583E",
"r. c #8B5A3E",
"t. c #925733",
"y. c #945A37",
"u. c #9B5B34",
"i. c #915E3F",
"p. c #9E5E38",
"a. c #A25D2A",
"s. c #A05D33",
"d. c #9C6129",
"f. c #9D613D",
"g. c #A5622B",
"h. c #AA652C",
"j. c #AD692D",
"k. c #B16D2F",
"l. c #B4702F",
"z. c #A56035",
"x. c #AB6433",
"c. c #AE6931",
"v. c #A5633C",
"b. c #AB653A",
"n. c #AE683B",
"m. c #B36E31",
"M. c #B16A3E",
"N. c #B47031",
"B. c #B9743A",
"V. c #8D5B40",
"C. c #915E41",
"Z. c #966142",
"A. c #9A6344",
"S. c #9D6A46",
"D. c #AA6742",
"F. c #A26846",
"G. c #AD6B44",
"H. c #A56A49",
"J. c #AB6D4B",
"K. c #B26D43",
"L. c #A57149",
"P. c #AF704D",
"I. c #B2724E",
"U. c #BA7549",
"Y. c #BB754D",
"T. c #B67551",
"R. c #BB7752",
"E. c #BD7953",
"W. c #C27B4D",
"Q. c #C47D55",
"!. c #C87E57",
"~. c #C67E58",
"^. c #C97F58",
"/. c #A1894B",
"(. c #A3974B",
"). c #BA8C54",
"_. c #AB9951",
"`. c #B19552",
"'. c #85A645",
"]. c #8FA749",
"[. c #90A548",
"{. c #9DA24D",
"}. c #84B446",
"|. c #C48256",
" X c #C88056",
".X c #C68258",
"XX c #C98158",
"oX c #D2865D",
"OX c #D2885E",
"+X c #D68B61",
/* pixels */
"b 1 :.h.#.l m <.2.@.( h.a.5.5.5.-.O.-.) H ,.g.g.Y Y :.<.1.5.1.0 T 6.h.N.k.3.M m O.-.b : e v 6.h.1.2.a.a.-.+.+.#.3.h.E i b 2.2.3.d.",
";.i $.h.2.Y <.3.&.T 6.a.1.1.5.5.O.m &.b d 5.h.:.m l n O.<.g.5.N v $.h.m.k.a.&.#.$.b y s ( d.<.O.m O.a.5.<.-.O.m m 2.3.O.z z M M Y ",
"y t <.7.j.h.h.5.E b a.O.M B O.M l n b W <.<.@.n n h l M <.j.a.1.c j +.g.a.a.5.%.t 5 &.5.a.a.O.l M 1.5.5.a.h.h.<.O.n M M &.p 4 h 6 ",
"1 z <.1.5.a.1.a.&.v m l n l l n l l 2 1.<.m h n n l n <.g.l.l.a.b 4 l -.1.1.-.z l n a.a.5.5.5.<.-.a.5.5.a.h.k.k.a.<.O.-.1.O.t 2 3 ",
"1 l n O.<.1.<.O.M h 6 h l k g y y t 1 &.-.O.&.@.O.M M #.h.m.N.a.%.t l n m m h 2 n B -.-.-.1.a.5.5.5.<.-.Y &.a.a.a.a.a.1.&.y % 1 t ",
"2 h n x U O.R l h k 1 n j y p y t p y b -.1.5.5.1.<.-.5.h.k.k.5.1.y 2 6 6 6 2 2 n M #.-.&.+.-.<.-.+.B n n n +.<.<.<.-.+.n 9 $ 2 k ",
"c 3 l n n l x n l l % 4 b &.1.h.5.1.1.b N 1.5.5.a.5.a.5.5.1.#.1.1.B   q k c 1 2 n n -.<.-.&.M M M n M O.&.n n M B B m k 4 k / 1.h.",
"Y b 6 l l n l l n l - ^ 1.5.h.N.j.5.1./ t &.1.1.1.<.&.B m n n Y B t $ a.h.k.M $ - 6 B B +.5.m l m &.a.1.-.n l h n n k % t m O.6.h.",
"B %.p y l l l l j 2 8 5.5.a.h.k.j.5.5.&.k k M +.Y n h x h g 6 6 9 @ # &.k.m.M k 6 1 % 2 g M l l l -.1.-.m h l h f f 3 $ 5 x l m @.",
"#.<.6.b y l k 2 t t i 5.5.a.j.k.h.a.3.<.U 1 2 l x n n g 2 2 c 1 = = 2 B g.k.#.+.@.@.x 6 5 2 k n l +.-.B n l 6 i b &.2.:.p x n l n ",
"5.a.j.6.p 9 $ b U m p 5.5.a.a.a.a.a.2.<.R 6 5 % 4 6 2 $ 1 R a.s v t B B 1.j.5.1.1.1.#.m l 1 2 g l M E l 7 1 : E d.<.j.k.E 5 x l h ",
"5.a.k.j.1.^ 8 k.@.Y c 5.5.5.5.-.m m n l n g 1 6 z 3 5 @.g.k.a.q %.c 5.&.<.5.5.5.1.1.R m 1 3 M 5 - # 1 s T q 0 g.<.h <.g.2.@ 1 l n ",
"O.#.5.a.<.-.p h.h.h.E 6 &.-.-.n l x n 6 1 4 E k.k.h.h.h.a.a.N b 1.a &.5.1.5.5.-.M l t q N 1.k.j.<.% %.@.5.1.p 5.<.&.<.+.m % : 5 3 ",
"h m B B M +.b &.g.h.-.2 y M n n n x l 2 g O.3.a.a.5.5.5.5./ c a.h.s l +.5.a.5.Y l 1 y l <.h.j.g.<.t 1.<.1.5.q R -.<.O.x g x &.<.%.",
"l n n n h M c N 1.1.O.f # 6 l n x n n $ 6 m B -.5.5.1.+.R c <.k.j.N 5 M +.&.+.l 9 . y l O.&.#.R m 1 +.&.-.+.5 t m M m l t U <.1.5.",
"h n n h n n 1 6 n n n n $ % - 2 5 5 6 o - h l n m m l 6 2 U h.k.h.1.8 g n l k 2 p %.<.v j k k k p 1 k l n n k % % f g 4 f l N O.O.",
"5 l l l n l $ 1 n h n h 1 l h g 6 4 5 1 + t 6 l n l k 2 5 M 5.h.a.5.N 5 f f 5 q %.<.h.T 1 t z T 1.b y x l l 6 q 8 2 q 2 k l O.&.#.",
"1 5 x l g 2 1 % 2 6 4 2 m 2.<.:.<.3.3.p # z N 6 g k . 5 h l B #.O.O.M k 1 t 5 j 7 p z p 7 %.j.k.k.h.N y y t E 5.6.%./ E k y m -.-.",
"% # 4 5 2 4 g g + 1 6 m g.j.j.h.j.h.g.p k 2.g.N p y 2 t t h n M n n n h - 6 l l k g 7 k :.j.N.N.k.5.E t t R 5.j.m.j.h.h.6.s 5 M x ",
"p l l x Y #.<.6 4 n &.k.j.a.3.5.2.U t l @.j.j.1.1.1.4.&.v % j n l n l h 1 - 5 6 g 6 6 g <.d.-.U m n l k &.:.@.&.<.g.h.j.m.h.-.c X.",
"#.-.<.-.1.5.1.1 l M a.k.a.1.<.<.T 2 3 y z ;.%.T / ^ b c y $ 2 6 f 6 y y i E p t 5 t s L 4.z.u.%.O.m l k U n l n m R #.1.a.a.5.%.o.",
"a.k.h.a.-.1.5.8 k n $.-.+.R M p p m M g 5 : + b / ) 0.0.t.u.t.0.*.*.K 4.h.k.2.R y.G.E.R.Q.!.!.!.Y.G.u.T g x h g g l n m M U R U p ",
"l.l.k.&.m M <.T q l l O.p.J.I.Q.Q.Q.Y.u.0.A.I..X~.XX~.^.^..X^.^.^..X!.!.Q.U.M.Q.XX X XXX+X+X+X+X+XoX.XE.*.1 - t y X . . $ 4 6 % i ",
"l.N.3.M l l O.5.q b D.Q.^.!.^..X~..X.X~.R.E.E.Q.~.~.XX.X^.^.^.^.XX~. X!.XX~..XOXXXoXOXoX^..X^..XXX.X.X|.!.>.-.a.a.s k l h 5 y &.5.",
"l.k.#.m l n m 1.u.P.!.^.^.^.~.!.E.J.A.e.{ ~ ` q.C.H.E.T.T.J.J.J.H.J.P.T.Q.XXXXXX!.Q.R.R.R.R.).`.)._._.`.!.!.c.k.h.:.t B m O.2.k.c.",
"h.5.U n l n l <.Y.~.^..X.X~.R.J.e.P F P G r r [ } } } V.C.A.C.A.A.A.A.S.H.I.E.I.J.H.F.S.S.H.L./.(.{.].{.).XXB.l.h.N b 2.<.5.k.k.j.",
"O.O.n l l n n 4.XX~..X^..XJ.V.P C : w G G r r { 8.P : e S ` w.C.A.A.A.A.A.A.A.A.A.A.C.C.C.A.C.S.'.}.'.[.`.^.U.j.&.t a.k.k.m.k.a.&.",
"l l l n l l O.5.!.^..XQ.J.} P P C = e G G a r { q.P = w e Z P J F J Q } ] ` Q F P P ! P P P P ' ....S.R.~.^.~.Q.I.G.b.s.a.a.-.+.Q ",
"6 l n l l l m B v.T.P.V.' J G P e : e K G S u { 8.G w : w S G u w e S 9.{ ! S e S G D e e e C G P A ` r.P.E.XX^.XXXX!.Y.K.O.n n c ",
"5 6 l n l n n N 0.F.V. .F F G P e w r G G D u { | S w : w G P u w e F e.{ ] G V G G S w e e C G K , , H  .H.E..XXXXX^.XXQ.u.M l y ",
":.b 5 k $.u.I.I.` J q.} e V S P w w r J G J D { { S e : e S G e w e D 9.9.{ F F G G u w e r r G J V : w w Q C.H.T.~.XX X X!.F.T &.",
"&.#.2 c K.~.^.{ , , S ] V V C P e w r G G K K } { S e : e S K e , e J 9.9.| G D G K u w e w e F J A : w w V [ Z.A.T.!.XX^.!.Q.z.5.",
"l n L A.XXXXE.r.! ` ` ' e e F G e w r G G G Q 8.[ S e w e S K e e e P 8.} 8.Q F G G a , e e e G G Z , , , , S V.A.A.E..X^.XX~.b.5.",
"l 6 y.Q.XXE.A. .{ i.i.] e e G G e e r K G G ! { [ C e w w G G w e e P 9.9. .P J G J C , e r e G J S w < V > V q.A.C.R.~..X^.!.z.<.",
"2 y D..X.XT.9.} i.A.A.e.V < A V , w e G G K Q ! [ u e w e G G e e , P 8.8.{ G J G G S w e e C S J D w , e > w } A.A.Q.^.!.Q.v.c 5 ",
"l N z.!.XXXXXXXXQ.I.A.C.H , e e = , < S G G P ` W u e w w G P w e e P 8.{ [ G G G G r w e e C G G F w w w = V V.A.J.~.^.^.J.b 5 l ",
"&.g.m.R.~.XXXX~.!.I.Z.r. .F A ; = = ; e V S D P P C e w e K G e e e K  .9.! S G G G r w e e r F G Z V w ; = S V.A.T.XX X XD.N &.g.",
"k.N.B.W.^..X.X^.R.I.Z.r.r.r. .` C ; * w < e C J G e e w e G G w e e D [ ! r < a S S w w e w w A G e < , = > V.C.A.!.XXXXXXY.s.5.h.",
"N.m.l.m.b.n.Q.XX X XR.H.A.A.A.Z.w.[ _ < , w V S C , w w e F V ; ; ; e S A > ; < r r ; ; = = > e e = * = V } C.A.J.XX!.R.G.4.<.<.1.",
"h.j.c.a.O.Y u.R.XX X XE.P.H.H.A.A.V.V._ e : r S e = = : w e > * * * ; e V > > e V V ; ; ; ; : e e ; : A [ S.J.T.Q.XX^.P.*.m B O.#.",
"O.<.1.+.l n g K |..X XQ..X~.Q.E.E.R.H.C.9.A , e < * * * ; : ; * : V H ` {  .q.q.e.q. .[ ` ! Q Q ! ` e.Z.I.R.XXXXOXOXoX!.I.=.z h n ",
"5 n m l l 5 o o ) E..XQ.G.Q.XXXX^. XT.A.A.V.` e ; & & & + > A ' V.Z.q.u P q.A.A.A.Z.A.Z.Z.A.A.H.~. XXXXXoX+X+XQ.!. XXX~.XX!.G.s f ",
"b c k c z T q k l k p l N P.!.!.^.XX!.P.A.Z.Z. .] Q Q ` '  . .r.F.J.A > , } E.T.P.J.H.H.F.H.T.!..XXX!.XXXXY.t.l k *.n.W.W.Q.Y.7.b ",
"#.&.&.6.N.m.:.5 U @.T 5 2 L P.!.XXOXOXXXE.T.J.S.A.A.Z.A.S.H.P.E.!.!.F.A.C.H.XX^. XQ.R.|.!.!.^.!.!.!.Y.A.W v c E %.a.h.c.c.s.4.$.T ",
"R 1.h.k.l.N.g.t n @.g.%.N N 0.~.XXOX+X+X+XXXXXE.R.I.T.T.R.R.!.XX.X~.~.XX~.~.~.!.Y.n.) n.n.z.p.p.f.6.=.N y f x O.O.O.+.#.O.B n n l ",
"n n <.g.h.g.:.1 @.g.l.k.5.a.<.B t.K.Q.XXXX+X+X+XoXXXXXXX X.X~. X^.XX^.^.!.Q.U.n.a.:.( l.g.7.1.a.h.j.<.N 6 t 6 l h l h k j f j t H ",
"l l M #.&.O.3 7 O.a.j.x.1.-.<.$.y &.b.W.W.!.Q..X X X X X XXX!.!.XX!.Y.K.z.p.%.&.#.N g.N.g.a.a.h.l.h.&.s c b 4 6 6 6 5 2 2 t p ^ *.",
"2 k x M n 6 . x n O.+.O.B n m / 2 O.<.h.x.s.s.b.f.u.K.K.K.M.K.n.z.x.d N x l n n 6 U N.k.a.1.a.c.N.a./ q R 1.&.O.T N # 5 k m B B O.",
"4 4 h h g q s 5 x x n n l l h 1 4 +.1.a.a.1.O.#.1.L %.c a b <.4.-.B $ y l n h k 4 @.k.j.5.&.5.a.h.5.E 1 l O.<.1.1.$.t b y t 4 j 2 ",
"<.2.x g p 5.k.&.6 l l k j 5 2 + 5 O.-.-.B B m n Y E # N Y l 1 2 t 8 q 1 2 2 2 1 6 M <.:.M h &.1.&.x : $ 5 h m #.%.q 1.j.m.h.1.s < ",
"2.k.;.p b h.N.h.t q 3 c T +.U p 2 h M O.n n h l x R % 5.5.O.l 1 / <.a.B y 6 m c 7 h O.m l h O.O.l $ = : $ 6 f j 9 z 5.h.m.c.a.&.a ",
"Y 2.h.6./ %.j.a.b o z 1.a.5.1.1.b 6 l n n n n x h p T c.a.<.y 2 <.g.a.5.-.-.<.-.6 g n l n l k t p I ( &.O.l k f q f #.a.a.a.6.&.b ",
"n n &.5.%.b -.B z ^ 5.5.a.k.h.a.a.b j n l l l 6 9 :.l.h.3.O.0 p 3 M 1.5.a.5.a.a.R p l x l l y %.3.l.k.k.m.a.5.5.1.1 n n M O.m h y ",
"6 l U -.%.N -.M l ^ 5.5.k.m.m.k.a.<.c 5 f 4 8 2 R 5.j.a.%.b -.m c t l #.1.5.j.k.g.#.1 6 2 $ N -.5.j.k.m.k.a.5.a.5.T 5 h l k 6 4 t ",
"6 g O.1./ b 1.-.$.v -.1.g.k.m.m.h.a.v % 1 O X t m O.#.O.k / M l m M t x #.5.k.m.k.a.$ + + % 5 R -.1.a.h.a.5.5.5.5.5.t t p 5 5 m R ",
"5 l @.1.t m &.-.&.v 6 M +.5.a.a.5.&.t l z R c 4 x x m h k %.n l n m T y m &.a.k.h.a.w , t l 2 6 n M #.-.5.1.+.-.1.5.k y 6 l m &.1.",
"1 h M R % h l n k 9 $ 5 l m m O.+.5 y -.#.5.5.b 4 l n n k #.M x l l +.z h m 5.1.#.M 1 N 2.a.k 1 g l n n M n n m +.m 2 m &.1.1.c.a.",
"% k y i k z z c 4 c &.v 4 k l l l 2 N 5.1.a.h./ 9 y k k 6 N -.R m m O.N 4 j l 6 5 % x &.g.j.-.b % l l x l l n n l 4 4 -.5.a.h.h.a.",
"x %.7.h.&.O.&.$.q B m $.q t f n t 1 $.&.Y 1.a.b E -.%.T v y @.<.+.M M t 5 2 2 4 y k h m &.a.5.&.p 1 6 h l x l k 2 2 &.g.j.N.N.g.6.",
"+.g.h.3.B n +.5.y z l N <./ c 1 $ 9 %.O.m -.5.b 5.g.5.5.$.y m B m m k 6 z k j n #.%.6 n #.1.5.$.E ( k 3 2 k l 2 t &.5.m.N.N.m.5.O.",
"#.5.5.a.-.#.-.1.T 4 5 1.m.j.g.<.a : R %.m -.1.v g.g.+.@.1.y l l l l 1 &.Y n m a.h.%.f n Y O.l 4 ^ a.h.g.N X O 8 $.5.5.h.N.k.g.p % ",
"O.#.<.5.k.k.l.h.&.t 2 &.a.h.a.5.5.b N -.M &.4.s &.B l n B T 9 6 5 1 j 1.-.+.5.k.j.z h h h l 3 1 l M O.#.-.<.z = 5 O.<.<.5.g.<.3 6 ",
"n m M +.a.h.j.a.$.t f n +.4.5.1.+.N y -.B B M 1 n n l l n M k 2 4 - l O.#.-.h.k.a.p l n n l 1 g x n n n m M O.0 t l M M M R B 5 5 ",
"l l l n O.<.5.%.t $ 6 k m O.&.B n q 8 B m n g - k n l n l n 2 6 h 2 l m m M @.#.@.k f l h p 4 x n n h l l l M c t l n h n l n k 1 "
};
