/* XPM */
static char *out[] = {
/* columns rows colors chars-per-pixel */
"64 64 196 2 ",
"   c #1D1812",
".  c #24150D",
"X  c #24180E",
"o  c #2C1C0F",
"O  c #261A13",
"+  c #2B1D14",
"@  c #2B1E1A",
"#  c #311E14",
"$  c #311E18",
"%  c #2D2116",
"&  c #2E221B",
"*  c #342316",
"=  c #392317",
"-  c #34231A",
";  c #3A261B",
":  c #362A1D",
">  c #3B291D",
",  c #2F2120",
"<  c #342721",
"1  c #342A22",
"2  c #3B2D22",
"3  c #3F3125",
"4  c #353229",
"5  c #3E3429",
"6  c #3C3835",
"7  c #43271B",
"8  c #422A1D",
"9  c #4A2D19",
"0  c #45311F",
"q  c #4B321D",
"w  c #422E22",
"e  c #492F21",
"r  c #443325",
"t  c #4C3524",
"y  c #4D3827",
"u  c #433329",
"i  c #4D362A",
"p  c #46392D",
"a  c #4B3A2C",
"s  c #503927",
"d  c #523D2D",
"f  c #593F2C",
"g  c #453C34",
"h  c #4A3D33",
"j  c #463B39",
"k  c #523E31",
"l  c #4F402D",
"z  c #55412F",
"x  c #5C432E",
"c  c #4C4036",
"v  c #49433B",
"b  c #534334",
"n  c #5B4534",
"m  c #5F4A37",
"M  c #53463B",
"N  c #5C4639",
"B  c #54493C",
"V  c #5C4B3B",
"C  c #634B37",
"Z  c #654B3A",
"A  c #624D3D",
"S  c #6A5037",
"D  c #65503C",
"F  c #6C543E",
"G  c #574F44",
"H  c #5A4D42",
"J  c #574948",
"K  c #5D5043",
"L  c #5D5451",
"P  c #595856",
"I  c #614F41",
"U  c #645443",
"Y  c #6B5543",
"T  c #6D5A45",
"R  c #62544C",
"E  c #6C564C",
"W  c #64584C",
"Q  c #6C5B4B",
"!  c #725743",
"~  c #725A45",
"^  c #735C4A",
"/  c #795E4B",
"(  c #655B52",
")  c #6F5E56",
"_  c #715F51",
"`  c #786046",
"'  c #75624D",
"]  c #7A634D",
"[  c #6E6154",
"{  c #746353",
"}  c #7A6653",
"|  c #7C6A55",
" . c #75655A",
".. c #7B655C",
"X. c #76695A",
"o. c #7C6B5B",
"O. c #756B62",
"+. c #7A6E62",
"@. c #787167",
"#. c #84674E",
"$. c #826A55",
"%. c #826D5A",
"&. c #896F58",
"*. c #85715C",
"=. c #8B735D",
"-. c #86785E",
";. c #816E65",
":. c #847363",
">. c #8A7563",
",. c #8D7965",
"<. c #887668",
"1. c #857868",
"2. c #8D7C6B",
"3. c #907661",
"4. c #937C66",
"5. c #997D67",
"6. c #937D6B",
"7. c #997E6A",
"8. c #827972",
"9. c #8C7E73",
"0. c #937C73",
"q. c #8F806D",
"w. c #9F8167",
"e. c #95816C",
"r. c #9B836D",
"t. c #9C886F",
"y. c #8E8173",
"u. c #89827C",
"i. c #958473",
"p. c #9C8573",
"a. c #9D8A75",
"s. c #94867B",
"d. c #9C877A",
"f. c #978B7A",
"g. c #9D8B7A",
"h. c #9F907D",
"j. c #A18467",
"k. c #A1856D",
"l. c #A4896E",
"z. c #A88A6E",
"x. c #A18672",
"c. c #A38C75",
"v. c #A98E74",
"b. c #A1877A",
"n. c #A28E7B",
"m. c #A98E79",
"M. c #A59176",
"N. c #A99177",
"B. c #A5927C",
"V. c #AB947C",
"C. c #AC987F",
"Z. c #B1967E",
"A. c #B0987E",
"S. c #9D8F84",
"D. c #9E9181",
"F. c #9D938A",
"G. c #A28E82",
"H. c #A49482",
"J. c #AA9682",
"K. c #A69986",
"L. c #AD9A84",
"P. c #A3968A",
"I. c #A99789",
"U. c #A79A8B",
"Y. c #AD9C8A",
"T. c #B09781",
"R. c #B19C85",
"E. c #B29E8B",
"W. c #B89F8B",
"Q. c #A29A93",
"!. c #AD9E91",
"~. c #A49A98",
"^. c #B39F92",
"/. c #AFA08D",
"(. c #B1A186",
"). c #B3A18D",
"_. c #B9A28D",
"`. c #AEA292",
"'. c #AEA498",
"]. c #B4A392",
"[. c #B9A592",
"{. c #B7A894",
"}. c #BAA996",
"|. c #B5A698",
" X c #B9A598",
".X c #B5AA9C",
"XX c #BAAC9C",
"oX c #B5ACA1",
"OX c #BAAEA2",
"+X c #BCB1A2",
"@X c #BEB5AA",
"#X c #C2AD98",
"$X c #C1B09C",
"%X c #C3B4A3",
"&X c #CBBFB3",
"*X c #C8C3B6",
/* pixels */
"j.z.T.]./.].].{.].].`.Y./.].].).].].E.E.!.!.]./.K.L.K.J.H.T 7.p.d.Y 8 C B.H.H.h.D.S.h.D.H.H.H.g.H.L.I.{ h./.K.Y.L.K.s.{.].U.:.D.",
"j.j.z.T.{.|.|.}.|.{.{.).].].].].^.E.R.Y.L.L.J.L.J.H.M.a.p.T r.r.p.4.t t >.B.H.g.g.g.g.n.g.g.B.J.Y.I.D.{ { K./.Y.Y.Y.f.|.oXoX+X+X",
"l.l.l.c.V.].}.}.}.}.{.[.].{./.).Y.L.J.B.M.M.B.B.M.f.q.:.>.D ,.r.p.b.D 9 U L.D.g.g.a.i.g.f.g.1.H.K.U.D.{ z X.g.Y.H.i.X.|..XOXOXoX",
"~ j.v.Z.N.M.C.).{.[.).).Y.Y.L.J.C.V.B.M.n.p.p.g.p.e.*.o.o.Q ' o.r.x.i.8 d p.B.g.f.d.6.a.g.g.n.n.B.B.:.X.h.Q b M B V f.+X+X.X.XXX",
": D w.e.c.V.V.c.M.V.V.V.V.M.M.B.c.M.c.c.c.p.t.a.p.,.%.X.| T D %.0.B.J.Y 8 ~ B.M.g.S.F.i.g.g.g.H.:.} W f.B./.Y.i.!.`.!.`.`.+X+X.X",
"% ; C e.$.$.-.e.M.a.a.k.t.l.z.c.c.c.a.a.a.a.a.p.r.-.| } X.U Q f./.}.Y.d.y x 6.n.a.g.~.S.a.g.h.i.K f./.XX/.K.H.U.`.K.Y.`././.`.OX",
"! - ; V 4.| ] ] } ,.t.t.e.r.r.r.k.t.t.a.t.t.t.p.e.*.} | } b 1.@X*X}.Y.Y.A f =.M.x.g.d.g.g.g.g.*.:.`.K.K.XX/.I.Y.Y.Y.H.Y.Y./.OXXX",
"r.^ - & z | ,.| ' ` ` =.t.r.e.r.t.t.t.t.p.t.p.r.,.%.| ] ^ B .X*X@X].Y.I.k t 6.n.g.p.i.d.p.g.H.1.B././.q.t.K.L.U.Y.Y.Y.L.Y.Y./.{.",
"N.k.Q = + > b _ | | | ` ` >.r.r.r.r.r.x.r.t.t.r.,.$.} X.U O.*X@X.X`.D.a r b f r.p.p.d.p.p.g.n.g.].].).].Y.Y.Y.Y.Y.Y.Y.L.I.I.L.Y.",
").L.c.] ; # # * * l h A T ~ ] e.t.r.t.t.t.a.a.r.=.%.} o.V X.oX'.`.F.p h 2.g.s $.i.x.p.d.g.g.d.2./.].].].].^.E.Y.Y.L.I.I.L.I.J.U.",
").R.L.n.| = @ # + + * - 1 u b U | 4.c.c.t.a.t.6.%.| } o.( K 1.9.@.c : i.g.n.U z 2.p.d.i.g.g.g.g./.].].].].E.Y.].U.Y.Y.Y.Y.I.U.I.",
").).T.J.a.| a = % % + + % & 3 5 z Y $.>.r.r.t.3.%.} Q U p * o + % = 1.n.c.n.i.w { d.g.g.g.g.i.i./.).).].].].].E.Y.Y.I.I.I.L.I.Y.",
"(.(.Z.V.c.4.=.m ; - - $ + + * ; y p Y | *.*.,.>.} p o # + 2 9.i.2.p.n.c.c.n.B.W N g.g.g.n.S.g.e.Y.Y.).].].).]./.Y.Y.Y.J.H.Y.Y.Y.",
"R.R.v.c.e.4.*.%.E 2 - - - - + * 2 y l T =.r.r.1.u O p i.<.H.a.g.M.a.g.M.V.L.B.n.i d.H.g.g.H.H.,.Y.L.Y.R.).R.).Y.L.J.I.H.J.H.H.Y.",
"$.! F ! F ` ~ F k $ = - & = = * = * * w n { { 5 O p H.h.G.B.B.x.a.c.M.B.V.R.B.J.I } G.g.B.H.H.,.Y.Y.L.L.T.L.L.T.L.I.J.V.J.H.J.!.",
"F Y V b u w w - @ - J +.<.^ w = = = * - - * + O 3 g.g.p.x.p.d.a.,.p.c.V.V.V.B.B.:.r A 2.s.2.H.2.I.W.V.L.V.V.V.V.B.n.n.n.n.n.Y.i.",
"z 3 + O     2 ) ;.p.g.p.e.5.%.; = ; = = < + @ * H g.e.4.3.5.6.r.r.a.x.c.B.n.B.M.t.= # > n >.H.n.>.b.c.M.m.c.c.c.c.a.n.B.n.d.[ W ",
"X : j g <  .H.a.p.t.r.r.r.7.5.%.i 7 ; 7 ; 2 - 2 i N W } >.>.,.3.e.a.a.g.4.%.-.6.q.d # o # : H :.:.2.a.v.x.v.k.t.6.6.%.Q V c h 5 ",
"0.J.m.[.{.a.p.a.c.t.r.r.r.r.6.e.6.i 7 ; e u : w 7 7 ; : r I %.,.,.*.6.i.Q A A A N N # * * # + * * a U ~ ^ ! ! U D n d a < & + v ",
"V.L._.[.p.n.M.M.B.c.a.c.V.J.V.a.i.i.d w w ; 8 7 8 8 = - * % - V ' V V N n b k i r * $ * * $ C g.:.Q V z s n Z Z z w < - H  .s.^.",
"R.[.#Xn.M.V.L.L.L.J.J.L.Y.E.Y.Y.n.n.g.^ w = 7 8 7 : ; - - % O @ & u b k 7 $ # # # * = * # C F 5.p.p.x.b.a.p.x.0.0.0.9.S.b.p.0.7.",
"#X$XL.V.L.L.T.T.Y.Y.Y.Y.Y.E.R.E.E.R.J.m.d.%.i ; = = w = - % & O O + - * $ ; e N A Y Y W ^ Z S #.t.r.7.p.7.7.4.7.0.7.7.7.7.0.r.r.",
").R.Y.L.J.R.R.R.).E.E.Y.).).).E.W.L.T.C.V.H.i.u $ w 6.+.W { P.<.;.o. ...E 0.b.b.b.b.p.7.7.} 0 ! 5.5.3.7.7.r.5.5.7.4.7.7.7.r.r.r.",
"%X[.R.R.L.R.R.E.R.(.].{.W.).R.W.R.T.L.L.V.V.J._ e s %.p.p.G.R.b.d.d.p.p.b.7.7.p.x.7.x.x.r.p.d t &.k.3.7.7.7.7.7.7.0.i.4.7.7.r.p.",
"_.[._.(.Y.R.R.E.W.R.E.).W.W.R.R.R.A.C.C.C.L.(.2.q q / c.p.x.L.V.B.v.p.r.k.7.k.x.x.k.x.m.C.J.{ 8 F x.7.4.7.7.4.4.0. X/.K.e.r.a.a.",
").(.(.L.Y.R.).E.Y.W.W.W.R.W.I.R.R.L.L.C.C.L.L.a.C 9 ] t.p.n.V.m.V.Z.v.x.k.k.r.k.k.m.Z.T.T.L.n.y q 4.p.r.x.p.0.6.G. X`..X'.e.a.H.",
"_.R.(.(.Y.R.E.E.E.Y.R.R.W.W.R.L.L.(.L.C.L.R.R.n.Y 9 &.r.t.c.V.V.Z.V.T.v.x.x.x.x.m.T.R.(.L.R.R.o.o ! x.b.n.M.p.i.4.p.a.}.oX!.g.J.",
"_._.(.R.E.W.E.E.E.^.E.W.R.R.R.L.C.C.C.L.T.R.R.Z.C 9 5.r.p.M.J.C.L.C.L.C.n.x.m.T.R.R.).W.W.^.E.H.a r =.n.B.J.H.g.0.o.q.e.Y.oXY.U.",
"_._.W.W.W.E.R.^.E.E.R.R.R.R.R.L.(.C.L.L.Z.T.L.L.C 7 ;.i.x.L.L.R.C.L.T.Y._.B.M.R.R.).).).).^.E.Y.2.$ E 3.H.Y.L.Y.B.+.U | W o.y.K.",
"_._.].E.W.R.E.).E.W.W.R.R.R.R.T.L.C.L.R.L.R.L.J.n.e } 6.n.R.).].W.R.Y.R.W.#X}.[.W.R.W.).).].].E.!.I w ~ H.K.Y.Y.Y.K.2._ U l +.K.",
"[.[.W.W.W.W.R.R.E.R.E.R.Y.R.R.L.L.L.T.L.R.T.Y.J.T.>.Y L.V.L.).].).E.Y.R.R. X{.W._.W.W.W.W.).].)./.f.% b e.K.Y.].`.`./.D.y.1.f.U.",
"[.[.W._.E.).E.).R.E.Y.Y.Y.L.Y.L.C.Y.L.R.R.R.T.L.J.J.n 3.J.J.R.{.{.).E.^.E.R.).].R.).).).).).}.).].`.G * o.L.K.].].`.`.`.`.U.U./.",
"_.W._._.).R._.R.R.Y.(.L.L.L.L.Y.L.I.L.L.L.R.R.L.J.V.4.N L.H.L.].].].].^.`.Y.].).^.).).(._.#X[.).[.].y.% [ /.C.(.{.`.`.'.`.`.`.Y.",
"_.)._._.W.W.R.R.R.L.Y.L.(.L.L.L.L.R.L.L.Y.).R.L.m.m.I.A ,.J.L.E.W.].].^.).).).].E.].).Y.).[.).).[.{.U.c K /.K.Y.}./.Y.].].].].`.",
"_._.).R.R.W.R.R.L.(.Y.L.L.(.Y.Y.R.R.V.n.R.R./.Y.V.m.m.>.V J.V.J.Y.E.].J.Y.].].].].W.)._._.{.C.K.Y.)./.( l e.C.K.].).Y.U.Y.Y.Y.!.",
"A.(.(.(.).R.(.R.Y.L.L.Y.K.(.).Y.E.E.).).Y.R.R.).I.m.m.I.A ,.L.L.L.I.^.E.].].[.{.).).).[.).e.a u 0 c K V % Q h.B.J./.U.H.H.H.H.Y.",
"z.A.(.(.R.A.(.(.C.L.R.Y.(.Y.Y.R.!.^.Y.Y.Y.R.(.Y.R.J.b.L.%.N L.H.L.R.).[.{. X}.}.E.).)._.R.U W i.t.q.1.+.G : ' C.H.H.K.H.H.B.H.H.",
"c.v.Z.(.(.R.A.R.R.R.L.R./.(././.E.Y.Y.Y.Y.R.Y.R.Y.J.a.r.e.N o.R.V.L.Y.^.].[.|.}.{.).).B.U C d.M.V.B.B.B.B.B p *.H.M.H.H.H.g.H.H.",
"N.z.v.R.R.R.T.T.A.L.L.L.(./.).).].Y.].Y.(.Y.Y.Y.R.Y.V.p.r.' V B.V.L.L.J.).).{.{.{.B.W a b >.H.V.V.V.C.B.V.t.* b 6.n.B.H.n.H.H.B.",
"v.z.z.Z.A.R.L.C.B.t.c.c.C././.).].).)./.Y.Y.Y.Y.).Y.Y.V.a.6.d >.C.B.C.J.W.[.].].].:.a c o.n.B.V.C.C.C.C.C.B.U : D b.g.g.B.H.G.H.",
"N.z.v.v.C.C.C.B.M.M.i.,.a.V.).).].).).).).Y.J.L.Y.Y.Y.L.B.M.m Y L.B.V.J.).{.).).Y.K & K g.B.V.V.A.T.L.L.J.J.a.* r } n.x.M.H.H.H.",
"A.N.v.v.v.m.v.c.M.a.Y.Y.:.e.B.Y.^.Y.Y.K.B.L.(.Y.L.Y.L.Y.Y.K.+.h x.M.B.V.).{.).).X.B F.1.:.B.J.L.R.R.(.Y.Y.L.L.{ * r o.a.n.g.S.H.",
"F T.V.v.N.M.M.V.B.K.L./.].D.f.L.Y.R.Y.L.a.a.t.B.J.L.K.Y.J.H.g.z 2.M.M.H.R.]./.i.g 8.d.p.n.L.T.Y.R.W.R.W.R.R.R.J.n * z 6.p.g.n.B.",
"y $.Z.V.V.V.V.V.L.).K.K./.+X+X}.Y.L.Y.J.a.a.r.r.c.J.B.B.H.H.H.U ' B.a.B.(.Y.C.B O.D.p.v.V.R.).R.R.W.R.W.^.R.R.Y.a.> > V i.p.p.g.",
"w f v.v.N.V.V.V.J.Y.J.J.J.J.Y.Y.Y.L.L.Y.e.i.*.A T | q.e.e.c.n.2.D c.a.c.R.R.X.v F.t.x.m.R.W.Y.).R.(.W.W.W.E.Y.Y.E.o.* r { p.r.r.",
"# t } V.c.c.V.V.C.B.B.V.V.n.H.H.H.Y.H.{ o.Q 3 O : : 3 p z B C ^ b *.5.r.c.o.v 8.D.p.m.V.R.E.).^.).R.).R.R.E.W.E.).Y.b * y o.r.e.",
"# 7 C n.n.M.M.M.M.a.c.a.x.i._ W H c a b b % X U R.H.@.g 1 , < u 0 n ~ } K 6 @.`.p.x.n.L.Y.E.E.E.)./.(.R.E.W.E.W.^.E.H.b = z e.6.",
"9 # f #.L.r.:.2.:.q.e.2.Q 2 + X O + $ @ O g K g x.C.M.B.g.y.y.( y z U M 4 P F.g.x.x.V.L.^.E.E.E.).).).W.E.E.E.!.E.].).h.3 > A M ",
"Z $ t f h 2 $ , @ - > < + O X X O . - R 9.n.7.^ I c.m.7.B.).H.g.b a h v J Q.B.x.x.n.L.R.R.^.].).).(.).).E.E.E.E.^.^.E.].i.; + @ ",
"$ ; $ # @ $ @ @ @ @ O O + - < J O.i.b.p.r.j.5.x...b } ,.2.Y.M.i.B J L O.Q.H.g.c.B.J.Y.R.E.E.R.Y.).).W.(.E.E.E.E.E.E.E.^.^.2.= + ",
"$ $ + + + $ @ O O O O + - i.a.f.7.p.t.l.x.z.k.j.k.i.o.a a B.h.e.y.!.Q.H.g.B.B.V.L.R.E.Y.W.Y.E.E.^.XX[.].E./.E.E.E.E.R.E.E.Y.9.* ",
"h { 9.0.G.S.G.d.9. .- $ ; } t.p.c.c.c.c.c.c.v.z.z.j.c.e.l n J.p.:.e.f.g.h.B.V.V.L.R.E.^.].^.).Y.Y.].].E.).Y.^.E.R.Y.Y.Y.Y.Y.E.:.",
"G.o.n.J.L.Y.R.R.R.Y.} 7 w } n.v.N.M.B.M.M.M.v.v.v.v.z.j.r.U T B.o.f.h.B.B.H.L.Y.E.^.E.].).).{.).W.L././././.!.E.).L.L.C.R.!.R.Y.",
"V.B.t.C.L.T.T.Z.C.T.T.>.w x n.n.B.M.N.V.V.V.V.B.V.m.c.c.j.e.U V ' t.h.B.H.L.Y.Y.!.E.]./.).).).).).Y.].).)./.E.].(.L.L.L.L.L.L.J.",
"V.B.V.V.V.Z.V.N.N.N.N.Z.6.r s c.B.B.V.B.V.V.B.T.)._.V.N.N.c.e.[ 3 } h.B.L.Y.Y.!.).].].].f.a.Y./.).E.!.Y./.^.E.).R.Y.L.J.C.B.a.A ",
"6.L.V.B.m.Z.m.V.N.Z.V.N.v.5.r N B.M.B.V.C.C.L.L.}.[.C.V.M.v.k.r.} T h.H.H.Y.E.Y.].].`.B.h.Y.Y./.].].^.].).E.Y.Y.f.J.(.K.C.i.3 % ",
"x =.C.V.V.N.N.Z.Z.N.N.N.v.v.w.* d ^ *.L.V.L.L.Y.).).R.C.B.n.x.3.a l o.n.H.L.Y.E.].^.].h.H.D./.|.^.].].Y.H.Y.U.Y.K.} y.B.H.3 X O ",
": r 3.V.V.V.N.N.Z.N.Z.N.v.v.N.%.o T W.H.J.J.T.Y.R.L.T.V.V.n.%.h L 2.n N g.H.L.E.).].].].`.`.`.oX!.).]./.].E.Y.Y.K.h.b U i.p O + ",
"~ = y t.V.B.V.Z.Z.Z.N.N.N.v.v.v.o.; Y L.J.L.L.T.R.R.L.V.e.H v S./.B.B.H b i.H.H.).].).{.'..XoX@X].).].^.Y.^.Y.I.J.H.2.g B & X - ",
"$.` = f c.V.N.V.N.N.N.Z.V.V.N.v.v.3.: y p.R.J.T.T.L.B.{ g K `.].B.V.B.M.n b 2.g.{.Y.Y.).]..X@X}.].).].E.!.E.Y.Y.Y.H.i.[ & . + V ",
"p.&.Y * / B.V.N.Z.V.Z.V.Z.v.N.v.N.M.r.a > X.L.L.n.o.b g u.&X%X}.).L.M.n.p.k b >.H.Y.J.L.R.R.^.W.].].^.E.Y.].Y.Y.Y.H.i.R . O a ,.",
"D.H.3.b y v.V.Z.Z.Z.Z.Z.V.Z.V.Z.N.N.z.c.} * b A u j 9.@X{.K.M.B.L.R.].W.].J.r b :.Y.B.C.L.L.R.L.R.!.^.Y.).Y.E.Y.B.p.:.% + y ;.4.",
"m.Q.H.%.w =.C.L.Z.T.C.C.V.L.Z.Z.V.N.N.V.M.:.u * V +X'.H.B.V.B.B.n.n.n.m.M.M.6.r k 6.J.V.V.V.C.V.V.L.L.Y.Y.Y.J.H.a.2.b . 2 b x =.",
"x.G.oXv.A T R.T.R.T.L.T.A.Z.Z.Z.Z.V.Z.}.{.M.p.N o./.J.H.V.V.V.B.B.v.m.m.V.v.B.o.> N i.V.V.J.V.m.m.B.V.J.J.H.B.g.6.o.O $ N } / ^ "
};
