/* XPM */
static char *out[] = {
/* columns rows colors chars-per-pixel */
"64 64 256 2 ",
"   c #31140E",
".  c #1D2516",
"X  c #2C281D",
"o  c #2B2821",
"O  c #551519",
"+  c #502E14",
"@  c #713415",
"#  c #543A25",
"$  c #1D4B1C",
"%  c #244C1D",
"&  c #28491C",
"*  c #3F431E",
"=  c #2B531D",
"-  c #29581C",
";  c #36591B",
":  c #335C1C",
">  c #38651C",
",  c #3E751E",
"<  c #1E4423",
"1  c #1E4B22",
"2  c #234524",
"3  c #244B24",
"4  c #2A4D24",
"5  c #284B29",
"6  c #354A24",
"7  c #255223",
"8  c #2B5424",
"9  c #2B5A23",
"0  c #2B532A",
"q  c #295828",
"w  c #355727",
"e  c #335C25",
"r  c #335C2A",
"t  c #385933",
"y  c #2C6526",
"u  c #356323",
"i  c #3B6424",
"p  c #34632C",
"a  c #396928",
"s  c #3C7425",
"d  c #3C732A",
"f  c #3A6932",
"g  c #3E7834",
"h  c #4B5118",
"j  c #6E4C19",
"k  c #456B1D",
"l  c #47791D",
"z  c #53771B",
"x  c #60681D",
"c  c #455824",
"v  c #555024",
"b  c #6B4C2D",
"n  c #436B22",
"m  c #476A28",
"M  c #427424",
"N  c #457A23",
"B  c #4B7E23",
"V  c #43742B",
"C  c #497829",
"Z  c #547A26",
"A  c #466936",
"S  c #556834",
"D  c #467834",
"F  c #547B35",
"G  c #717632",
"H  c #3F7541",
"J  c #785A48",
"K  c #527243",
"L  c #687248",
"P  c #606A59",
"I  c #8D3917",
"U  c #A1311D",
"Y  c #9A3528",
"T  c #904B19",
"R  c #97491B",
"E  c #AD4C18",
"W  c #B85719",
"Q  c #B86616",
"!  c #945128",
"~  c #B54C27",
"^  c #BA5827",
"/  c #B2542E",
"(  c #8D752F",
")  c #B86626",
"_  c #AD6A34",
"`  c #C24B13",
"'  c #C75A19",
"]  c #CB6518",
"[  c #D2691A",
"{  c #C77612",
"}  c #DA771B",
"|  c #E47C19",
" . c #C65B26",
".. c #CC5B31",
"X. c #CA6726",
"o. c #D56926",
"O. c #CF702F",
"+. c #D77726",
"@. c #C96835",
"#. c #CC7735",
"$. c #D57735",
"%. c #E3752B",
"&. c #925D50",
"*. c #A75D59",
"=. c #8E6F4E",
"-. c #B2714C",
";. c #87746B",
":. c #CE734A",
">. c #CE6953",
",. c #3F852C",
"<. c #4A851C",
"1. c #54841D",
"2. c #56891C",
"3. c #5C8D1D",
"4. c #48931C",
"5. c #5A971D",
"6. c #63951D",
"7. c #649B1E",
"8. c #58A11C",
"9. c #66A51E",
"0. c #468427",
"q. c #4B8323",
"w. c #4B822B",
"e. c #548422",
"r. c #538C23",
"t. c #5C8C23",
"y. c #58862A",
"u. c #5D9323",
"i. c #599724",
"p. c #4C8538",
"a. c #568935",
"s. c #4F9733",
"d. c #599438",
"f. c #638C27",
"g. c #639423",
"h. c #649A23",
"j. c #69992A",
"k. c #6E8F31",
"l. c #689A37",
"z. c #779A35",
"x. c #5DA323",
"c. c #6AA425",
"v. c #6DA22C",
"b. c #77A728",
"n. c #74A42B",
"m. c #7AA52B",
"M. c #7CAA2B",
"N. c #6FB129",
"B. c #7BB32A",
"V. c #6AA435",
"C. c #78A736",
"Z. c #7EB238",
"A. c #5A8D42",
"S. c #639643",
"D. c #789049",
"F. c #7AA843",
"G. c #77B145",
"H. c #748A6D",
"J. c #8A8D33",
"K. c #B28F32",
"L. c #83AC27",
"P. c #91A122",
"I. c #85B32C",
"U. c #8BB62E",
"Y. c #8CBA2D",
"T. c #93BB2D",
"R. c #82AB35",
"E. c #88B635",
"W. c #8BB43A",
"Q. c #93BB33",
"!. c #96BA3B",
"~. c #B6A02D",
"^. c #DA891B",
"/. c #E4891C",
"(. c #E99519",
"). c #F29816",
"_. c #F7AF12",
"`. c #D9862A",
"'. c #D18F2F",
"]. c #DB8737",
"[. c #E38928",
"{. c #E79829",
"}. c #EB9333",
"|. c #E59839",
" X c #F1AC2B",
".X c #E8A637",
"XX c #F2A637",
"oX c #91C633",
"OX c #97C537",
"+X c #9DCA34",
"@X c #A4CC3B",
"#X c #AED633",
"$X c #A9D638",
"%X c #FEC624",
"&X c #929350",
"*X c #B59250",
"=X c #88B645",
"-X c #8AB24C",
";X c #99BB45",
":X c #AFB34E",
">X c #918F74",
",X c #AA8A6F",
"<X c #95AE6D",
"1X c #B5AE6B",
"2X c #D98645",
"3X c #D49053",
"4X c #E48845",
"5X c #E59A4A",
"6X c #E49A54",
"7X c #D0B154",
"8X c #E7A548",
"9X c #F2B54F",
"0X c #E9A758",
"qX c #D88E6E",
"wX c #E69E69",
"eX c #D2B16E",
"rX c #EAB06E",
"tX c #8CC54A",
"yX c #98C446",
"uX c #99C857",
"iX c #A8C947",
"pX c #B4CA4A",
"aX c #ABD345",
"sX c #B4DC44",
"dX c #B2D44B",
"fX c #B5D94A",
"gX c #A6CB58",
"hX c #ACD25B",
"jX c #B5D757",
"kX c #BCE247",
"lX c #BBE153",
"zX c #B3D262",
"xX c #B2D762",
"cX c #D3C850",
"vX c #F9C546",
"bX c #F8C856",
"nX c #D2D561",
"mX c #F7C667",
"MX c #F1C978",
"NX c #C7E568",
"BX c #A8A09A",
"VX c #B6AA98",
"CX c #CFAF92",
"ZX c #D1A490",
"AX c #EAB68D",
"SX c #BAC7AB",
"DX c #F1CB90",
"FX c #CECBB5",
"GX c #EDD2AF",
"HX c #F3E1A3",
"JX c #B8C3C5",
"KX c #D3D4CF",
"LX c #E5D7CB",
"PX c #EAE5DC",
"IX c #DCE0E1",
"UX c #EFEFEC",
/* pixels */
"7 1 q A.l.V.w.M u u 9 % 9 9 9 9 0 f p f q r m C W.iXjXjXjXdXQ.Q.Z 9 d uXhXhXuXp.s y y 9 9 $ > 8.s , c.b.m.m.m.n.p 7 a V.s.,.,.d ",
"7 t A 7 s w.w.w.a u u % 7 9 q - 7 r p 0 5 0 m C !.pXjXdXdXjX!.!.v.- -XgXhXhXhX-Xy s a 7 7 $ $ 4.- 5.c.b.W.yXm.n.y 4 7 d ,.d y 1 ",
"V <XD w u w.w.w.i s q.- 3 7 = c c w A f 5 0 a C W.aXdXpXfXdX!.Q.B.9 V.g.=XhXhXuXd d s - $ y 0.8.l 7.m.iXhXiXC.r.y 1 3 7 q y y g ",
"hXgXW.k.i N p.C i l M B u 8 7 q m z.z.V.D 0 5 w k.:X@XcX:X:X;XQ.E.u h.h.Z.gXtXG.,.d d q.y u B.oXw.<.j.B.B.n.e.- y a d y p y q 7 ",
"xXxXjX;Xk.w a > n s s s a 0 0 q d.V.z.F.l.0 5 2 ; J.!.@XiX;X!.Q.Z.N i.V.uXuXG.Z.,.y a r.0.- x.<.$ 3 7 u a : p a y 7 1 5 1 q 1 7 ",
"zXzXzXzXL.Z = u M M C B u 0 0 0 w.a.z.z.l.4 5 2 6 x W.Q.Q.T.Q.Q.e.N h.tXuXG.G.V.s s i.4.<., 8.- < 1 1 1 y f 7 % < 2 < q p y y q ",
"jXzXzXzXR.v.& a e.-XgXgXD.q 0 0 t w.Z k.S 7 5 5 * 4 r j.I.E.C.g.: N G.hXtXG.V.,.0.i.i.4.$ $ <.$ 1 s 0.0.0.% < 2 < < < q y y y y ",
"zXzXzXjXR.m.w i uXxXhXhXhXK 0 0 0 0 w m v 3 2 6 4 D Z B C M = = <.i.G.tXV.s.,.,.4.i.i.8.8., , - i.i.5.8.8.8.a.l.F 2 < 7 y y y y ",
"zXzXhXiXm.m.9 C j.C.zXgXhXF.p a w.d.d.S h 2 2 v -XdXdXiXiX!.Z.u q.4.7 d ,.p.S.G.V., y x.x.i.5.x.8.i.x.x.oXdXjXNXjXC.2 2 q r y y ",
"hXzXgXR.m.v.= y.g.R.zXgX-XF.N V s s s.z.b 6 4 ( jXpXiX:XiXiXiXW.y.yX9 q tXuXuXuXuX,.l x.5.8.$X$XoX8.x.oXaXaXNXNXNXNXm V C r q q ",
"R.;XR.M.b.t.> g.j.uXuXV.S.d.V N V D V l.k.6 6 ( dXiXiX@X@X;XOXyXuXV.> d.uXuXuXuXuX, 0.x.<.B.#X#X$Xl <.@XaX@XdXjXxXNXV.C F y.z.;X",
"j.m.m.b.b.a B j.yX:XS.S.S.p.s D N C V d.J.S v G iXiX@XW.m.b.v.c.N - j.G.uXuXuXtXi.- 0.i.4.N.$X$X$Xa a yX@XaX@X$XjXNXn.V k.yXaXfX",
"a.a.B f.t.% y.=XgXF.S.S.a.s a V C D 0.l.J.K v v F.E.n.c.v.n.v.N 7 1 u V.=X=XV.C q $ > 5.<.8.N.oX+Xm n pXaX@X@X@X@XaXF a.iXdXfXjX",
"gXiX=X; > : u.C.l.p.p.C D p a d d V D l.G G v b 8 y.c.c.j.y.e 3 q q 7 w.> y : B i.i.4., <.8.8.N.W.F G cXcXpXpX@X@XM.n ;XfXjXlXfX",
"iXgXiX-X% 1.: n t.N D f u d s d f p.C.D.=.<X=.=.P A w n 8 3 a d.d.d.a.- y $ 0.7.7.i.h.i.- 5.8.:XbX8X5X}.[..X.XcXn.9 y.OXaXaXaXfX",
"gXiX;Xm.l Z C % 3 F F.;XuX-Xy.n A.:X7X1XeXGXGXrXFXSXH.6 < q l.V.d.V.d 1 - , i.5.5.h.7.i.<.x.W.8X.X{.+.} [ `.{.'.c 3 j.I.U.W.U.@X",
"!.R.m.m.n.=Xt.2 a.F.gXgX<XzX<XH.JXLXrXrXMXHXGXDXGXGXAX>X4 r l.d.d.i.i % 3 q.5.u.6.i.i.r.u :XcX`.+.`.] ! W O.} {.~.t.M.I.I.U.E.yX",
"!.m.n.l.V 8 B f S.S.F.zXzXFXUXUXUXUXLXAX9XmX9XXX%.$.qX3X=.8 d.V.u.u.3.z > , 6.b.j.g.3.i.;XeXvX X+.! m.c.j.P.+.^.[.m ; a.d.y.= % ",
"m A 9 4 q p.s.w.A.S.F.uX>XUXUXUXUXIXPXGXrX9X%.4XLXUXUXUXLXK v.oX6.3.3.3.<.- 6.=XE.3.a 7 &X8X.X/.|.v l & y D ( /.(.Z C a.d.V & 2 ",
"4 0 q 0 g A.A.p.p.D D S.KXUXIXVX1XVXKXFXrX%.ZXPXUXUXUXPXUXKX<XtXR.u.g.3.3.> 2.Z.E.3.s q *X8X[.+.O.h l B K.K.( ^./.~.@X@XaXaX=X4 ",
"0 r p p p.s.A.,.A.g 0 H.UXFX,Xb + # >XVX5XqXLXPXFXKXKXIXIXUXSXuX=XZ.u.t.3.z M 6.g.3.i A 7XbX X{.$.c 8.N.~.].K.(.(.iXaXfXdX#XsX-X",
"r y r p A.A.p.g D p.A BXPXBXJ o o   b *X4XAXLXVX&.=.BXKXIXIXIX<XC.E.j.3.t.3.= 2.3.2.5 S 7XvX_._.XXk.N.oX~.'.`.^.K.U.aXfXdXdXaXdX",
"r p p p p.A.g f d D D H.PX-.# o o o # / :.FX,Xb o X # P JXJXIXBX1.f.g.2.2.1.& = l 8 2 S 9XXX[.} %.( N.tXB.L.P.L.6.6.M.aXaXsXdXaX",
"q q y p p a f g f p f P LX,X# o o . j @.:.ZX&.# o o # v BXJXKXSXk l 1.1.1.: & ; > = = t.~.%.} +.+.( c.tXtXN.9.9.9.9.7.iXdXdXdXl.",
"0 w y.f.y.e e 0 4 7 K >XKXVXJ + o o &.$.:.VXb o o o o # ;.JXJXVX3.Z 9 > k k = % 5 m k j.7X.X X).(.3Xz.B.tXtX9.9.9.3.p.E.tXtXa.y ",
"f !.$X$X$XOXC 2 < t ,XwX:.VXVX=.b / wX%.@.qX=.# o o + b BXBXJXBX3.3.k > & M 2 3 e z Z f.cXvX_._._.8X=.l N.E.N.9.9.1.p.p.p.a.p.y ",
"R.@XpXfXfXaX@XZ 5 K AXwX2X:.-.qX6XwX4X%.o.*.*.&.b # J P BXBXZXrX3.3.k o & > 2 3 8 Z Z Z :X{.(.| +.#.=.S 3 - > a % p p.p.p.H g d ",
"@X@XjXlXlXjX@XQ.0 L wXwX_ 3XwXrXwX6X%.%.o.^ &.;.J J ;.>X;.ZXZXZXj.f.= k e.l.7 2 3 w m Z K.`././.^..X9XeXa.u 3 % & 0 p.p.p.A.y a ",
"T.T.pXjXjXfXaXT.w L rX0X_ b 3XwX6X}.%.%.[ ' E ! &.;.&.&.&.qXZXAX3.Z z e.f.tXr.q 5 2 2 w :XbX%X_._._. XvXC.w.p a i < p D g p e.j.",
"T.T.@XdXjXlXdXT.Z L rX0XK.  X @ X.o.[ ] [ ' W E Y ~ ....>.>.ZXAXk.l e.e.3.!.m.l 5 2 2 5 7XvX_._._.(.(..X&Xw.a.E.W.F q e r e.E.oX",
"T.T.Q.Q.iXdXiXT.f.F 1XrX5X+   . + + @ O O O +   +  .@.>.>.>.ZXAXA Z e.e.r.W.Z.Z 8 5 2 f 1XXX).).} [ X.'.&X<.n.W.W.W.V a k m.OXoX",
"C.T.T.U.Q.Q.T.T.a.V &XCX9X(     O O             R [ ....>.>.>.ZXc Z g.e.t.j.g.1.0 2 0 A.7XvX X X(.`.'.2XF M j.W.W.W.j.i z Z.oXQ.",
"d.I.U.U.U.U.U.U.V d p.&XDX9X) ! *.Y U O O O + E [ [ ....>.>.:.,X5 A b.M.M.C.n.e.7 0 0 D.9XbX%XvX_._._.vXD.m f.W.W.E.z.> 2.U.Q.Q.",
"D n.R.R.R.I.I.M.s g g p.<X9X.X{.....U U U E ] { '  .~ / / >.:.J 5 k.oX#X$XB.B.C.q q A &XXX X XXX X)._. Xk.i z C.W.W.z.k z T.oXoX",
"q e R.I.R.U.U.Q.OXOXE.l.e *X0X.X%.%.{ [ ] ] ] ` ' ^ / / / _ G t V E.kXkXkX+XM.B.j.&XmXbX XvX X[.+.+.`.{.G m z 2.R.!.z.k z m.E.oX",
"> $ > g.Z j.OX+X+XOX@XOXC.&XrX.X%.| { ] ] ] Q Q W E / _ ! S t r g.@XkXkXkXkX;X:XgXMXbX9X X_._. X`.o.+.'.k.z k z z j.Z = z 1.f.f.",
"M.- : : w m.L.Q.+X+X+X+XOX1X9X|.}.$.] ' Q R E E E _ 2X*XL p r f N.kXkXnXnXNXnXMXmXmXbX9X{.(.(._. X|.].K.m k k c 6 & ; ; X ; ; = ",
"+X, l - Z M.T.OXiX+X+XOXpXnX9X9XrXrX'.#.Q T T T ) _ 5XZXCX*X&X&X;XMXDXMXmXmXmXbXbX8XXXXXXX}.+.| ^.(..X&Xk m k n 6 ; ; = h.Y.U.n.",
"oXb.9.9.m.m.L.@X@X@XOXOXpXbXbXvXHXDX8X7X'.Q Q Q ) #.:.qXGXGXDXrXDXrXrXDXrX9X8X9XXXXX}.[. X}.].o.+./..X*Xf.Z m n ; k z h.Y.oXY.oX",
"g.> 1.= n f.m.m.m.I.OX!.1XbXbXXXMXMX.X8X^.^.Q ) ) ^ _ 3XAXGXDXrXrXrX0X0XrX9X5X[.[..X}.[./.{.|.@.X.+.{.cX!.!.z n ; & ; 1.b.Q.Y.Y.",
"% - , 3 3 7 e C C Z e &XAX9XbX9X X X{.^.^.Q Q Q E _ :.3XeXAXAXDXwX4XrX4X$.|.8X4Xo.| }.}.o.} `.8X@.`.8XcX;X@Xz : & < < 8 k 1.m.U.",
"< - > y a > 7 4 7 8 6 D.DX6X8X.X.X.X'.^.^.Q Q Q @.O.2X3XqXwXAX0XDX}.5XwX$.%.[.0X$...+.}.O.o.} {.6X:.7X:X;X=X; - 2 2 1 o 4 k z m.",
"3 % 5.V.c.5.r.q 0 7 5 D.MXrX7X].].$.+.} +.} [ +.X.O.2X:.@.2XrX6X5X6X%.0X$.o.+.`.5X..o.+.].O.o.^.8X&X;X;X!.m X > ; ; : 4 1 o = ; ",
"3 8 i.C.C.V.i.N q 4 2 L MXmXrX0X5X|.`.[.} [ [ ] X.O.-.:.@.2X0X:.].6XO.5X$...o.} ].$. .[ ].O.X.`.8XG f.F F k.k.Z ; > > 8 < < < 3 ",
"3 9 i.C.G.V.V.i.q e l z.1XmX0X0X|.}.| | } [ ] ]  . ./ / O.].5X:.$.2X@.].]... .o.+.$. .X.`.#.O.+.5XV.e F.=XW.=X=Xl > e & < < Z !.",
"3 9 r.V.V.Z.V.q.> 7.7.h.W.rX8X|.].+.} } ] ] ' ` ~ / @.@.+.+.:.>.O.2X@.O.}... .] +.#.) X.+.#.O.].&XI.W.=X=X=X=X=Xk.> w % < k.lXlX",
"a q.0.r.V.V.i.: 5.Y.oXI.R.rX8X].+.+.[ ' ' ` W ~ ^ ..o.X.[ +.@./ @.#. .#.]. .^  .X.O.) X.O.'.:.&Xz.V S.=X=X-X=XF.t.Z 3 < n fXNXNX",
"w.w.0.s > u % $ 9.oXoXoXC.eXwX2X#.o. . .W ~ ~  . .X.] ' ] X./ ~ X.@./ X.O.~ ~ ' X.#.^ ^ #._ G m z.m m a.g.d.y.j.1.<.> < !.kXkXkX",
"N 0.0.w.9 < 2 < B n.B.b.i.:XrX6X2X$.O.o.o.o.[ [ ' ` ` ` ~ / Y ! X./ ~ X.) ! R ^  .) E ) ( f.V s E.C r V j.j.Z.OXi.N k 3 sXsXsXsX",
"e w.w.q.d n n 5 % B 5.i.5.R.7X8X|.].].+.+.X.[ ` ` ` ` ` E I T E ) ! E ) T I U W ^ ! R ! G g.I.E.E.w.A w.c.t.i.OXB.N l e sXsXsXfX",
"3 f B q.v.U.U.C.= 0 a.J.-...^ @.+.+.[ ] ' E E E U U U I I @ R R T @ R T @ @ I T ! x x z 1.oXOXOXOXyXD V i.w.0.w.y.l , & sXsXsXcX",
"q 5 8 y.E.Y.U.Y.l.D G _ ~ U I @ E W W W E E U I I @ R ' ' E I @ + @ j + + + @ v Z <.1.N 1.b.m.I.oX+Xl.p w.D w.w.C l > < N.sXsXsX",
"p 3 4 C.Y.Y.U.U.E.f.c j @ + # + h j R T I T @ j j @ o.%.| %.W @ + h h h h k h z j.j.6.e.1.g.h.h.n.yXC.r f C w.N l k & & % n k.z.",
"f < 9 oXOXT.Q.U.U.U.w 2 i < 7.5.h.v.f.F c S k.z.P.P.o.o.%.o.o.j i > <.4.<.r.<.m.W.c.7.g.M t.g.v.Z.oXf.w f V C M l = 6 & = Z k.R.",
"H 1 i +X@XQ.T.Y.U.U.f.: l B 7.B.B.M.d.d.l.d.y.a.f.f.! R U T T v 9 % 2.<.<.l f.I.E.m.6.j.B > j.Z.G.y.i m V a 6 6 6 c w Z z z.z.=X",
"f l.+X+X+XT.Y.U.U.U.g.3.g.- & 6.B.b.V.V.l.V.V.F 6 & : m h w 6 3 0 u r.r.B l 3.W.W.R.6.6.u.e & w = C F Z ; c m t 5 < 8 C z l.J.R.",
"h.+X+X+X+XT.T.Y.U.M.= 3.% < < < a.l.l.l.V.l.C.S.Z p p r M a 9 5 0 e 5.r.B l <.R.W.W.6.6.6.z 2 M yX+XaXkX$Xv.l s u 3 2 a Z f.z.R.",
"+X+X+X+XOXU.U.Y.I.i > <.; = < < l.C.W.G.G.=X=X=Xy.0 e i.c.3.q.0 0 4 r.r.r.N <.n.W.W.j.6.6., m aXlXsXlXkXsX#XM.<.<.q 1 4 B z f.z.",
"+X+X+XT.M.I.Y.g.0 7 f.2.g.i.l % l.z.=X=X=X=X=XG.a.0 y.n.V.5.2.y 4 5 M t.i.i.r.5.R.W.c.7.2.= E.lXlXlXlXlXkX$X#XN.<.N 1 3 w C z f.",
"I.Y.L.b.b.m.j.< 4 t.> 3.W.E.n.l B l.F.F.C.F.F.l.m a v.v.v.g.2.e 7 0 5 s r.r.i.i z c.6.3.: > U.aXlXlXlXkXsXsX#X#XoXl.3 5 r i i m ",
"7.b.b.m.M.M.t.4 r.: > 2.Z.=X=Xj.e l.l.z.l.z.l.V r y.V.V.C.v.r.p 4 q 8 8 5 0 3 5 5 = k z l B.L.L.I.#X#X#X#X#X#X#XZ.r.8 f A f 8 w ",
"1.N Z g.f.n n g.: $ % q.i.C.=XE.: 0 D F F D t r r a.j.n.C.G.2.u n f.6.6.1.> 2 5 5 > > 4 = L.L.L.+X#X#X#X#X+X#X+Xk M i t f a 8 8 ",
"- 1 8 - % > a 2.2.<.7 q B t.C.n.q 2 2 5 3 0 0 w r F V.v.C.Z.e.1.j.7.6.6.6.6.M 8 n 1.z ; = 2.P.L.L.T.T.T.Y.L.@Xh.s : f f a f 9 A ",
"i r.2.2.<.- - 0.2.h.r.% 8 s N u < 2 2 2 3 0 0 4 5 8 a.l.l.F t.I.Q.7.6.6.6.6.<.z > 3.5.6.3.1.6.9.B.L.L.P.L.M.g.u p u f f a f A.A."
};
