/* XPM */
static char *out[] = {
/* columns rows colors chars-per-pixel */
"65 64 225 2 ",
"   c #29160A",
".  c #311708",
"X  c #341B0B",
"o  c #3C1E0A",
"O  c #281C17",
"+  c #351E11",
"@  c #3E210D",
"#  c #2A201F",
"$  c #3C2213",
"%  c #36241D",
"&  c #1D232F",
"*  c #1A283F",
"=  c #2A2527",
"-  c #392B29",
";  c #272B39",
":  c #392E30",
">  c #3B3238",
",  c #43220C",
"<  c #4C260D",
"1  c #4D280E",
"2  c #50260D",
"3  c #53290E",
"4  c #5A2D0E",
"5  c #5E300F",
"6  c #452511",
"7  c #4A2611",
"8  c #4D2A12",
"9  c #462919",
"0  c #542C12",
"q  c #5C2E11",
"w  c #542F19",
"e  c #4F301E",
"r  c #5C3114",
"t  c #53311D",
"y  c #5A361A",
"u  c #5C341A",
"i  c #602F0F",
"p  c #63310F",
"a  c #6A340F",
"s  c #633212",
"d  c #6D3612",
"f  c #673917",
"g  c #6E3814",
"h  c #633619",
"j  c #66391A",
"k  c #6C3B1B",
"l  c #713612",
"z  c #743A15",
"x  c #793E17",
"c  c #723D1B",
"v  c #7A3E18",
"b  c #472D24",
"n  c #4A3228",
"m  c #563728",
"M  c #473739",
"N  c #573B37",
"B  c #643A23",
"V  c #623A37",
"C  c #6E411B",
"Z  c #75411E",
"A  c #7B4318",
"S  c #7C421B",
"D  c #5C402B",
"F  c #5A4338",
"G  c #6C4229",
"H  c #7C4521",
"J  c #7B4926",
"K  c #674536",
"L  c #764A32",
"P  c #795334",
"I  c #0F2743",
"U  c #0E2843",
"Y  c #122945",
"T  c #192A44",
"R  c #1B3149",
"E  c #272D47",
"W  c #31364E",
"Q  c #38344A",
"!  c #4D2F47",
"~  c #4A3648",
"^  c #5A394B",
"/  c #483953",
"(  c #533A54",
")  c #5A3C55",
"_  c #65394E",
"`  c #673C56",
"'  c #783751",
"]  c #2E4459",
"[  c #35475B",
"{  c #5A454C",
"}  c #4A4A51",
"|  c #4A4359",
" . c #5A455A",
".. c #664749",
"X. c #6F5445",
"o. c #664758",
"O. c #6B425C",
"+. c #77455D",
"@. c #695859",
"#. c #554963",
"$. c #514B64",
"%. c #475767",
"&. c #684B65",
"*. c #7A4963",
"=. c #67576C",
"-. c #735769",
";. c #6A5D72",
":. c #795B74",
">. c #596673",
",. c #6D6874",
"<. c #83451C",
"1. c #86481D",
"2. c #894A1E",
"3. c #824621",
"4. c #844A22",
"5. c #8C4C22",
"6. c #844D2C",
"7. c #924E23",
"8. c #8C5124",
"9. c #88522A",
"0. c #945225",
"q. c #995526",
"w. c #9C5A26",
"e. c #955628",
"r. c #9C5629",
"t. c #9D5A29",
"y. c #865833",
"u. c #915E31",
"i. c #A05A27",
"p. c #A25D2A",
"a. c #9D612C",
"s. c #A5622B",
"d. c #AA652C",
"f. c #AD692D",
"g. c #B16D2F",
"h. c #B4702F",
"j. c #A96931",
"k. c #B36E30",
"l. c #B47131",
"z. c #893954",
"x. c #9A3C57",
"c. c #AF3D59",
"v. c #8E445D",
"b. c #B6425D",
"n. c #894A64",
"m. c #934D65",
"M. c #9B4D67",
"N. c #89596D",
"B. c #845C74",
"V. c #985971",
"C. c #B94E66",
"Z. c #A3516B",
"A. c #AB546D",
"S. c #B5566F",
"D. c #A85B73",
"F. c #B65771",
"G. c #BD5A72",
"H. c #886379",
"J. c #8B647B",
"K. c #93677D",
"L. c #B6647C",
"P. c #D4516C",
"I. c #C55B73",
"U. c #CB5B74",
"Y. c #D65D76",
"T. c #E35B77",
"R. c #C96179",
"E. c #D66177",
"W. c #D4617A",
"Q. c #DB627B",
"!. c #E4647C",
"~. c #EA647D",
"^. c #E5687E",
"/. c #6A7881",
"(. c #777C86",
"). c #946881",
"_. c #9B6B83",
"`. c #807782",
"'. c #A36D84",
"]. c #B86A82",
"[. c #A97389",
"{. c #B4768C",
"}. c #B67990",
"|. c #BC7C93",
" X c #D17188",
".X c #D5748B",
"XX c #C37E95",
"oX c #C87F96",
"OX c #E96985",
"+X c #EA6C84",
"@X c #E6748A",
"#X c #EC748C",
"$X c #E37B92",
"%X c #ED7B92",
"&X c #7D868C",
"*X c #878E93",
"=X c #8E9094",
"-X c #B58C98",
";X c #9EA2A2",
":X c #A3A6A5",
">X c #AFB2AF",
",X c #B5B8B2",
"<X c #CC8298",
"1X c #D1869C",
"2X c #D7889E",
"3X c #E9869B",
"4X c #EE849A",
"5X c #F0869D",
"6X c #D789A0",
"7X c #DC8BA2",
"8X c #E38DA3",
"9X c #E98BA2",
"0X c #F18CA3",
"qX c #E792A8",
"wX c #ED94AA",
"eX c #F194A8",
"rX c #F396AB",
"tX c #BFC0BA",
"yX c #C5C6BE",
"uX c #CCCCC3",
"iX c #D6D5C9",
"pX c #F0ECDB",
"aX c #F3EDDB",
"sX c #FDF6E2",
"dX c #FFF8E3",
/* pixels */
"k 6 8.f.2.l x 0.q.1.J d.t.t.r.r.7.<.0.6.m 9.s.s.A A 2.q.r.t.r.6 Z q.f.l.k.q.x x <.7.B $ 9 B q.s.e.w.s.i.7.1.<.2.w.d.A y k 0.w.w.w.",
"4.0 <.d.0.A 8.w.2.Z t.i.q.r.r.q.<.l 4.k h t.d.8.l l z <.7.p.r.k f 4.d.k.k.p.4.1.3.c q h J t.r.<.l 1.t.r.q.7.<.z z w.t.<.h f x A A ",
"q 1 8.s.g.d.d.i.3.C p.<.x A <.x l l B c e.0.<.g l a a x 0.g.s.q.h i 1.t.P K K m 7 3 5.i.s.i.<.l x q.r.r.i.d.d.q.<.z A x 2.r 1 a 4 ",
", f 0.e.t.r.r.t.8.f g d l l a l l d 8 q.0.x g d d l l 0.s.l.g.a.k - ; / :._.[.:.M B r.i.q.t.r.7.7.i.r.i.i.d.g.g.i.8.<.7.r.<.4 < 1 ",
", l z <.7.e.0.<.x s 3 d d s p q p 4 @ 5.7.3.5.<.<.A g F ,.@.P K &.H.1XrXrXeX0X3X*.N q.7.0.r.i.r.r.r.7.7.S 2.i.p.i.r.r.q.4.q X , 4 ",
"< a l d v <.A l a d , d p q q q 0 0 r k 7.0.i.t.r.0.N &XuX>X[ | 2XwXrXeX4X$X#X~.m.V 5.4.5.4.7.0.7.2.v v l z 1.0.r.q.7.<.z < X 2 r ",
"h 1 d d l d l d l d o 2 k 4.t.s.t.q.r.f c 6.q.i.r.9.%.aXdXsXyX| 6XrXrX%XOXA.Q.W.) t 7.0.7.5.l v x l x <.2.l l x v v l s 2 u S e.d.",
"A c 4 d d l d d l d o H i.r.d.l.f.r.r.L ; [ W 8.5.> ,XsXdXdXdX&X}.wX5XU.~.F.` / = 3 v v 1.r.x d z 7.q.q.7.l l a l l d @ 4 z <.t.d.",
"x 4.r 4 d d d g p 7 6 r.r.i.f.g.g.t.q.@.>XsXiX[ ~ W pXpXtX&XiX>X:.2X+XZ.n.o.; t 4 , @ 1 p z z l g 7.r.0.z d g a p 4 1 X 3 g a C 1.",
"5.0.e.k q d s , 0 0 w i.r.i.g.g.f.t.L :XsXdXdX`.*.| dX,X[ U %.yX;.XX~.S.Q F 2.<.1.<.z 3 3 < s l l <.7.x z g 4 w C 8.w.8.r d l l l ",
"r.p.f.e.h 7 X k x l r r.r.i.i.p.i.q.F iXiX;XiX=X( | dX*XU U R uX;.{.~.S.~ y.r.r.q.q.1.z d @ < p a A A g 4 @ $ S a.w.f.g.H 3 d d d ",
"r.p.g.f.r.Z 6 g.<.A j r.i.r.r.7.z u } uX>.Y &X;X| W dX&XU U ] uX;.L.~.Z.N e.r.r.r.q.A z 6 3 z 0 , . , y Z 3 6 s.8.a 0.i.w.. , d d ",
"A 2.r.i.0.7.r d.d.s.H p 5.7.7.l l t @.tX] I ,.:X| W aX,X[ W >XtX:.oX~.n.K r.r.7.x d 2 8 c t.f.f.0.@ <.1.r.q.r r.0.5.0.2.z @ @ 1 8 ",
"l z x S x <.k 5.d.d.7., q v l l l t ,.tX[ I &X=X;.W :XsXuXuXdX*X[.0X~.O.L r.r.A a , q g 0.d.f.s.0.8 e.e.r.q.8 S 7.0.<.g p g 8.8.4.",
"l d l l l x f k e.r.<.p . 4 d d l n >.iX/.%.,X(.[.$.%.aXsXsXiX=.2XrX^._ G 5.1.g <   q d <.5.2.<.z , <.2.7.2.4 4 x x l d 2 A 0.q.r.",
"a l l d l l , 4 l l l l . o , 7 b ~ Q pXsXsX,X).wX[.&.:.-X=XQ D.3XrX4X..r d d , r 5.0.f p s p p r , d l d l s X X i p < s g x <.<.",
"2 d d d d a X < d d g a , d d p b m.+.;XuX,X,.7XrX8X&.G.D.n.#./ '.qX0X_ w p < 8 J e.s.A @ 0 j S e.k q g d d 4 8 6 7 1 1 p g <.2.5.",
", 4 d l s < , o < 4 2 < A 0.0.8.{ E.E.+.=.N.|.rXrXrX7X%X X:.>XI W [.rXo.+ 2 4 s 5 r j u 5 4.f.g.g.f.k q 4 0 S t.t.4.J S h 4 x 7.8.",
"X X 2 1 < 3 i i . , r g w.f.f.s._ !.~.R.I..X0XrXrXrXrX7X).:XsX] Y :.rX@.+ q l d a p 4 5 e.f.h.k.h.t.<.8 0 H t.f.g.f.d.d.q.u 4 z g ",
"s s d z A 1.0.4 1 l 0.f.f.i.t.t.^ Q.#X5XeXrXrXrXrXrX6X;.%.>XiX[ I $.rXo.+ , 1 4 p 5 5 a 8.t.0.v z l l h 1.7.1.5.0.a.d.g.h.d.0.u X.",
"2.7.0.0.q.r.r., d x p.d.p.r.q.0.~ G.%XeXrXrXrXrXwXoX).*X=X%./.I U $.wXo.e 4.u 8 2 8 8 0 1.7.S d d d g s x l d d x A 2.r.t.t.t.4.X.",
"i.g.d.p.7.r.r., a z <.0.<.x x 1 9 ( D.3X0XrX0X-X`.=.(.aXiX] I I Y :.rXo.a.f.r.c S 5.7 6 5.v l l l d d 5 p g d s p d a l A A A v q ",
"h.h.g.2.z x 0.Z 2 a d d a , X 0 K (.>./ O.( Q >.,XuXY :X(.Y E n. .[.rX..a.s.q.0.r.i.c 8 0.0.v l d d a 4 4 , @ 0 w   . . X 2 4 o w ",
"l.l.t.x d d <.r.6 , q 6 + 0 <.d.y.=XyX%.*XiX*X=XpXiXI R Q m.~.S.J.6XqX~ <.<.7.q.q.4.q r p.p.1.v x d p < < g 7.p.i.r s d p 4 q 4.t.",
"h.g.2.z l d x r.f o 0 0 8 u 8.k.j.X.{ [ :XdX&X] %.%.U *.U.~.Y.&.1XrX}.: p l <.<.v p 7 4.k.k.r.q.0.4.z w 5.i.f.g.f.5.0 A z <.w.d.g.",
"d.t.x l d d d 7.<.8 s l d < <.f.a.F - n ,.;X%.U U U  .W.OXY.` _.wXrXH.- 2 a l l 0 0 0 7.g.k.p.i.r.0.g r p.g.k.g.d.k k r.0.t.g.g.d.",
"A <.l d d l d 7.7.f i <.A 4 8 e.P  .Q f n * U I I Q ~.~.Y.*._.rXrX3XQ j . 4 l 7 c v l 1.t.p.i.q.2.a , h s.l.g.f.8.w i.k.h.h.f.i.5.",
"l l d l l l S q.7.f 4 7.p.2.s   O :.).n n T U I T Z.OXA.*._.rXrX3XH.m u   $ y 8.i.3.s z x v x d 4 . $ z 0.7.5.v < A 7.r.i.i.0.1.G ",
"5 d d d l a z x s , p i.f.t.<.< y @.-X#.T I I I Q A.` B.}.wXrX0XV.N z h   j g.l.p.q.2 d l l 4 @   k 7 g x z d 8   q x <.2.A x l h ",
"0 4 d l d l a 4 o 4 A f.g.p.4.0 a...[.{.$.I I I E &.).6XwXrX0X X) m d s w 4.d.j.q.4.2 p l s o O $ q.q d a 4 q f j < a l x d l s q ",
"5.k 4 p d 4 < 4 v 0.f.g.d.S j f.h.u.{ 1XqX|._.'.XXwXrXrX0X%X X_ w d l s v q.e.0.1.v 2 , , o 5.c 3.q.f 2 h 8.s.d.d.4.@ s d 4 q c 5.",
"5.4., , < , 3 z 7.0.d.d.8.j 8.l.h.t.D -.XXqXrXrXrXeX0X%X%XY.+.- q p 4 2 k 1.<.A x l i < @ f e.c 4.r.h 6 0.d.k.g.f.7.  1 4 r H r.r.",
"a g < . , s l l x x <.0.k 7.i.d.r.v M Z.m.V. X#X#X#XOX~.G.) - 7 2 2 2 X 3 l d l l g p < H t.s.Z g <.5 Z i.k.g.f.p.H 8 4.e.s.j.p.t.",
"d 4 , 2 3 3 p d d l l x 0 0.t.t.A m { #XR.I.!.OX~.~.~.n.( M h s i s d 3 7 i d d l l 2 u t.k.d.Z r x r 0.r.p.p.p.i.w 8.g.k.l.f.t.e.",
"< 4 z x d a 4 3 4 s d a < l v z f M '.0X5X#XOX~.~.~.Y.~ ; B r.5.1.<.S 2.7.k 0 i i 0 8 5.g.h.s.3.q s 4 A <.v v z 0 3.f.g.k.q.<.s 1 ",
"s x 1.7.v x l p 4 4 i 4 o i s q 8 ( -XrXrX5X%X+X+X~.G.Q V u i.j.d.i.q.q.q.q.h 7 u c f f p.f.f.e.r < 4 d l d d p 0 r.p.f.t.g 4 0 d ",
"7.s.d.d.q.7.1.v d p 0 k g 2 2 0 O :.8X<X6XrXrX0X4X!.Q K r.c s.k.k.f.7.v 5.q.e.w q.i.f p 5.i.k.k.5., p l g l d < q 5.0.<.z 1 p 2.p.",
"f.h.h.g.i.r.t.r.7.c 4.f.g.i.q.r.> {.wX_.$.).|.8X%XA.; q.r.c 7.i.d.p.v g l v 3.v r.r.q v 7.p.g.l.l.s.0 8 a g i < s d l 4 , z 0.p.f.",
"l.h.h.d.0.7.q.e.Z g i.h.f.q.q.r.} _.}.wXqX}.).D.W.) L t.i.j d v 7.3.l l l s 0 4.v x 2 l <.5.q.p.d.f.t.8.r 0 h h h i $ X 4 x 5.0.r.",
"d.f.f.s.<.x 4.S 4 l 0.d.r.1.4.q.| J.=.}.6XrXrX%XY.~ 9.q.r.r , d v v l d a 8 h v d d , d d z <.<.7.q.t.q.h 4.f.t.4.h 6 X 4 z A <.2.",
"<.0.e.1.l d 4 $ , d z A z l <.J &.wX1X).[.qXwX+XF.M z <.7.0 , , a d d 2 # & M ~ M : O 0 d l l d z x x c k i.r.q.r.q.S @ , 5 s a l ",
"4 l x g d 4     X 4 l l l g 1.N J.[.{.rXqX_.<XOXZ.m l , o i l q . o   & #.}.rXwXrXqX:.W e j d l d d l s H 7.z g l l p o 8 H k 0 4 ",
"h s s s C Z 7 p g s 4 d l a d : '.1XJ.#.&.).2X!.M.$ , q d d l d d a = :.qXrXrXrXrXrXrX6X-.M q i i 4 4 < s l p p s h 4.d.k.f.p.e.k ",
"2.8.4.t.f.h.8.3 Z <.Z 3 < , , = L.wXrXwXqXrX0XY.m.m l d l l l z l h E 6XrXrXrXrXrXrXrXrX8X).9 4 i 4 4 < , 4 h H 4.i.f.f.s.0.2.<.v ",
"A q.d.g.h.h.a.3 l 1.s.4.c k r = F.0XrXrXrXrX0X!.m.b n z <.<.<.7.x u $.wXrXrXrXrXrXrXrXrXrX7XM z <.<.x i 2 p g <.<.1.<.2.<.v x l f ",
"l z 7.s.d.s.4.< <.d.l.g.t.t.q.b n.%XeXrXrXrX9XZ.+.+.E y.p.g.k.g.q.B ` 0XrXrXrXeX0X%X%X0XrXrX@.L d.d.7.k q 4 q d d d a i i i 5 4 D ",
"a l A 2.8.<.8 5 <.p.f.d.q.7.7.> ) U..X6X<X|.'.` n.Y.E u.k.l.g.f.p.L ) $XwXrXrX9XG.A.Q.+X0XrX-.6.g.f.5.h h k 8 4 4 4 4 < < 0 r H 9.",
", a a x l 5   d z <.4.<.v l m / *.*.*.-.*.m.A.Y.!.~.E y.p.p.p.i.t.6.Q A.B._.wX{.Q ; m.OX5XrX-.P g.i.J 8 v q.5.S v c X 2 s g x c S ",
"2 3 a d s 8 u 4 d d z d l s w ( Y.G.G.G.I.Y.T.Y.A.P.! b w h 5.7.2.Z * S.L.:.H.K.% M ` Q.4XrX-.K f.i.v 7 l <.q.r.r.<.0 k q 0 1 i 0 ",
"0.e.g p r t.g.4.4 d d s p 4 , ; O.I.!.~.~.~.C.' z.c.x.! : q , < 4 < ; A.].<X{.[.N j ( W.4XeXN.K 5.f - O 2 s x <.3.7 r.g.g.d.r.u $ ",
"w.g.4.y k f.k.d.w < 0 h v <.v e E z.U.~.~.~.P.c.c.z.' z.Q B s 6 H 0.M Z.V.H.wX1X~ y ( E.4XeXH.n p % Q Q X 4 q i 7 f q.f.g.f.p.4.w ",
"A 0.d.w.S 4.f.p.f   f 0.i.i.r.0.N v.Y.~.~.~.I._ ! ` P.c._ m p 8 0.s.N S.%X<XqXwX .n ) Q.%XeX[.: w ; |.'.N d h i 8 p 4.i.p.i.r.0.k ",
"a z 5.r.3.c 0.v h c r.r.d.g.f.r._ b.Y.A.` Q E ` F.OXT.c.! m 8 r 1 c ~ Q.5XrXrXrX=.b ` Q.%XoX6X:.Q [.wX<XX.t.r.r.0., d l v <.x a 4 ",
"4 a A 7.4.c 7.x k v t.i.k.k.k.g.L x.P.E.G.I.W.~.T.C.z.` ` ) K V N _ I.%XrXrXrXrX&.m ` !.G.&.7X<X8XeXwX<XX.p.t.i.t.c 4 a d p 4 < w ",
"5 p A e.S f q.7.3.j 7.q.p.k.k.k.6.' b.P.Y.Y.P.C.M.*.-.L.OXI.m.m.D.W.%X0XrXrXeX5Xo.L ) W.M.V.<XJ.8XrXrX}.K t.t.r.r.r.0 4 4 4 2 z S ",
"3 a 2.t.0 c 5.7.8.h q v 1.i.p.p.0.! z.x.x._ _ m.F.6XwXXX'.XXV..X].7XrXeXrXrXrX X^ L > M.^.Q.N.'.rXrX<X-.6.q.4.7.q.r.h q 4 s x 8.q.",
"@ d v A o a l l s 7 + 2 d l x <.<.w = T Q U.~.OX#XrXrXB.'.:.<X|.K.7XrXrXrXrX+XA.N k # ~ I.!.Q.#X5X6X~ m x l g x 4.x < l 5.q.r.f.s.",
"o p r 0 h f f s 3 u 7.h 2 s d d d 1 c 6.M M.Y.OX+X0XrX8XqX:.wXXXJ.6XrXrX4X#XE.! 7 o z G M _ +.+.~ - h d d d d d d < 3 7.t.p.p.f.i.",
"l 2.w.s.2.<.5.4.8 v z 3.8 0 4 l 0 , <.5.H N O.Y.OX+X0XrXqX{.rX7X_.<X4X#X~.G.~ 9 q h d l 6.6.L G m , 4 a d d g d < 3 5.p.k.k.k.s.q.",
"<.s.d.r.x x <.r.u a d c e.3.s , X 7 3.<.z J K +.M.W.#X%X%X2X0X3X.X@X+XU.n._ n z 1.<.4 g 2.r.r.J A J s 1 < s s 7 3 4.r.k.k.k.k.p.S ",
"2.t.t.r.7.7.5.r.v 2 3 q.k.k.p.7.t $ H 4.x 0.0.m K Q ) n.m.A.F.A.M.n.( Q n d z t.d.3.4 l <.<.a 3 S i.d.d.c     6 3.q.r.f.k.k.p.0 , ",
"<.8.0.r.g.g.g.d.4.3 < 5.i.d.p.t.q.f c 7.v 2.0.u 4.v r e n n : = = O w q.7.<.q.h.d.k a l a a 1 , g c <.2.7.5.h + 0 <.0.7.i.d.0.2 4 ",
"l l x <.p.d.d.i.4.w i z 3.q.t.r.1.x 4 7.x v x < l l d d l x f , 2 o a <.4.0.d.f.p.r d d l d , p g l d l x x A 7 0 d x x v A v 0 < ",
"a l l z <.7.r.4.w o 2 a v <.4.v z 8 , v z l p + p d d g d d < 4 d < d z z v 1.2.<.h i d g q 3 d l l a g d g v h 0 d l d l l l p < "
};
