/* XPM */
static char *out[] = {
/* columns rows colors chars-per-pixel */
"64 64 256 2 ",
"   c #2A3E22",
".  c #64171D",
"X  c #631A1E",
"o  c #631A21",
"O  c #6A1C21",
"+  c #533622",
"@  c #6E2D26",
"#  c #1C491C",
"$  c #244C1D",
"%  c #28481D",
"&  c #26541B",
"*  c #2B521D",
"=  c #2C5C1D",
"-  c #37591B",
";  c #335C1C",
":  c #34621D",
">  c #3A621C",
",  c #3C6B1C",
"<  c #3D751E",
"1  c #1D4422",
"2  c #1E4A21",
"3  c #224523",
"4  c #244B24",
"5  c #2A4E25",
"6  c #264B29",
"7  c #284B29",
"8  c #255224",
"9  c #255726",
"0  c #2B5324",
"q  c #2B5A23",
"w  c #2B532A",
"e  c #2C592A",
"r  c #335127",
"t  c #345626",
"y  c #335C25",
"u  c #325C2B",
"i  c #2B6526",
"p  c #356323",
"a  c #3B6424",
"s  c #3C6B23",
"d  c #34632C",
"f  c #3B652C",
"g  c #336B28",
"h  c #3B6B2C",
"j  c #3B7325",
"k  c #3C742B",
"l  c #396932",
"z  c #3E7634",
"x  c #6C5C1D",
"c  c #4D721C",
"v  c #46791D",
"b  c #4A5227",
"n  c #6F4F23",
"m  c #446A26",
"M  c #4F682F",
"N  c #437324",
"B  c #457A23",
"V  c #4B7D23",
"C  c #43742B",
"Z  c #49792A",
"A  c #547A27",
"S  c #467934",
"D  c #567B34",
"F  c #64672C",
"G  c #68752D",
"H  c #6C7A32",
"J  c #737731",
"K  c #3F7541",
"L  c #415F43",
"P  c #7C4744",
"I  c #9B1C1F",
"U  c #AA1E1E",
"Y  c #9B221E",
"T  c #AB1E21",
"R  c #862629",
"E  c #91302F",
"W  c #B72425",
"Q  c #AE322F",
"!  c #C82A2A",
"~  c #D32D2D",
"^  c #DB2D2E",
"/  c #CA362D",
"(  c #D5322E",
")  c #C52F30",
"_  c #DB2E31",
"`  c #CA3232",
"'  c #D63633",
"]  c #DC3232",
"[  c #E12E31",
"{  c #E33434",
"}  c #EB3635",
"|  c #EC3936",
" . c #E83938",
".. c #F33A36",
"X. c #F73B36",
"o. c #F33B39",
"O. c #FE3C3B",
"+. c #934A29",
"@. c #AD502D",
"#. c #8E6D31",
"$. c #AD7030",
"%. c #CF4635",
"&. c #E94738",
"*. c #F64438",
"=. c #FD433B",
"-. c #FC4B3C",
";. c #E9543C",
":. c #F5563C",
">. c #FD543C",
",. c #FC5B3E",
"<. c #CC763E",
"1. c #FB653E",
"2. c #FA703F",
"3. c #B53D43",
"4. c #915147",
"5. c #B74C4A",
"6. c #9F6D56",
"7. c #CF534B",
"8. c #C34A51",
"9. c #FA4A42",
"0. c #EA5347",
"q. c #FE5442",
"w. c #FD5C43",
"e. c #F45848",
"r. c #FF5A49",
"t. c #D26751",
"y. c #FD6245",
"u. c #FB6748",
"i. c #FB7446",
"p. c #EB6A50",
"a. c #F97958",
"s. c #EA7361",
"d. c #3F852C",
"f. c #47841A",
"g. c #56881C",
"h. c #48931C",
"j. c #5C951D",
"k. c #579B1C",
"l. c #64961D",
"z. c #649B1E",
"x. c #59A21C",
"c. c #66A51E",
"v. c #4B8224",
"b. c #478528",
"n. c #4B822C",
"m. c #548C23",
"M. c #5B8D24",
"N. c #578629",
"B. c #569223",
"V. c #5B9725",
"C. c #4C8537",
"Z. c #568836",
"A. c #4F9733",
"S. c #5A9438",
"D. c #668B27",
"F. c #639523",
"G. c #639B23",
"H. c #699929",
"J. c #759427",
"K. c #698A35",
"L. c #778737",
"P. c #689937",
"I. c #779837",
"U. c #5EA225",
"Y. c #6BA425",
"T. c #6DA32C",
"R. c #73A32B",
"E. c #76A628",
"W. c #7AA52B",
"Q. c #7CAA2B",
"!. c #76B427",
"~. c #6AA537",
"^. c #77A736",
"/. c #7DB337",
"(. c #5A8D42",
"). c #649743",
"_. c #749C43",
"`. c #7BA844",
"'. c #7DB045",
"]. c #8A913C",
"[. c #B0843A",
"{. c #83AC27",
"}. c #84B32C",
"|. c #8BB62E",
" X c #8CBA2D",
".X c #93BB2D",
"XX c #84AA35",
"oX c #96A73C",
"OX c #88B536",
"+X c #8CBA33",
"@X c #8BB43A",
"#X c #93BB33",
"$X c #97BC3A",
"%X c #C7873D",
"&X c #94C732",
"*X c #97C537",
"=X c #9DCB34",
"-X c #A8CF2C",
";X c #A3CC3B",
":X c #A9D539",
">X c #B1D938",
",X c #849C41",
"<X c #8AA944",
"1X c #87B546",
"2X c #8AB444",
"3X c #93B24D",
"4X c #97B948",
"5X c #AAB74C",
"6X c #AC8F69",
"7X c #CF8A4E",
"8X c #F58E4D",
"9X c #FD875A",
"0X c #FA985A",
"qX c #C5B545",
"wX c #FAA75C",
"eX c #CE8770",
"rX c #EA866C",
"tX c #F78864",
"yX c #FA9764",
"uX c #FAA667",
"iX c #8AC347",
"pX c #99C348",
"aX c #9BC454",
"sX c #A7C946",
"dX c #A8D245",
"fX c #ADD345",
"gX c #B5DC45",
"hX c #B2D54B",
"jX c #B5D94A",
"kX c #A6C856",
"lX c #B2CC58",
"zX c #ABD25A",
"xX c #B5D652",
"cX c #B5D758",
"vX c #BAE14E",
"bX c #BBE153",
"nX c #AFCD61",
"mX c #B6D561",
"MX c #BFE265",
"NX c #C6E75A",
"BX c #C5E668",
"VX c #F1AF8C",
"CX c #E5AC95",
"ZX c #F7BB98",
"AX c #FCC399",
"SX c #F3CFAF",
"DX c #FACAA8",
"FX c #FCD7B5",
"GX c #FFE1BD",
"HX c #F6DEC1",
"JX c #FEE7C9",
"KX c #FEEDD3",
"LX c #FFF2D6",
"PX c #FEF5D9",
"IX c #FEF9EA",
"UX c #FCF8F7",
/* pixels */
"8 2 9 (.T.P.n.k p p q 4 = q q q e d d l e w C Z @XsXhXxXxXxX$X#XA q z aXzXzXaXZ.g g i 9 & & g x.< < G.E.W.W.W.R.i w j ~.A.d.d.g ",
"& L S 8 j n.n.n.s p p $ 8 q & 9 9 e d e 6 e m D oXhXxXhXxXxX$X#XY.9 1XkXzXzXzX3Xg k i q 9 2 # h.= k.Y.W.@XpXW.R.g 4 4 k d.g e 9 ",
"l aXM 0 p n.n.n.s s v.= 2 q q e 9 u z g 6 w m Z @XxXxXxXxXxX$X#XQ.q ~.l.'.nXzXiXC k k & # q v.x.v G.{.4XkXdXW.m.i 1 4 8 9 d g k ",
"nXkX@XK.p z n.Z a B N B y 0 q e z ).~.~.S w 6 w J.fXhXxXxXxXsX$XOX: G.G.'.zXiX'.Z n.C.K.Z.C !.&Xn.f.T.}.OXW.v.= i g k g g i 9 9 ",
"mXmXmX4XJ.t s s N j j j h w w w P.~.`.'.P.w 6 3 r XX$X;XsXsX*X#X}.j V.T.zXaXiXaX5XnX5X5XXXa x.b.# 3 9 p s = d g i 4 9 6 8 9 6 2 ",
"mXmXmXnXW.N.* p N j Z C g w w w n.Z.A.~.~.5 6 4 6 Z OX$X#X#X#X XN.B G.4XzXaXnXnXlX3X,X,XK.v x.= 2 3 2 2 i l 8 1 1 1 1 9 i i i e ",
"mXmXnXmXXXR.4 m N.3XkXzX_.w w w f S n.S.S 4 6 6 4 4 y H.|.OXW.M.i v 1XkXnXkXkXlX3X].L.I.D # f.# 2 j b.b.b.# # # 1 3 1 e i i i i ",
"nXmXmXzXW.W.q a aXzXnXzXnXD w 6 w w u g 3 4 6 6 5 S A V V N e 0 g.B.3XkX4X5X5X,XG L.L.I.G.< < = B.x.V.x.x.V.K.P.D 3 1 6 i i i i ",
"nXmXlXpXW.^.* Z P.Q.nXzXzX_.d h n.S.S.z $ 3 7 t 3XlXhXsXsX$XXXg v.B.oX4X3X5XL.G J K.L.D.U.V.k.x.x.x.x.U.*XxXbXbXvX^.6 3 w e i i ",
"zXzXzXXXE.R.q N.H.XXzXkX4X`.j B B k A.).l 1 7 K.hXsXsXsXsXsXsX@XN.iX].<X<XL.G G H L.L.D.h.x.:X:X&XA.x.&XdXhXMXMXBXmXm m Z u 9 q ",
"@X4XXXQ.E.g.: F.H.aXaX).).(.Z B B k k ).P.9 4 _.hXsXsXsXsX;X$XpXaX^.L.XXJ F F G G H H V.h.!.>X:X:Xv B dXdX;XdXMXMXMX^.Z S A P.aX",
"H.W.W.E.E.m V H.aXaXP.).).C.k n.Z b.S.4XkXzX2XP.lXsX;X@XE.H.Y.T.B A H F b F F G G G N.k.h.!.-X=X:Xa p dX=XdX;XdXcXMX^.C I.sXfXjX",
"Z.Z.V D.M.* N.2XaX`.).).Z.j h j K.aXkXkXkXkXkXkX4X@XE.H.T.T.H.V 8 M F H J L.J H G m g k.f.x.!.&X=Xa - ;X;X:XdX=X;XdXN.D dXhXxXjX",
"kXsX<X* : ; F.^.^.C.n.S C d C 1XzXzXkXkXkXaXkX5XkX<XE.Y.H.N.y 4 8 F J K.H G A A M.B.g.v < x.x.x.x.* 1 *X*XdX=XdXdXQ.a *XhXjXbXxX",
"kXsXsX1X% g.: N m.Z S h = N.3XkX5XaXkX4X3X3X3X<X<X<XK.m e 4 f x F K.Z.= g # v.z.z.V.G.B.: x.x.x.B.1 1 A ;XdX;X;X^.* A sXsXhXhXjX",
"hXsX4XXXN V Z 1 3 D <X3XaX4X3X3X3X,XL.L.H J L.J ,XL.H M 1 q K.@.#.P.j 3 9 < M.j.j.l.V.U.f.h.x.k.& 1 1 1 C *XH.a $ $ H.}.|.|.|.;X",
"4XQ.E.W.^.2XM.1 (.`.aXaX3X,X,X,X,X,XL.L.L.L.H F F F F b r f K.+.#.F.> % & v D.J.D.J.F.g.& B.k.f.= & $ $ $ !.= : B M.W.}.}.OXOXpX",
"$XE.R.K.C q V h ).).`.nXaX_.D I.,X,X]._._.J _.J G A V b + 5 A +.J g.D.#.@.&.:.,.>.:.0.<.[.c y v x.B.Y.Y.~.!.!.!.B.= p Z.S.N.- $ ",
"C m u w 9 z A.C.(.).`.aXL 6 w t D I._._.L.L.#.F A A < #   b F E #.@.;.:.,.y.u.u.q.q.q.r.w.e.5.m g.% v.# = n.b.A.V.= N Z.Z.S $ 3 ",
"7 w w w z (.S.Z.C.S A N 3 w e e w u b #.7X8Xe.&.%.( / Q @ + n Q ;.,.u.i.a.9Xa.a.i.w.q.r.r.w.r.e.#.3 f.B A.A.b.b.n.$X;X=XfXfX@X5 ",
"e e d d (.A.(.d.(.z w 7 3 5 w t e F <.wXAXi.2.2.:.1.;.&.( Q %.w.1.i.u.u.y.e.:.q.q.q.-.-.r.r.r.r.q.+.c.!.!.!.Y.d.K.;XfXfXfXfXgX<X",
"u e d d (.(.z z S C.d u w 6 w u #.8X8Xi.;.t.p.;.y.1.y.y.:.:.y.y.1.,.:.%.%.t.t.%.:.q.r.q.q.r.r.q.r.=.$.}.!.!.!.!.D.+XfXjXjXfXjXhX",
"d u e d (.(.z z h S l u w 6 7 [.uXAX8Xt.AXGXFXZXt.1.u.y.y.y.y.w.,.&.%.VXJXJXJXAX7.0.q.9.y.r.r.r.r.O.O.5X!.!.!.!.Y.G.Q.dXjXjXjXdX",
"e e d d i g h z l u u w 3 6 <.8XAX0Xs.LXIXIXPXLXDX0.y.y.y.y.y.y.:.%.SXIXIXPXLXPXSX%.>.q.q.q.q.r.r.9.O.*.iXY.c.c.x.Y.G.sXfXfXfXP.",
"e t N.D.N.y t w 5 0 u 6 # J 7XJ.8Xp.SXIXUXPXPXPXKXs.e.u.y.y.w.w.%.VXIXIXPXPXPXPXPXCX&.-.>.q.q.r.r.9.O.O.<.iXc.c.c.g.C.XXiXiXS.i ",
"f $X:X:X:X*XZ 3 3 7 u 6 b wX%X%X2.tXJXIXKXIXPXPXIXCX;.u.y.y.w.:.t.LXUXPXKXHXPXPXPXFX7.-.>.9.>.r.q.O.9.O.&.XX!.c.c.b.C.(.Z.C.C.i ",
"XX;XfXxXjXjX;XA 4 6 w 7 [.8X8X2.i.VXLXJX6XP UXKXLXCX;.y.y.w.,.;.VXPXPXHXP 6.LXLXKXJXs.r.-.r.>.q.q.9.O.O.X.+.a , 9 d C.C.(.C.z l ",
";X-XxXbXxXxX;X.Xq 6 6 b 8X0X8X2.i.uXJXSX+ o 6.JXKXCX:.w.w.,.,.*.ZXKXSXP + CXJXKXKXHXrXu.q.9.q.9.9.9.O.=.=.Q 3 4 3 0 C.C.C.C.i k ",
".X.XjXxXbXxXhX.Xt 4 9 #.0XwX8X2.2.9XAXZX5.@ eXJXGXrX,.w.,.,.,.>.DXJX4.@ CXZXDXHXJXFXa.9.-.9.-.9.O.O.O.O.O.{ b m f 1 d z l d v.H.",
"$X.X$XhXcXbXhX.XA d i 7XwXwXi.2.2.:.1.u.i.p.i.VXDXp.w.,.q.,.,.>.VXDXs.;.0.0.e.0.a.VXr.9.-.9.=.9.O.O.O.O.O...J @XOXD e p e N.+X&X",
".X.X#X$XsXhXsX.XS.l k 8XwXwXi.2.1.,.1.:.1.1.:.,.a.>.,.>.,.,.>.,.r.:.>.>.q.q.9. .%.*.=.-.-.=.9.O.O.O.O.O.O.X.$.@X@X@XZ a N Q.*X*X",
"^.|..X.X.X#X.X|.N.z D 0XwX0Xi.2.1.,.,.y.:.,.,.,.,.,.>.,.>.>.>.>.>.>.q.w.0.7.t.eXR &.=.=.=.9.9.9.O.O.O.O.O...$.@X@X@XH.a c Q.*X+X",
"S.}.|.OX|.|.|.|.Z k J 0XwX0X2.1.1.,.:.%.%.7.p.i.u.e.y.e.u.p.w.e.0.0.t.eXCXFXDXFX5. .-.=.=.=.=.=.O.O.O.O.X.X.@.+XOXOXI.> g.}.&X.X",
"S R.XX}.}.{.|.Q.j C ].0X0X8Xi.1.1.1.,.Q 6XZXt.t.t.t.t.t.t.t.s.CXSXGXJXLXPXPXFXFX6.&.=.=.=.=.=.X.O.O.O.O.X...@.{.OX@XW.m A .X&X#X",
"e ; XXXXXX}.|..X*X*XqX0XyX0Xu.1.,.,.:.%.4.PXSXJXLXPXPXLXLXFXLXLXLXLXLXLXLXJXDXDX5.&.9.-.=.=.X.=.O.O.O.O.=...@.g.OX|.W.> g.J.+X+X",
", # : V.N.J.*X;X=X;XqXuXuX0X2.1.,.,.:.' . 6.AXFXLXLXKXLXLXFXKXKXKXKXKXKXJXJXZXeXR *.-.=.X.=.=.X.O.O.X.O.*.} +.c A J.A 5 c M.F.D.",
"E.& : = t W.{.#X=X;XqX0XuX0Xu.,.,.,.>.&.@ . O E 6XSXJXJXJXDXJXJXHXFXFXDXAXeX@ o R *.=.9.=.O.X.O.X.X.O.X.O.[ n > r % - -   - - % ",
"=X< v = A W..X*X;X*X5XuXyX0Xi.,.,.,.,.:.E X . . o o @ E 4.4.4.4.E @ . . X X o o T =.X.9.X.X.X.9.O.O.O.X.X.[ x m % - - * D. X&XJ.",
"&XR.c.Y.R.W.|.=X;X;X;XyX0X0X9X,.>.>.>.>.Q X X o o o o o o o o O o o X O X X X o / =.X.*.X.X.X.o.X.X.X.X.../ m m - c c H. X&X X&X",
"F., g.% m D.R.W.{.{.*XwXyX0X9X,.>.>.>.>.&.o o o o o o o o o o o o o o o o X X R | X.X.X.X.X.o.o.....X.} } %.c m - % - g.E. X X X",
"$ & , 4 4 8 y C Z Z ; 7XuXyXtXu.:.>.>.*.*.Y X X o o o . o . O o o o o o o o o ) o.o.o.o.......o...} ....[ [.c - %     5 c g.E.|.",
"4 & < i s p 0 0 0 0 3 #.yXyX9X9X:.>.>.-.>.( O X o o o o O O O R Q 3.E o o o Q } } o.........} o.o...} { %.oX> % 3 3 3 3 3 m c W.",
"4 & m.T.Y.k.v.e w 0 4 b yXuXtXtX,.>.:.-.-.*.Q X o o o E 8.8.3.3.8.8.8.E . I  .o.o.o.} } } } } 0. . .} _ $.c # - - : ; 3 1 3 * - ",
"4 0 V.^.^.~.V.v w w 4 0 t.yXyXtX2.*.*.-.*.>.*.W o o R 7.7.8.8.8.8.8.8.E E  .o.o.9.o.} } {  . . .{ { { _ G K.K.A - - > 0 1 3 3 $ ",
"3 q V.^.^./.~.h.8 y v g.].yXtXtXu.:.*.-.*.*.*.*.! O Q 8.8.7.8.t.8.3.Q ) } o.o.}  .{  . .{ { ]  . .{ ] @.2X1X@X1Xc : y * 1 1 A $X",
"4 q m.~.'.~.T.b., j.z.V.J.tXtXtXu.e.e.*.*.*.*.*.X...' 3.3.3.8.3.3.) } ....} } }  .{ { { _ ] ] ] ] ' Q 1X2X1X1X1XH.> t 3   K.jXNX",
"h v.v.B.~.~.B.: V. X&X}.F.[.a.tXa.e.e.:.*.*.*.X.o.o.} o.X.9.e.9.} ..} } } } } } { { { ] ! ! _ ] _ ~ #.iX2X3X2X`.D.V 4 1 c gXBXBX",
"v.n.v.j : i 3 & c.&X&X&Xc.~.7Xs.tXa.e.:.*.*.*.X.o.o.} O.r.s.9...} } } ..} } { { { _ _ _ ~ ~ ' ' ~ n C Z.V.S.M.H.N.f.> # oXgXvXvX",
"B b.b.Z q 1 3 3 v.Y.!.Q.z.V.D.p.9XtXu.e.9.&.| } ............} } } } }  .} ] { ] ] ] ^ ( ( ~ ~ ! @.M u C G.H.OX*XV.B , $ gXgXgXgX",
"p n.n.n.h s m 4 * v.j.k.j.j.f.G t.9Xs.e.9. .} { } [ { } } | } } } } { ] _ ] ^ ^ ' ~ ~ ` ` ` ! @.XXZ l n.z.V.V.*X/.B m m gX>XjXjX",
"8 f v.v.R.+X|.^.5 w C.Z.f.& = j.J ;.a.a.0.{ { { { [ ^ [ [ [ [ [ [ _ _ _ _ ~ ~ ~ ~ ' / ~ ! ! @.#X*XpXS Z V.C.n.n.m.v , % gXgXgXgX",
"e 4 0 N.OX|.|..XH.S Z.(.p # v j.l.A 7.p.s.0.{ [ [ ^ ^ ^ ^ ^ ~ ~ ^ ~ ~ ~ ~ ! ~ ! ! ) / W ! +.E.}.*X*XP.f Z Z C.b.V v : 1 W.gXjXgX",
"d 1 4 /. X|.|.+X|.D.e e = 1 g.k.j.B.S.#.0.s.0.] ^ _ ^ ^ ~ ! ! ! ! ! ! ! ! ! W W W W W Q x G.G.H.R.pX^.u l S Z B < c   * % m J.I.",
"l 2 q *X*X.X|. X|.|.y 3 , # Y.j.Y.T.S.n.M @.' 0.0. .~ ! U U I I I I T T U U U U T T +.D.N g.F.R./.&XM.u f C Z N , - r % * A H.<X",
"K 2 s =X;X.X.X|.|.|.H.- v V F.!.}.Q.S.P.).K.G @.! ~ W I U I + b t @ I I U U U T #.].l.l.V a P.XX'.Z.m c C m 7 r r b - A V I.I.2X",
"l P.*X=X;X.X|.|.|.|.D.j.F.* $ F.!.~.~.P.P.P.P.D b + @ n b b 5 5 5 q g.x n x #.{.|.{.l.l.F.; $ t & C A M - m b f 4 3 * c A K.I.XX",
"Y.=X=X=X=X.X.X|. XQ.$ l.$ 1 1 1 Z.P.P.~.~.P.`.P.A g p y C , q 7 5 y B.M.v v m.Q.@X@Xl.l.l.c $ N *X=X:XvX:XY.B < : 4 4 s A D.I.I.",
"=X=X=X=X&X|.|. X}.a , f.= * 1 1 P.^.XX'.'.1X1X1XZ.6 t S.H.j.v.w w 0 m.B.m.B f.R.@X@XE.l.j.c m dXcXvXvXvXgX>XQ.v f.q 3 0 c V H.I.",
"&X=X=X.X{.{.|.H.w 0 D.g.M.V.v $ K.^.1X'.1X1X1X'.Z.5 M.T.T.V.g.i 5 w N M.B.B.m.j.XX@XE.z.g.# OXbXbXbXvXbXvX>X>XY.v.B 2 4 r A g.D.",
" X XQ.E.W.W.H.6 4 M., g.OX@X^.v V P.`.<X^.'.^.P.m m T.T.T.F.g.d 5 7 4 N B.B.m.s v H.l.g.= c |.dXbXbXbXvXgX>X>X:X*XP.4 4 y y a N ",
"j.E.E.E.E.Q.M.4 m.; = g./.@X2XT.; K.~.P.P.I.P.M u N.~.T.^.T.g.y 4 w r 5 w w 4 4 % * m v c {.{.{..X-X>X>X>X-X>X:XQ.m.5 l l f t u ",
"g.V A D.F.m m F.; $ & v.V.^.2XOX- w S Z.Z.S u u u Z.T.T.^.1Xg.i N F.l.l.N.; 4 7 4 m > * % {.{.{.-X-X-X>X>X-X>X&XN j f f m l 0 5 ",
"& $ 0 = $ : , V g.f.0 0 f.M.^.R.e 3 6 3 3 7 w u u S ~.~.^.'.N.g.H.z.l.l.l.l.N 5 N v c y * g.{.{.{..X.X.X X{.=XF.N : l l l l q S ",
"s N.h.g.g.= $ m.h.G.m.4 q h B p 1 3 3 6 4 w w w 5 r N.P.H.n.N.{.#Xz.l.l.l.l.g.v > l.l.F.g.g.l.E.{.{.{.{.{.Q.F.a p d l l l l D (."
};
