/* XPM */
static char *out[] = {
/* columns rows colors chars-per-pixel */
"64 64 256 2 ",
"   c #1F3F22",
".  c #6B0308",
"X  c #780106",
"o  c #72010C",
"O  c #790515",
"+  c #731910",
"@  c #5A2C1D",
"#  c #723218",
"$  c #1D491C",
"%  c #2D570D",
"&  c #27491C",
"*  c #244C1D",
"=  c #2B531E",
"-  c #29581C",
";  c #345B1C",
":  c #36631C",
">  c #3C6B1C",
",  c #3B701D",
"<  c #1D4422",
"1  c #1E4B23",
"2  c #224423",
"3  c #244B24",
"4  c #2A4D25",
"5  c #274C29",
"6  c #384925",
"7  c #255224",
"8  c #2B5324",
"9  c #2B5A24",
"0  c #2B532A",
"q  c #2A5928",
"w  c #335727",
"e  c #335C24",
"r  c #325C2B",
"t  c #305F31",
"y  c #2B6526",
"u  c #356324",
"i  c #3B6424",
"p  c #3C6B23",
"a  c #34632C",
"s  c #38692A",
"d  c #3C7327",
"f  c #3A6932",
"g  c #3E7937",
"h  c #534E16",
"j  c #68521A",
"k  c #456B19",
"l  c #536612",
"z  c #457C1C",
"x  c #48781A",
"c  c #537B1C",
"v  c #525129",
"b  c #775228",
"n  c #446A26",
"m  c #427323",
"M  c #487928",
"N  c #547B27",
"B  c #467735",
"V  c #4F7332",
"C  c #6E712D",
"Z  c #3F7541",
"A  c #566B42",
"S  c #840004",
"D  c #8C0103",
"F  c #85050B",
"G  c #8C020B",
"H  c #940102",
"J  c #9D0104",
"K  c #94020B",
"L  c #9B060A",
"P  c #82091B",
"I  c #990916",
"U  c #8C1714",
"Y  c #971516",
"T  c #A30102",
"R  c #AC0203",
"E  c #A8030B",
"W  c #B40103",
"Q  c #BC0202",
"!  c #B70409",
"~  c #A50B17",
"^  c #B80A13",
"/  c #A81516",
"(  c #B8141C",
")  c #8F3115",
"_  c #AE2B1D",
"`  c #8D1323",
"'  c #9A1826",
"]  c #A61827",
"[  c #B91823",
"{  c #A91E33",
"}  c #932D29",
"|  c #853C24",
" . c #A92A27",
".. c #B72626",
"X. c #AF3232",
"o. c #C20605",
"O. c #C30D15",
"+. c #C71519",
"@. c #D11510",
"#. c #E41C19",
"$. c #D52917",
"%. c #E9251C",
"&. c #C81A22",
"*. c #D41D24",
"=. c #C92627",
"-. c #D82526",
";. c #D13331",
":. c #EB2F2D",
">. c #E43626",
",. c #E93738",
"<. c #904D2E",
"1. c #9B5F29",
"2. c #B04C31",
"3. c #CB5A39",
"4. c #EE4D35",
"5. c #F64638",
"6. c #B33942",
"7. c #EF3D41",
"8. c #AB5349",
"9. c #9E7152",
"0. c #B8724E",
"q. c #D8514B",
"w. c #F64A47",
"e. c #ED524D",
"r. c #F95648",
"t. c #F66650",
"y. c #FB6857",
"u. c #D27663",
"i. c #F87366",
"p. c #3F852C",
"a. c #4F8D12",
"s. c #4C841A",
"d. c #57871A",
"f. c #548B1C",
"g. c #5C941D",
"h. c #59991A",
"j. c #63951D",
"k. c #6F911C",
"l. c #669B1B",
"z. c #59A21D",
"x. c #67A51C",
"c. c #75AB1A",
"v. c #7CB518",
"b. c #4C8224",
"n. c #4A832A",
"m. c #538C23",
"M. c #5C8D24",
"N. c #578628",
"B. c #5A9424",
"V. c #4C8537",
"C. c #558938",
"Z. c #4F9733",
"A. c #599539",
"S. c #648B27",
"D. c #639423",
"F. c #689928",
"G. c #71952C",
"H. c #689A37",
"J. c #769A34",
"K. c #5DA326",
"L. c #6BA428",
"P. c #76A727",
"I. c #74A32B",
"U. c #7AA52B",
"Y. c #7CAB2B",
"T. c #6FB129",
"R. c #77B426",
"E. c #6BA537",
"W. c #77A736",
"Q. c #7DB437",
"!. c #598C42",
"~. c #699746",
"^. c #72A943",
"/. c #7AA843",
"(. c #7DA163",
"). c #8EA01F",
"_. c #8DB21C",
"`. c #929332",
"'. c #AD9134",
"]. c #84AC28",
"[. c #9EA62B",
"{. c #85B72B",
"}. c #8CB62E",
"|. c #8BB92D",
" X c #95BA2A",
".X c #83AB34",
"XX c #8AB637",
"oX c #95BB36",
"OX c #A9B52A",
"+X c #CDBB2F",
"@X c #95C71D",
"#X c #96C729",
"$X c #90C733",
"%X c #98C735",
"&X c #A6CA27",
"*X c #A8D32C",
"=X c #B5D72C",
"-X c #A3CC3B",
";X c #A9D439",
":X c #B1DA36",
">X c #87B544",
",X c #92B546",
"<X c #A29962",
"1X c #C99154",
"2X c #EE9D54",
"3X c #DAA455",
"4X c #D38E6D",
"5X c #F38F74",
"6X c #FD8A75",
"7X c #D1B476",
"8X c #EBB472",
"9X c #95C64D",
"0X c #99C548",
"qX c #A7C947",
"wX c #ABD345",
"eX c #B4D949",
"rX c #A8CC56",
"tX c #ADD15B",
"yX c #B5D551",
"uX c #B5D659",
"iX c #BAE14E",
"pX c #BBE153",
"aX c #B1C368",
"sX c #B6D561",
"dX c #BFE265",
"fX c #DCCD72",
"gX c #C5E669",
"hX c #BFB180",
"jX c #F79986",
"kX c #D3AA8B",
"lX c #E9A885",
"zX c #F5AC8D",
"xX c #FCB697",
"cX c #FFB5A3",
"vX c #F4CA8A",
"bX c #FCD599",
"nX c #FEE495",
"mX c #FCC7A8",
"MX c #FDD7A5",
"NX c #FDDDAC",
"BX c #FFC9B3",
"VX c #FDD8B5",
"CX c #FEE5A6",
"ZX c #FEE6B8",
"AX c #FEE4BC",
"SX c #FFD9C2",
"DX c #FEE7C4",
"FX c #FFEBC4",
"GX c #FFEECC",
"HX c #FFF1CE",
"JX c #FEEFD1",
"KX c #FEF3D4",
"LX c #FEF6DA",
"PX c #FFF8DC",
"IX c #FEFBE4",
"UX c #FFFDEB",
/* pixels */
"7 1 0 !.E.H.n.m u u - 7 9 - 9 9 q t f a t 0 n M XXqXyXyXyXyXoXoXM 9 n 9XtXtXrXV u y y 9 - 7 y z., z D.I.P.U.U.I.y q s E.Z.p.p.s ",
"7 f B 7 p n.n.n.p u u * 7 9 9 7 q 0 a q 0 0 M V oXyXyXyXyXyXoXoXL.- .X].].].I.I.M d.b., 9 $ $ a.- z.I.Y.XX0X).G.y 7 8 d p.d y 7 ",
"g <XV 4 u n.n.n.p p b.- 3 9 9 q q t g f 5 0 i M .XyXyXyXyXyX%XoX].k.)._. X[.).D.l.l.L.g.f.x s.z.z g.Y.0XrXrXW.m.y 1 3 7 q y y g ",
"tXrX,XS.i M B M p m M M 9 8 q q d E.E.E.B 0 5 w G.qXyXyXyXyXqXoX}._. X&XOX[.).k.P.{.P.z.h.x s.F.b.d.L..X{.L.N 9 y s d y y y q 7 ",
"sXsXuX,XJ.e p p m m d p d 0 0 0 H.^.E.^.H.0 5 2 6 XXoXqXqXqX&XOX_._.=X=X[.)._.@X*X$XR.z.h.h.d.s.k - 7 u p - u d y 3 7 3 7 0 5 1 ",
"sXsXsXaX.XN.8 u m m M M s 0 0 0 n.C.A.E.H.4 5 2 2 V oX}.oX|. X_._.*X=X@X[.+X=X&X$X$X{.R.T.c.c.F.d.x > ; - s 8 2 < 2 < q y y y y ",
"uXsXsXsX.XI.& m n.,XtXrX~.q 0 0 f M n.A.B 7 4 & 3 2 n G.].).).).&X*X*X@X&X=X&X@X@X$Xv.x.h.x.T.Y.P.G.S.m.b.* 1 2 < 2 < q y y y t ",
"sXtXtXtXU.I.8 i rXsXtXtXtXA 0 0 0 0 r i 3 3 6 j h V V M M k.k.).=X#X@X_.=X@Xv.c.x.a.a.h.z.$X%X%X].F.D.h.z.z.C.H.N 2 1 1 y y y y ",
"tXsXsX0XU.E.= M H.W.tXrXtX/.a s n.A.A.f 1 3 h <.# '.yXoXc k.k.@X@Xc.x.R.].a.a.a.h.x.v.@X{.$X9XQ.F.f.B.K.$XtXpXdXuX.X2 2 0 q y y ",
"tXtXrX.XP.I.= M.D.W.tXrX,X^.m m d d A.E.f 1 j ) b qXqXqXj.j.v.v.x.s.s.j.a.a.l.c.v.@X#XR.P.L.K.B.s.f.z.$XwXwXdXdXgXsXM n M r 0 q ",
".X,XXXU.P.M.: F.F.rX,X~.~.!.B M M d d E.H.7 C | `.qXqX-Xk.d.l.a.a.x d.k.#X#X=X=X#X@X{.T.g.f.h.L.$Xx s.wXwX-XwXpXdXdXW.V V N.J.9X",
"G..XP.I.P.n M F.0XrX~.~.~.C.d M M M g A.~.f <.| ,XrX-XXXM.: x a.a.g. X=X*X*X*X&X@X{. XP.f.h.Q.;X;Xn p 0X-XwX-XwXuXdXW.d G.qXwXyX",
"C.V N M.M.8 N.,XrX^.~.!.V.d d d d B d A.Z.!.1.# `.>XI.I.j.% > x l.#Xx.l.h.x.c.P.c.c > h.z z.K.$X%Xi e -X0X;X-X-X-XwXN.N.qXyXeXyX",
"rXqX.Xe ; : M.W.W.C.B V d s f d g Z B ^.(.<X<.0.jXe...2.C l l a.OX&X&Xv.c.a.c k x B.m.s.z z.z.z.x.* 3 XX-X-X;X-X-XW.n ,XeXyXeXpX",
"rXqXrX,X= s.u m N.M B r e n <X<Xu.u.i.6Xi.e.) ;.:._ +.2.Y # l d.c._._.v.j.x l k j.D.K.B.- z.z.z.f.< * N 0XwXwX-XW.= N.-XwXeXeXyX",
"wXqX,X.Xk M N 2 3 V >X9XaXkXy.7.,.-.e.i.cXy.) q.,._ _ ^ E S l k x a.a.a.x x a.a.g.D.h.B.s.z.z.z.- < < < m $XF.i & & F.Y.}.XXXX%X",
",X.XI.I.W.,XM.< !.^.aXhXe.7.7.7.7.7.y.e.i.;.) ;.2.) =.+.^ E . l l x a.x , z f.B.j.B.B.m.- h.z.z - - * * * T.- > b.m.P.{.XX}.XX0X",
"oXP.I.H.M 4 M s !.(.7X7.7.7.w.w.7.-.&.&.^ [ + ) + ..+.( E / I G . S _ 2.<.x j.I.F.D.B.B.B.p 9 z z.B.T.L.L.R.R.T.B.; u N.A.N.w & ",
"V n r 0 0 g Z.V.!.kXe.,.,.7.&.^ ^ ^ &.{ G ) @ .  .[ &.*.*.+.+.^ T E ( ] 8.j D.>XXXg.> 8 7 0 5 - f.& z * y n.p.Z.h.9 m C.A.B &   ",
"5 0 0 0 g A.A.C.<XcXe.,.;.*.O.^ ^ [ q.&.^ / U Y [ ( &.%.:.*.+.O.! E ~ ] X.8.M.Q.XXd.n 8 5 0 * x > 2 s.m Z.Z.n.p.n.oX0X-XwXwXXX& ",
"q r a y C.!.!.!.lXi.y.,.+.@.+.O.O.^ ^ &.O.O.&.*.-.:.,.,.%.+.O.! R H H L ] 8.b B.D.M.> 5 0 , B.K.s.= z.R.R.R.T.p.H.oXqXeXwXwXwX,X",
"r r r f !.Z.Z <Xq.y.e.w.-.:.:.,.7.7.7.7.r.e.,.w.5.y.r.5.%.#.o.W ! / H H ~ { 8.C M.d.6 0 d z.h.x.x., T.Q.R.R.R.v.S.XXeXeXeXeXwXeX",
"r a y t V.!.(.8.;.4.5.5.r.y.jXxXi.i.6XjXcXi.i.6Xr.t.5.%.#.$.@.W / | L D K ] 6.b k w 2 e h.L.z.9Xh.x T.9XR.T.T.T.L.F.Y.wXeXwXeXqX",
"8 q t a a f 9.=.=.*.*.5.i.jXVXVXcXBXSXSXSXzXe.e.5.:.5.%.@.O.^ E J . ) H I ] { <.k = = m.z.K.$X9Xg.u L.9X9XT.x.x.x.l.l.qXwXeXeXH.",
"w e N.S.S.n [ ^ &.-.:.t.8XcXBXSXDXBXSXSXBXcX6X5.r.,.:.%.o.! R E T X + ) H ~  .6.v i n >XaX7X7XaXC 6 n.W.9X0XL.x.L.f.n./.0X,XA.y ",
"f oX;XwXeXOXE ! ^ -.4.r.5XmXVXDXSXBXSXBXBXmXjXw.y.,.%.%.o.R R T H S X ) L L { 6.v C.hXVXAXFXAXZXVXlXC n K.Q.T.x.x.b.V.!.Z.V.V.y ",
".X-XwXeXeX'.E ! ^ ,.5.5.i.mXVXZXVXBXcXcXcXxXjXr.r.:.%.#.Q R J H H S D U ) H ' X.v kXKXKXLXLXKXKXKXGXbX1X4 - u > 7 a V.V.V.V.g s ",
"-X&XyXpXiX0.E E +.>.>.r.zXvX5X5XxXmXjXjXxX6X6X5.5.:.@.o.W T J D H S D D )  .I { u.BXLXKXLXKXKXLXPXPXLXZX3Xv 2 4 3 q V.V.V.!.y s ",
"oX XeXyXpX3.R ! +.*.$.e.xXzXy.t.6XzX5X6X6X6X4.:.%.%.Q W W T D H Y F S D S <.X.,.w.cXLXLXPXKXLXLXLXLXKXHXZX8XC f p < a B g f N F.",
"oXoXoXyXpX..J ^ @.-.$.4.6X6X4.4.t.i.5Xt.4.4.4.%.@.o.W W R Y u.lXvXlX5Xu.X.( <._ =.xXKXPXLXPXPXPXPXLXKXKXFXZXlX'.XXV q a q b.XX$X",
" X XoXoXqX..T ^ =.-.$.4.t.t.5.>.t.r.t.r.>.4.>.@.o.Q W W L u.GXJXFXDXAXVXMXlX2._ U 1XZXPXLXPXKXKXKXKXKXLXKXHXZXxX'.>XM u k U.$X$X",
"W.}. X}. X..~ ^ =.>.-.$.t.4.>.4.4.>.>.e.4.>.$.o.o.o.Q R ..5XJXKXLXJXJXGXVXMXmX7X| 0.bXFXKXKXHXGXGXGXJXLXKXKXHXFX5X`.H.i c .X$XoX",
"A.XX}.}. X..~ / &.=.$.$.4.$.$.4.@.Q $.$.>.$.@.o.o.Q W ~ ..lXJXPXLXFXGXGXDXDXMXvX2X3X8XbXCXHXFXCXZXGXKXKXKXKXLXHXNX1XJ.n c }.oXoX",
"B I..X.X{.X.~ ~ / ( ( @.$.! +.o.R R @.o.Q o.o.Q Q Q R / ;.kXJXGXKXLXJXKXKXJXVXbX2X+X3XfXFXPXFXnXbXZXKXKXPXLXLXLXFXxX`.k c }.oX$X",
"9 ; Y.Y.{.2.~ I E ^ ( ^ R T Q Q Q Q o.o.! o.o.Q Q W E  .q.lXGXJXLXKXLXLXLXLXDXAXnX3X1.1X1X8X8XbXNXAXZXKXPXPXPXKXKXZX1Xi c U.$XXX",
"> $ > B.N.2.~ L E ^ ^ ( R T W Q Q Q o.o.! Q Q Q W W K 6.q.lXGXGXJXJXLXLXLXLXDXDXnX8X) 1X1.<.0.bXDXFXNXKXPXLXPXLXLXFXzXv l d.j.S.",
"P.- : ; = 9./ L K ~ ^ ^ E T W W R W o.Q Q W R W R R H X.q.jXGXGXGXKXPXPXLXLXAXAXbXvX8.b '.<.# vXLXAXNXPXPXPXPXPXLXGXMX9.& ; ; 6 ",
"%X, z - N.`...H H L E E E J E W R R W Q R T T T T T H  .e.u.AXGXGXGXPXPXLXLXFXAXNXNX9.+ 1X1X3XZXKXZXNXAXPXPXLXLXLXLXGX1XS.}.|.G.",
"#XI.x.L.I.P.3.~ H H E E E J R R R J T T T T T T J T H _ q.,.xXFXGXHXLXPXPXPXKXAXAXKXvX<XvXvXfXCXZXMXNXDXKXPXPXLXLXKXPXxX[.|. X$X",
"B.> d.= d D.0.X.K D K J E J T E T H J J E J T J T J D U q.;.q.MXGXGXLXUXUXIXLXHXDXKXDXZXHXCXnXnXCXMXNXHXLXLXLXLXLXLXPXmX`.|.|.$X",
"3 - > 5 3 8 n 2.] K H J L L E J D S D H J J H J J H S X q.+.O.5XGXFXKXIXUXUXIXPXGXDXAXFXPXAXnXvXNXbXNXHXLXLXLXLXLXLXLXmXC d.I.XX",
"1 7 , y p u 0 v { I L K L L J K X X S S D D D D S S X . 2.O.! +.lXAXHXPXUXUXIXIXIXLXGXGXPXAXnXvX8XvXNXDXKXPXLXLXLXKXLXVXv n c ].",
"3 = m.L.L.h.n.t | ] I K I K L G X X X F X G S X X X . . } +.! W =.MXGXKXUXUXIXUXIXIXPXKXPXKXAXbX8X8XNXVXKXLXLXLXKXJXKXkXv   & ; ",
"2 - B.W.E.E.h.M 6 ' I I I ~ I o . . X F X X X X X . . . O =.O.R Q X.VXAXGXIXIXIXIXIXPXPXPXKXKXNXbX3XbXZXFXLXLXLXKXGXDX4X  2   & ",
"3 = K.W.^.W.E.m.7 h { ' I I ~ P O o o O o o X o o . . o . } &.! W H  .MXAXHXLXIXUXIXLXLXPXPXHXAXbX8X1XMXVXGXLXKXKXJXVX<.  2 V oX",
"3 9 m.E.Q.^.E.s.> g.C X.] ' ' ` P P O O O P O o o . o o o o { ( ! H L Y kXAXJXLXIXPXLXLXPXPXLXHXCX8X1.<.<XmXDXHXKXDX4X6   S.iXgX",
"s b.b.m.L.E.B.: D.|.}.`.X.} ' ' P ' P P P P P O O . o o o o . { ( J S S S 0.AXGXKXKXLXLXPXLXPXHXNXbX1X# j @  .8.q.q.<.  l eXgXgX",
"N n.b.d y y 7 $ F.$X%X%XS.| } ' ' ` P P P P P P O O O o o o o o { ~ D D D X Y 4XNXDXKXLXLXLXLXHXMXbX<.@ 1.| I I ..2.e & oXiXiXiX",
"M b.n.n.9 3 2 2 b.I.R.P.D.g.j # U ' ` O ` O P P P O O O O . @ & @ { L D D D S X ' 4XmXDXKXLXHXAXMX8XI ` b . o / 2.c m & eXeXeXeX",
"y n.b.n.p p n 2 * b.h.g.g.B.z c l @ # + # b | | | <.b C j n V.a 0 v ' K D K K G D S Y 2.u.lXlXlXu...] I I U ` <.U.k k n eX:X:XiX",
"3 s M b.E.}.}.W.= 8 V.A.b.- ; g.g.z z p !.~.oX%X}.P.P.j.f.s.!.V.5 5 v } I J K K G G G S F D D K I I ~ ~ ~ ` j n.N.x , & wXeXiXeX",
"q 3 9 N.XX}.}. XH.B C.C.s $ , h.h.s.m.C.!.~.>X%X%X.XY.F.s.N A.C.0 5 M N # ' ' ' I I G G G G G G G I I ` + V V.M M M :   Y.eXiX:X",
"t 3 3 W.|.|.|.|.|.S.w q - < f.h.g.M.A.Z.B ~./.%XoXXXU.g.s.: B B q 9 b.s.s.C # } ' { ` I P I I U P U b 6 v M n.M z k   & = n G.J.",
"f 3 ; %X%X XoX}.|.}.e 2 , $ L.g.l.T.A.V.f C.E.XX%XXXI.S.u w 0 u f p s.f.f.b.z J.`.b | } } # b b J.W.S.w a B M M m % 6 6 = N S.>X",
"Z 1 i %X-XoX}.}.}.}.G.- x b.D.R.R.I.A.H.H.A.C.C.S.S.N n w a i u 9 - b.f.f.z M..XXXP.D.D.N p F.>X>XC s M M r 6 6 6 v ; N N G.J.,X",
"f H.$X-X%X#X}.}.}.}.S.g.D.= & D.Q.W.E.H.H.E.E.V 0 5 w i p 0 7 0 5 u m.b.b.z M..XXXQ.D.F.M.; * w & n N.V ; n n r 3 1 4 n N G.J..X",
"L.-X#X-X-X}.}.}.|.W.* D.* < < 3 C.H.H.E.H.E.^.J.N s r t m p e 5 5 u B.m.z z s..X,X.XF.l.l.k < n $X-X;XiX;XL.d d u 1 3 p N N..X`.",
"#X#X-X%X%X}.}.}.{.u > c = = < < H.J.XX/./.>X>X>XC.4 w B.F.g.b.0 0 8 m.B.m.M s.I.XXXXG.l.D.k M wXpXiXiXiXiX:XR.z s.9 2 7 k N.S.G.",
"%X%X#X X].{.}.F.w 8 D.a.B.F.m & H.J.>X>X>X>X>X/.C.4 M.I.E.g.f.9 4 5 m m.m.B.m.h..XXXP.l.B.* XXpXpXpXiXpXeX:X:XL.b.d 3 5 ; M b.S.",
"{.$X].U.I.P.F.2 3 N.> d.XXXXI.x M H./.>X/.Q.^.H.n i L.E.L.D.f.u 4 0 5 m B.B.m.p x F.j.d.% k XXwXpXpXiXiXeX:X:X:X$XH.3 7 r r i M ",
"j.P.P.P.Y.P.M.8 N.: ; a.Q.XX>XE.e H.H.E.~.H.~.n r N.I.E.W.I.f.a 4 0 w 4 7 0 3 5 4 w > c k Y.].].}.;X:X:X:X*X:X;XY.M.8 f n f 0 r ",
"b.N N G.M.n m D.; $ = b.B./.XX.X; 0 V V N V r r t C.E.I.W./.f.e n M.l.j.N.: 5 2 4 e : 4 = ].].].&X*X*X=X:X&X;X%Xm m a a f n 8 5 ",
"- * 7 - = ; > b.f.b.9 7 N M.Q.H.q 5 5 2 5 0 w r w B H.I.W.>Xm.f.F.l.l.j.j.j.m 8 k d.c e 8 M.U.]._. X X X X].*XD.d : f s f s w B ",
"p b.f.f.f.- * m.m.h.m.1 - d M : <   2 2 4 8 q 0 4 q N.H.H.n.N.Y.oXl.S.j.j.j.d.x : M.g.D.d.d.j.P.Y.].].].Y.Y.S.u u a f f s g A !."
};
