/* XPM */
static char *out[] = {
/* columns rows colors chars-per-pixel */
"64 64 256 2 ",
"   c #25361E",
".  c #480B0E",
"X  c #560A0B",
"o  c #500F11",
"O  c #5A1516",
"+  c #640A0B",
"@  c #680A09",
"#  c #780B0A",
"$  c #6F100E",
"%  c #681617",
"&  c #761817",
"*  c #522B17",
"=  c #6F2A17",
"-  c #661920",
";  c #751B22",
":  c #762727",
">  c #1D4A1D",
",  c #1F5519",
"<  c #244B1D",
"1  c #28491D",
"2  c #26551B",
"3  c #2B521D",
"4  c #2C5B1D",
"5  c #375A1B",
"6  c #345C1D",
"7  c #34631D",
"8  c #3A681C",
"9  c #3D761D",
"0  c #1E4422",
"q  c #1E4B21",
"w  c #224524",
"e  c #244B24",
"r  c #2A4D25",
"t  c #274B29",
"y  c #334F28",
"u  c #255224",
"i  c #2B5324",
"p  c #2B5A23",
"a  c #2B532A",
"s  c #295828",
"d  c #345727",
"f  c #335C24",
"g  c #335C2B",
"h  c #2B6526",
"j  c #356323",
"k  c #3B6424",
"l  c #3C6A23",
"z  c #34632C",
"x  c #3B652C",
"c  c #366A29",
"v  c #3C7428",
"b  c #3A6A32",
"n  c #3E7732",
"m  c #674B1D",
"M  c #466B1D",
"N  c #447B1D",
"B  c #48781C",
"V  c #547C1B",
"C  c #4C582E",
"Z  c #6E5132",
"A  c #436B23",
"S  c #466A2A",
"D  c #437323",
"F  c #457B23",
"G  c #4B7D23",
"H  c #43732B",
"J  c #4A782A",
"K  c #547A28",
"L  c #446D33",
"P  c #566933",
"I  c #467834",
"U  c #557A34",
"Y  c #707032",
"T  c #3F7541",
"R  c #6D6144",
"E  c #870A09",
"W  c #91100B",
"Q  c #96140C",
"!  c #851A17",
"~  c #981819",
"^  c #AD120C",
"/  c #AA1818",
"(  c #B71B18",
")  c #922E18",
"_  c #A82517",
"`  c #B6271B",
"'  c #881B23",
"]  c #991822",
"[  c #A61924",
"{  c #B11F29",
"}  c #8F292E",
"|  c #863536",
" . c #AA2626",
".. c #B62727",
"X. c #B53733",
"o. c #CF190F",
"O. c #C81D16",
"+. c #EF1E19",
"@. c #C82518",
"#. c #D72818",
"$. c #D83512",
"%. c #E92619",
"&. c #F7291C",
"*. c #E83A15",
"=. c #FD341C",
"-. c #FB381A",
";. c #D1312C",
":. c #D83728",
">. c #F52A24",
",. c #EA362D",
"<. c #FA3826",
"1. c #8E4819",
"2. c #B74F17",
"3. c #8F4D31",
"4. c #B44E2E",
"5. c #8F6936",
"6. c #AE6935",
"7. c #D05B18",
"8. c #F5481E",
"9. c #DC4328",
"0. c #CF4F33",
"q. c #E74C2C",
"w. c #FC4727",
"e. c #FC552B",
"r. c #FC4A36",
"t. c #FC5937",
"y. c #F26A2E",
"u. c #FD6638",
"i. c #FD7937",
"p. c #923F43",
"a. c #CC3E40",
"s. c #944D4B",
"d. c #AB4B4A",
"f. c #95704F",
"g. c #AA6F50",
"h. c #F45747",
"j. c #D0704A",
"k. c #FD6846",
"l. c #FE7746",
"z. c #E06C59",
"x. c #F16F55",
"c. c #FD7A55",
"v. c #3F852C",
"b. c #48841A",
"n. c #56881C",
"m. c #48931C",
"M. c #5C951D",
"N. c #569A1D",
"B. c #64961D",
"V. c #659C1E",
"C. c #59A21D",
"Z. c #66A51E",
"A. c #4B8223",
"S. c #478528",
"D. c #4B822B",
"F. c #538C23",
"G. c #5B8D24",
"H. c #578629",
"J. c #559223",
"K. c #5B9725",
"L. c #4C8537",
"P. c #578937",
"I. c #4F9733",
"U. c #5A9438",
"Y. c #638C29",
"T. c #639423",
"R. c #649A23",
"E. c #69992A",
"W. c #71972E",
"Q. c #658839",
"!. c #689937",
"~. c #769A37",
"^. c #5DA225",
"/. c #6AA425",
"(. c #6DA32C",
"). c #73A32B",
"_. c #77A728",
"`. c #7AA52B",
"'. c #7CAA2B",
"]. c #6FB129",
"[. c #77B428",
"{. c #6AA537",
"}. c #77A737",
"|. c #7CB339",
" X c #578842",
".X c #6A9143",
"XX c #759A44",
"oX c #79A844",
"OX c #73A549",
"+X c #7CB644",
"@X c #87953C",
"#X c #AE9538",
"$X c #83AC27",
"%X c #84B32C",
"&X c #8BB52E",
"*X c #8CBA2D",
"=X c #93BB2D",
"-X c #83AB36",
";X c #97AB3C",
":X c #87B436",
">X c #8BBA33",
",X c #8BB43A",
"<X c #93BB33",
"1X c #97BC3A",
"2X c #FA8C37",
"3X c #E59637",
"4X c #94C732",
"5X c #97C537",
"6X c #9DCA34",
"7X c #A3CD3B",
"8X c #AED633",
"9X c #A9D539",
"0X c #8E9546",
"qX c #87A946",
"wX c #92AF4F",
"eX c #86B746",
"rX c #8AB443",
"tX c #98B946",
"yX c #A9B652",
"uX c #A49F61",
"iX c #CB995D",
"pX c #FE8746",
"aX c #EF9946",
"sX c #FE9449",
"dX c #FE8956",
"fX c #FE9856",
"gX c #FDA649",
"hX c #FBA55A",
"jX c #FD8B65",
"kX c #FD9767",
"lX c #F79471",
"zX c #FEA767",
"xX c #FDA978",
"cX c #F4B079",
"vX c #8BC649",
"bX c #98C547",
"nX c #99C756",
"mX c #A7C946",
"MX c #ABD345",
"NX c #B2D54B",
"BX c #B5DA48",
"VX c #A6CB59",
"CX c #B5C55B",
"ZX c #ABD25B",
"AX c #B5D552",
"SX c #B5D759",
"DX c #BAE14E",
"FX c #BBE153",
"GX c #ABC46A",
"HX c #B6D561",
"JX c #BFE265",
"KX c #C6E75A",
"LX c #C5E668",
"PX c #EFB286",
"IX c #FFCB96",
"UX c #FFDEAB",
/* pixels */
"u 0 a I {.!.S.H j j f < u p p p s z z b s a S J ;XbXNXAXSXAX1X<XK 4 L nXZXZXVXL.c h h 4 s , h C.v 9 B._.`.`.`.).j u c {.I.v.v.c ",
", T L d l D.D.D.l j j < u p p u s s z s t a H J 1XNXAXAXAXAX1X<XE.p eXVXZXZXHXeXc v h u u q > m.4 N.).'.&XbX`.).c t e v v.v h u ",
"x GXP p j D.D.D.8 v G 4 < p 4 s u g n c a a x J ;XNXAXAXAXAX1X<X|.p {.B.eXZXVXvXv v v u , h A.C.N R.'.tXMXVX`.H.h 0 e u s h h n ",
"ZXVX,X!.c H D.J j F D G h s s s n {.{.OXT a r d E.NXNXAXAXAXmX<X%X8 K.B.|.VXvX+Xv.v v S.p j [.4XH.b./.%X|.).K h h c v c h h s u ",
"HXHXZXtXW.d l l A v v v l s a s U.OX{.|.!.a t w y :X1X7XmXNX5X<X%Xv K.(.nXnX+XOXv.h 8 m.A.4 ^.A.> q u j l h h c h u u t u s t q ",
"HXHXHXZX$XH.3 j D D F J x a a a D.P.U.{.{.t t w e S &X<X<X&X<X<XH.F K.nXVX+X+X^.v v J.N.b.N N., 0 0 q e h c u > 0 0 0 s h h h s ",
"CXHXZXHX-XW.r l H.wXZXVXXXa a a x D.D.U.I t w t r t j !.&X,X`.G.4 F eXZXvX+XOXI.S.K.N.m., > b., q v b.S.S.< 0 1 0 0 0 s h h h h ",
"HXHXHXGX`.`.p k nXZXZXZXGXU t a g g x c u t t t r J J G F A p i n.J.+XeXU.0XiXuXJ.J.J.N.K.9 9 2 J.^.J.C.C.J.Q.!.U w 0 t h h h h ",
"HXZXZXmX'.`.3 J W.}.GXZXZXoXl D.{.{.!.}.P.H.I b wXNXNXmXmX5X-Xj A.J., v v.f.5.5.E.N 7 ^.C.^.N.^.C.I.N.^.4XNXFXJXFX}.w w i h h h ",
"CXHXVX-X`.W.3 H.E.}.ZXVXtXP.U.oX+X+X~.qXGXwXeX+XtXmXyXmXmXmXmX,XH.bXh s +X0Xm m nXv N K.N.C.9X8X4XC.C.4XMXNXJXJXLXHXA L J g a s ",
"-XtX-X'.].G.7 E.E.VXtX!.Q.!.Q.Q.Q.Q.OX!.GXGXGXeXvXeX1XmXmX7X1XbXnX|.7 U.nXPX= 0XnX9 S.^.b.[.8X9X9XN F MX6XMXMXJXJXJX}.J I H.~.tX",
"E.)._.).).A G E.rXrX!.XX0X~.Q.U L S P.U.Q.uXnXqXeXnX-X,X'.E.(./.9 u ^.oXtX3X5.rXI.4 A.K.m.].9X8X9Xl k MX7XmX7X9XSXJX}.H W.mXMXAX",
"P.D.K T.T.3 H.eXwX~.qX;XwX~.Q.U Q.Q..XQ. X.XuXwXOXnXOXE.(.(.(.F u q j (.#X6.Y A.p < k N.b.C.].4X6Xl 5 7X9X9X7X9X9XmXH.U mXNXAXBX",
"mXVXqX5 7 5 Y.).}.U ~.yXyX-X~.0XqX-XqX|.OX X.XXXP.qXqXK.E.K f e s u 2 K 6.1.6 A.K.M.m.N N C.C.C.C.2 < ,XbX9X7XbXmX'.S 5XBXAXDXSX",
"VXmXmXeX3 b.7 A G.F D qX;XyXCXyXwXyXbXnXOXOX X XL U XX XP C L Q.U. XP.C 2.* H.V.V.R.M.J.4 C.C.C.F.0 w K 7XbXMX7X).3 H.bXmXNXNXBX",
"mXmXtX-XD G J 0 w U qXwXyXCXyXwX0XyXyXyXwXwXqX.XU S L P.iXxXxXPXcXGXuX1.1.K E.M.M.K.R.K.b.N.C.m.2 > 0 0 D 5XE.k < < E.%X&X&X&X7X",
"tX-X`.`.}.rXG.e  XOXVXGXyXyX0X;X@XyXyXyXyXwXXXU d d L P 6.c.jXPXzXfXjX1.4.iXiXuX}.R.K.D.2 N.N.N 4 3 2 < < [.p 8 G F.).%X%X>X&XbX",
"1X_.).!.D r N b .X.XOXZXnXOXU U @XyXqX-XwX0XP.L S S C Z 5.x.k.c.kXl.4.= $.i.2XdXkXlXiXqXR.l f v C.J./.(.(.].[.].J.4 7 P.U.H.f w ",
"S b f r s n I.L.U..XOXnXb t t s d x P 6.Y Z Z m 3.4.0.j.j.j.iXc.cXk.1.) q.i.i.2Xl.t.c.lXuXg t a n.1 b.> h S.S.m.M.4 H P.P.H 1 0 ",
"r a s a n U. XP.I L.K D w a a d f d 3.0.q.t.u.u.k.l.k.k.fXdX0.#Xc.4.= ` q.y.2XpXk.t.h.x.c.PXP b 8 w N F I.I.L.v.H.,X7X7XMXNX,X1 ",
"s g g z  XI. XI. Xn a t w t g a g 6.x.k.u.y.i.sXfXfXfXk.q.t.t.6.6.= = 2.0.q.y.2X2X2Xk.r.h.z.lXuXb.4 C.[.[.[.].m.Q.7XNXMXBXMXMXrX",
"g s z z  X Xn n I L.z g a w a a Y x.k.q.u.i.sXsXhXhXdXdXy.*.<.@.3.* & 2.7.7.i.2XgXfXc.x.r.a.a.lX-XB ].>X].[.[.[.T.,XMXBXBXBXBXNX",
"g z z z I. Xv.n n I b g a e t d z.x.q.8.l.pXsXdXfXdXpXl.l.7.$.) = * = 2.7.7.2X2XfXkXjXjXh.,.;.h.iXK [.bX[.[.[.]./.R.$XMXNXMXMXMX",
"s s z z z b b b x g g a w w t g.jXt.e.t.l.fXzXdXl.dXkXfXpXq.2.) * * * ) 7.y.2X2XgXzXxXlXPXh.,.a.h.f.(.vXvX].Z.Z.Z.V.R.mXMXBXNX!.",
"a f H.Y.H.g d a e u g t w w C lXx.t.h.u.dXkXxXc.l.dXxXPXfXdXfXsXy.2.) ) 2.7.aXhXhXfXfXkXlXx.,.h.;.z.~.}.vXvXZ.Z.Z.n.L.:XvXvXP.h ",
"x 1X9XMX9X5XJ 1 0 t g t w t g.x.q.w.r.l.fXzXzXxXkXjXkXjXfXzXzXgXi.7.j.y.y.2XgXgXzXfXlXkXc.h.,.,.a.a.f.H ].|.]./.Z.S.L.L.L.P.L.h ",
"-X8XMXDXBXNX7XK e a a t t g z.q.<.<.w.t.sXfXdXUXIXlXc.jXdXfXxXsXi.i.2Xl.kXhXgXgXhXdXdXkXc.t.r.,.;.{ j.t e 2 7 8 3 z L. X XL.n b ",
"1X6XAXFXBXAX7X=Xi t t w q 5.0.*.<.=.w.u.sXpXdXIXUXIXlXlXjXkXkXdXi.2Xk.l.dXzXhXgXfXhXsXpXt.t.,.,.a.{ a.Y L.k < r w s L.L.L. Xh v ",
"=X=XBXAXAXFXNX=Xd w u 0 w g.q.:.w.w.e.u.i.2XpXkXUXUXPXlXlXc.c.l.2X2Xk.t.l.dXpXsXdXfXhXpXu.t.w.;.;.;.{ g.U.D.c k S 0 z I b z A./.",
"1X=X1XAXFXFXAX=XK z z z y 0.9.*.=.<.e.e.e.e.e.l.dXIXUXIXPXlXc.l.2XsXsXl.k.dXt.k.dXk.l.u.u.e.<.#.O.{  .z.P.L.P.,X:XI d j s H.,X4X",
"=X=X=X<XyXNX7X=XU.b I n P 0.,.<.=.<.w.e.e.e.w.e.u.pXzXxXPXc.h.dXgXhXsXpXl.k.t.h.l.k.i.t.e.e.>.;.{ { [ d.~.D.W.,X,XrXH k M }.5X4X",
"-X&X=X<X=X=X<X&XH.H n H Y q.*.=.=.=.w.w.e.8.w.w.r.k.k.k.h.h.h.pXdXpXu.l.2Xt.k.k.k.u.u.e.<.e.>.O./ [ { X.R B E.,X,X,XE.f n.%X>X>X",
"U.%X&X&X&X&X&X&XA.n n n 5.9.$.=.=.-.w.8.w.w.w.<.<.h.r.h.r.<.w.u.u.u.u.l.i.r.t.u.w.e.e.r.<.:.%.O.[ [ [ X.R D Y.,X,X>X~.8 n.&X<X4X",
"I ).-X-X%X%X$X-Xv v n v 5.,.$.-.-.-.-.8.w.-.<.=.<.<.<.<.>.w.>.<.&.<.<.t.r.r.r.<.e.y.t.u.,.:.O.( [ ] [ ..Z A V -X,X,X~.M V &X4X<X",
"s f '.%X%X-X&X=X5X5X4XU.3.9.#.*.-.8.=.=.8.-.=.=.>.<.<.>.<.<.=.=.&.>.,.r.h.r.w.<.t.y.t.q.q.:.O...[ [ [ a.Z S V n.:X,X`.M V `.>X<X",
"8 > 7 T.H.W.4X7X6X6X6X6Xg.;.#.*.-.-.-.=.=.=.-.=.>.>.,.>.<.<.<.=.-.>.>.<.<.>.>.>.t.t.9.9.9.:.( ( [ ] } a.Y K M V V E.K 1 M n.T.Y.",
"_.2 7 7 5 ~.$X<X6X6X6X6X#X;.#.$.$.8.*.%.-.-.-.-.<.>.>.+.&.>.&.&.>.+.>.>.+.+.+.+.#.:.9.9.:.;.( ( / [ ] a.R A M 5 5 1 5 3 1 5 5 1 ",
"6X9 B 4 K '.=X5X7X6X7X5X;X;.@.$.$.*.*.%.+.=.=.-.<.%.%.+.>.<.>.&.,.+.+.+.&.&.+.+.( ( 9.` ;.;.( [ / ] [ z.P A M M y 5 5 3 Y.=X=XW.",
"4X).Z.V.).`.&X6X7X7X<X6X;X0.` @.$.$.$.o.*.=.=.<.>.#.%.>.%.>.&.%.#.#.+.+.&.=.+.o._ ^ _ ` _  . ./ ] / [ g.Y.K A A y M V E.4X*X=X*X",
"Y.8 n.3 S Y.).`.$X$X5X,X~.4.` ( o.o.$.#.#.%.=.<.%.+.o.%.>.%.%.#.@.O.o.#.<.=.O./ W W ~ ) ) _ / ] ] [ ..iX5X1XM A 5 1 6 V _.*X*X4X",
"< 2 8 t t i j H J J f S Q.5.` _ ^ ` O.O.@.o.%.%.+.o.o.o.+.%.#.( ^ ( o.O.$.@.Q ! # ! ) ! ! ! ] ]  .[ d.yXtXtXV 5 1   w r M n.`.&X",
"e 2 v j 8 j i u u u r w s Z X.( ` ( / / ( o.o.o.o.o.o.o.o.@.$.( ( ( ^ ^ ^ _ _ ~ ! ) = $ $ & ' ' ' } g.bXmX1X5 3 w 1 w w 1 M V `.",
"e < J.K./.N.S.f a u e e t x 3.../ ^ / ^ ^ ^ ^ ^ ^ ^ ^ ^ ^ @.( _ _ _ W Q ^ ` ` ) ! ! & $ $ $ ' ; ' s.f.mX1XS 1 5 5 5 5 w   w r 5 ",
"e 3 K.|.|.{.J.B u a e > t s P d.` ~ / / ^ ^ ^ E E E E E W Q Q _ _ ) Q & ! ! ! ! = = + $ $ & ' ' s.f.Q.U K Q.Q.J 5 7 8 i 0 0 0 1 ",
"e 4 K.}.oX{.{.J.u j F n.n.B d g. .[ Q ~ W Q W E E E # E E E W Q ) ! & $ + X = $ & $ + + $ ; - p.s..Xy oXrXrXrXrXJ 5 f 3 0   K 5X",
"t p F.{.{.|.{.m.8 B.V.R.K.M.B.U d.~ ~ ~ E W Q Q # # # # E # # # @ $ $ X o O O % @ $ + + % % } s.R :XqXrXeXrXrXrXW.8 3 w 0 Q.SXKX",
"l S.A.J.{.{.F.7 K.*X4X[.R.R.}.'.R } ] ] # E W E # @ @ @ X @ @ X + O + o o o X + @ + O O - & p.R !.S XXrXeXrXrXoXG.K e 1 K 8XLXLX",
"G G A.v 7 f < < R.4X4X4X/.(.}.R.5 s.] ] ' W E E # @ @ X X @ X . . . o . X @ @ $ + O * : : | s.g W.H S P.Y.G.U.E.n.b.5 0 <XDXDXDX",
"H S.S.D.p w w w A.).[.'.M.K.B.N 8 M 3.} ] ' # # $ + + X + . . . . . . o . O % % ; : } } ; 3.P l |.H g H R.E.|.5XK.F D < BX8XBXDX",
"j D.D.S.c A A e r G M.N.M.M.N N b.B P s.} ' ' % + + + + X . . . o . o O + o % - } } } } | Y |.>X>XK L D./.G.K.5X|.F A k BXBXBXBX",
"u x G A.(.&X&X}.3 a L.U.A.2 6 M.M.N N S f.p.} ' # & + o o o o - * o o O % O % ; ' } } | P 6X6X5X6XbXI H R.D.D.S.F.B 8 1 8XBXBXBX",
"s t i H.>X=X&X&XE.I  XL.j > 9 M.M.b.F.P.U f.d.d.' ; % O % % O O - O % % ; - % ; } } Z P H.'._.%X4X5X!.x I S.I S.F B 7 1 '.BXBXBX",
"g 0 r }.*X*X&X*X>XY.a p 6 > n.n.M.K.U.I.I .X0Xf.d.p.| : & % ; ; : : : : : } ; ' 3.Y R.G.V E.R.R.].bX}.g b I K F B M 1 3 3 M !.~.",
"b q p 5X5X=X>X*X&X&Xf e 9 > /.M.R._.U.D.b P.!.,X0Xs.s.| | | | | | : | : : Z Z Y.,XW.R.T.D n.T.(.|.:XG.d x H J D M 5 y 3 3 K W.-X",
"T q c 6X7X=X=X&X&X&XY.5 B A.T.[.[.}.U.U..XU.L.P.P.H.P P C Z R Z Z Z Y P K B M.-X,X_.B.B.G l !.:X+XP.A B S x y y y 5 5 S K W.~.rX",
"b !.6X6X7X=X&X&X&X*XY.M.R.3 1 T.[.}.{.{.{.{.{.U y r f A c g t t 0 6 F.F.A.B G.:X,X-XT.B.K.6 < d 3 J K P 5 S S d t w r K V Y.-X@X",
"Z.6X6X6X7X=X=X*X*X-X1 B.< 0 0 0 P.!.~.!.{.!.~.{.K c z g v 9 g a 0 g M.F.G N n.}.,X,XB.B.B.M 1 A 5X7X9XDX9X).N v f w w 8 K Y.~.$X",
"6X6X6X6X4X&X&X*X%X7 8 b.3 3 > 0 !.}.|.|.+XeXeXeXP.t d K.E.n.A.a a t F.F.F.F b.).,X,X).B.B.M A MXDXDXFXDXBX8X'.b.b.f e u B K Y.~.",
"6X6X6X=X'.$X*XT.y u G.n.T.K.F 1 Q.}.eXrXeXeXeXqXP.r H.).(.J.n.p u t D J.J.K.F.M.-X,X/.V.M., &XFXFXFXDXFXBX8X8X].A.F w t d J V Y.",
"*X%X'.'._.`.E.w r G.8 M.:X,X).B J !.}.+XoX}.oX!.S l (.(.).R.n.z t a t D F.J.F.l B (.B.n.4 M -XMXFXFXFXDXDX8X8X8X>X{.t t g f A S ",
"B._._._.'._.Y.u F.5 7 n.|.rXrX(.f Q.!.!.~.~.!.L g H.(.(.}.(.n.j t s y r a a r t e d 8 V M $X$X$X&X8X8X8X8X8X8X8X|.F.i b S L i d ",
"b.K K T.Y.A A T.6 > 2 A.G.|.rX-X6 a U P.L.L g g g P.{.{.}.+Xn.f D G.B.B.n.6 w t r 7 8 r 5 $X$X$X6X8X8X8X8X6X8X6XN D j x x b u u ",
"2 > 3 p < f 8 G n.b.u s A.G.|.E.i e t w w a g g g K (.{.}.|.n.n.E.V.B.B.B.B.D u M V B 5 3 n.$X$X$X=X=X=X*X$X7XR.l 7 b x x b f L ",
"l F.n.n.n.4 2 F.m.R.F.< u D F j 0 w w w e a a t t a H.!.!.U H.%X<XV.M.B.B.B.n.V 7 Y.B.B.B.V B.Z.$X$X$X$X$X'.Y.j g j b b z L  X X"
};
