/* XPM */
static char *out[] = {
/* columns rows colors chars-per-pixel */
"64 64 254 2 ",
"   c #1E3F22",
".  c #4E080F",
"X  c #4D0711",
"o  c #4D0912",
"O  c #540B10",
"+  c #560A12",
"@  c #701217",
"#  c #613022",
"$  c #6B3729",
"%  c #1E481D",
"&  c #244C1D",
"*  c #28491D",
"=  c #26551C",
"-  c #2B521D",
";  c #2D5C1D",
":  c #37591B",
">  c #345C1C",
",  c #34621D",
"<  c #3A631C",
"1  c #3C6B1C",
"2  c #3D741F",
"3  c #1D4422",
"4  c #1E4A22",
"5  c #224523",
"6  c #244B24",
"7  c #2A4D24",
"8  c #274C29",
"9  c #364E27",
"0  c #255224",
"q  c #265725",
"w  c #2B5324",
"e  c #2B5A24",
"r  c #2B532A",
"t  c #2C5A2A",
"y  c #345727",
"u  c #335C25",
"i  c #335C2B",
"p  c #2B6424",
"a  c #2C6528",
"s  c #356323",
"d  c #3B6423",
"f  c #346B27",
"g  c #3C6A23",
"h  c #34632C",
"j  c #3A652B",
"k  c #3B6B2C",
"l  c #3C7326",
"z  c #3C732A",
"x  c #396932",
"c  c #3F7936",
"v  c #456C1D",
"b  c #447B1D",
"n  c #48781C",
"m  c #567C1B",
"M  c #52552D",
"N  c #624928",
"B  c #436B23",
"V  c #456C29",
"C  c #427323",
"Z  c #457A23",
"A  c #4B7D23",
"S  c #43732B",
"D  c #4A7829",
"F  c #537C24",
"G  c #537A2A",
"H  c #436D34",
"J  c #556937",
"K  c #477934",
"L  c #5A7739",
"P  c #676A35",
"I  c #3F7541",
"U  c #415F43",
"Y  c #517542",
"T  c #5F7641",
"R  c #647845",
"E  c #727B45",
"W  c #8F0F17",
"Q  c #8B161E",
"!  c #8A1923",
"~  c #941822",
"^  c #9B1A24",
"/  c #A81C26",
"(  c #B31E28",
")  c #8D2C29",
"_  c #A9232A",
"`  c #B62327",
"'  c #B5222C",
"]  c #BC232C",
"[  c #BA2E32",
"{  c #C01E29",
"}  c #CB2227",
"|  c #C4242D",
" . c #CB252D",
".. c #CB292F",
"X. c #D4252D",
"o. c #DD292E",
"O. c #C92830",
"+. c #D72730",
"@. c #D42B31",
"#. c #DC2C31",
"$. c #CA3636",
"%. c #D53939",
"&. c #E32A2E",
"*. c #EF2F2F",
"=. c #E32C32",
"-. c #EB2E34",
";. c #E63736",
":. c #EC3235",
">. c #F23536",
",. c #F63938",
"<. c #8E4933",
"1. c #AF5434",
"2. c #A56A39",
"3. c #D0453B",
"4. c #EC493D",
"5. c #F6433B",
"6. c #F9473D",
"7. c #F74A3E",
"8. c #DC603C",
"9. c #9B6656",
"0. c #D6584D",
"q. c #F64640",
"w. c #F74A41",
"e. c #FA4D43",
"r. c #E95344",
"t. c #F85748",
"y. c #FC634B",
"u. c #FB6853",
"i. c #EC7956",
"p. c #F47051",
"a. c #FD7D55",
"s. c #3F852C",
"d. c #4B841D",
"f. c #57861C",
"g. c #538C1D",
"h. c #48931A",
"j. c #5C951D",
"k. c #599B1E",
"l. c #64961D",
"z. c #659C1D",
"x. c #5EA21E",
"c. c #66A51F",
"v. c #4B8223",
"b. c #478528",
"n. c #4B822B",
"m. c #548C23",
"M. c #5B8D24",
"N. c #578629",
"B. c #569223",
"V. c #5D9323",
"C. c #5B952A",
"Z. c #4C8332",
"A. c #4C863A",
"S. c #568936",
"D. c #4F9733",
"F. c #599437",
"G. c #648C29",
"H. c #639423",
"J. c #689928",
"K. c #6B9231",
"L. c #699A36",
"P. c #769B34",
"I. c #6AA426",
"U. c #6DA32C",
"Y. c #73A42B",
"T. c #77A728",
"R. c #7AA52B",
"E. c #7CAA2B",
"W. c #6FB129",
"Q. c #76B428",
"!. c #6AA537",
"~. c #77A736",
"^. c #7DB337",
"/. c #528D43",
"(. c #6C864A",
"). c #659842",
"_. c #77924D",
"`. c #789B4A",
"'. c #6CA544",
"]. c #7AA745",
"[. c #7CB644",
"{. c #83AC27",
"}. c #87B429",
"|. c #83B32D",
" X c #8BB52E",
".X c #8CBA2D",
"XX c #94B92D",
"oX c #93BC2D",
"OX c #82AB35",
"+X c #83B233",
"@X c #8CB534",
"#X c #8CBA33",
"$X c #87B63C",
"%X c #8BB43A",
"&X c #93BB33",
"*X c #97BC3B",
"=X c #A6B437",
"-X c #97C537",
";X c #95C831",
":X c #9DCA34",
">X c #A8CF2C",
",X c #A4CB3A",
"<X c #A3CE3C",
"1X c #A9D43A",
"2X c #B1D938",
"3X c #85AD48",
"4X c #86B546",
"5X c #8AB444",
"6X c #97BC44",
"7X c #88AB51",
"8X c #8CB652",
"9X c #93BC53",
"0X c #999866",
"qX c #C08A42",
"wX c #FE824F",
"eX c #FF8253",
"rX c #FD895B",
"tX c #FA986E",
"yX c #FDAB6F",
"uX c #FDB377",
"iX c #8CC549",
"pX c #98C648",
"aX c #94C454",
"sX c #9AC756",
"dX c #9BCA55",
"fX c #A6C946",
"gX c #A7D346",
"hX c #ADD345",
"jX c #B5DC45",
"kX c #B2D54B",
"lX c #B5D949",
"zX c #A6CB58",
"xX c #A6D55A",
"cX c #ACD25B",
"vX c #B5D551",
"bX c #B5D758",
"nX c #B4E153",
"mX c #B8E257",
"MX c #AFDB62",
"NX c #B5D862",
"BX c #B3E364",
"VX c #BBE76B",
"CX c #C6E75A",
"ZX c #C5E668",
"AX c #B79B8C",
"SX c #E89583",
"DX c #F4B398",
"FX c #F8CEAD",
"GX c #FDD7AB",
"HX c #FBD6B8",
"JX c #FEEAC9",
"KX c #FFF1CE",
"LX c #FEF2D3",
"PX c #FFF8D7",
/* pixels */
"0 4 q /.L.!.n.C s s ; 6 ; q q e q x a x t r V D %XfXvXvXbXvX*X*XF 0 c sXcXxXdXG f a p e = = p k.2 2 x.Y.R.T.R.Y.f 8 l !.D.s.s.a ",
"= U H 0 2 n.n.n.g s s & 0 q e ; r t x r 8 t S G %XvXvXvXvXvX*XXXU.; 4XzXcXcXcX8Xf l a q q 4 = h.; k.I.E.%XpXR.Y.f 8 6 z s.z e 0 ",
"c 0XJ ; s n.n.n.s l A e 6 q q u r t H x 8 t j D %XvXvXvXvXvX*X&X^.; ~.H.4XcXcXaXl z l q 4 p d.k.b k.E.pXcXfXY.M.p 5 6 q p t a c ",
"bXzX%XK.s z Z.D g C C A u e w t c !.!.!.K 8 8 y K.fXkXlXvXvXfX&X+X, V.H.$XdXiX[.s.z l d.q f Q.;Xv.m Y.+X+XT.F e a a l f a a p 0 ",
"NXMXNX6XK.M B g C l l l k r r 0 F.'.!.[.L.r 5 5 9 @X-XfXfXfX-X&X|.l C.U.dXaX[.'.l f f B.b.; x.v.% 5 0 s g e f f p 6 = 8 6 r 0 4 ",
"NXNXNXcX{.G - s B C D D g r r r b.S.F.!.L.0 8 8 5 G @X&X&X&X&X&Xm.Z J.iXdX[.[.!.s.2 B.B.d.b B.= 4 4 3 6 a f q 3 3 3 5 q a a a t ",
"bXNXNXNXOXP.* g n.9XzXzX`.r r r j n.Z.F.K 0 8 4 7 7 u K. X+XE.H.; Z 4XxXiX[.'.s.b.B.k.C.4XmXmXBXxX[.F.m.s.& 5 5 5 3 3 t p a p a ",
"NXcXcXcXP.R.- d zXcXcXcXcXY r 8 r i xXMXMXBXBXxX7 K G A A B w q g.B.$X4XF.D.s.s.iXnXBX8XBXBXMXMXsXsXdXdXpXpXS.P.G 5 3 4 a a p a ",
"cXcXcXfXR.Y.- D J.R.cXcXcX_.: g BXVXVXVXVXBXBXVXVXgXvXfXfX*XOXs d.B.0 f s.D.[.BXBXBXBXBXBXcX(.7XdXdXdXdXdXvXmXmXbXOX5 5 w a a a ",
"cXNXzXOXT.Y.w N.J.~.cXzX9X3XpXdXdXdXxXzX7XJ E xXxXxXxXfXfXfXfX%XN.pXp q aXxXMXBXBXBXP aXJ aXsXdXdXdXdXpXhXkXZXZXZXNXV H D i r q ",
"%X6XOXE.E.m.< J.J.zX9X).).aXdXVXVXVXVXMX9X9X8XE 9XxXxX9XfX,X*XpXdX~., L.sXBXVXVXdXsXP aXaXaXsXsXdXaXsXpX<X1XgXbXVXZX~.G G N.P.6X",
"P.P.R.T.Y.B A J.sXsXL.).).S.B ).`.7X9X8X8X8X8X8X_.M `.7X7XY.I.I.l ; F.[.MXVXMX9X8X7X8XaXaXaXaXsXdXaXN.gX<X<X<XgXbXNXY.S K.pXkXvX",
"S.G A G.V.- N.5XzX].).).A.k g S Z T T L T T aX9X_.(.R (._.'.L.A q 4 p dXBXMXsXT `.7X7X8X8XaXaXdXdXf u <X<XgX:X<X1XfXS.G hXkXvXlX",
"fXzX3X: > < M.~.~.Z.K K S j z z l c L T T T R R (.(.E (.E R u 0 <.q 0 dX7X7XE _.7X8XaXdXdXdXdX`.x.= & $X<X<X<X<XgXE.B 6XkXvXlXbX",
"zXfXfX5X& d.s B m.C D k , l g z l b.'./.T T R R R R 8X8X(.T V $ 2.M Z.8X(.E _._.`.`.`.R T T T S.m.% % G <XgX<X<XY.- N.,XhXkXlXlX",
"fXfX6XOXv A G % & L ].9XsX8XN.l A.'.'.).I Y 8 r r x r 8 3 r $ P <.$ S E R R R (._.(.(.R T T T k.=   3 & S -XJ.d 5 & J.E. X@X@X,X",
"6XOXY.R.~.5XM.5 /.`.zXzXzXzX`.4 h !.'./.A.x 3 8 = a 0 6 5 k F.N <.$ B 9 J R T L S.L L L s k.k.b ; = & & & W.e 1 Z m.Y.+X|.@X#X6X",
"*XR.Y.K.S w A k ).).].zXzX_.V 6 8 c )./.a 3 <.r.e.7.7.3.N 0 F.N <.) M F , 1 j.Y.Y.l.V.C.J.g e b x.B.W.I.U.W.Q.Q.B.> s S.C.S.: 5 ",
"V H u 7 0 A.D.Z.).).].sXU 8 r r r r t 3.7.7.q.w.7.7.7.t.y.u.u.r.<.<.y.y.t.t.8.qX%Xf.g q 0 r 7 ; g.* l & p b.s.D.k.; V S.F.S & 5 ",
"8 r r t c F./.A.K K G C 5 8 t t t 5.6.t.a.eXeXeXy.e.7.@.| t.t.t.$ ) 5.5.7.e.e.e.e.6.w.M 8 7 & b 1 % d.b C.D.b.s.n.*X,X:XhXkX%X7 ",
"t t i h A./.F.A./.c r 7 5 0 t 4.wXwXeXwXeXeXeXeXeXeXe.e.e.%.@ Q $ # [ $.@.#.;.e.e.e.e.e.w.P j.x.d.- x.W.Q.Q.W.h.S.,XhXlXhXhXjX5X",
"i i i a /.F.K z K A.j r r 4 5.eXwXtXKXtXeXeXeXrXeXeXe.e.e.e.e.e.t.` W ( X.o.o.o.&.:.w.e.e.e.e.k.k.2 W.#XQ.Q.Q.Q.P.@XhXhXlXhXhXkX",
"h i h h /./.c c z K j i r ,.wXwXJXPXFXyXeXeXeXeXy.e.e.e.e.e.e.e.e.e.e.7.e.,.=.=.&.&.=.&.o.:.e.q.c.n W.iXQ.W.Q.W.J.J.E.hXkXlXkXhX",
"w t h h h k k k x i i t ,.t.wXuXPXyXuXrXeXeXe.e.e.e.e.e.e.e.e.e.e.e.t.e.e.e.e.w.=.=.=.=.=.#.-.q.5.: I.pXiXW.c.c.c.c.z.fXhXhXhXL.",
"t u G K.N.u y r w 0 i <.6.wXwXHXuXuXyXwXeXwXe.e.e.e.e.t.p.y.e.e.e.e.e.e.e.e.e.e.e.&.-.=.=.&.&.=.:.6.N.W.iXiXI.c.c.g.Z.$XpX-XF.a ",
"j *X1X1X1X-XS 5 5 8 i 5.7.wXuXuXuXuXeXyXwXt.w.e.e.y.uXuXtXu.t.e.e.t.e.e.e.u.e.e.q.t.t.=.=.=.r.#.=.6.<.l I.+XW.c.c.v.Z.A.A.A.K a ",
"OX,XhXlXlXjX,XG 6 0 N w.tXJXuXuXuXeXeXeXa.7.e.e.a.yXyXO + @ @ q.e.e.e.e.e.e.e.e.[ + @ t.=.=.=.+.X.X.w.5 8 ; s 1 = h A.A.A.A.c x ",
",X,XlXmXbXlX,X&Xr w 5.w.GXrXeXeXa.eXeXeXe.w.w.e.yXtX0XFXHXHXFX~ e.e.e.e.e.e.:.DXFXHXHX+ e.=.=.;.X.X.q.2.Z.s & 7 5 w A.A./.A.a z ",
"oXXXkXvXbXbXhX;Xu 5 7.e.eXeXeXeXeXeXeX7.e.e.e.e.yXFXLXLXLXLXLXFXe.,.e.e.e.e.HXKXLXPXLXJX@ =.-.#.X.X.X.6.A.Z.f g V 3 h K x h F J.",
":XXX,XkXmXbXkXXXG x 7.e.eXeXeXeXeXeXt.e.e.e.e.7.DXLXLXLXLXAX+ LXq.,.e.e.e.w.KX+ PXPXLXLXSX=.=.=.o.X.X.q.F.Z.S.%X%XK t s t m.#X;X",
"XXXX&X&X,XkXfXXXC.x e.e.e.eXeXeXeXe.e.e.e.e.e.5.FXLXLXLXLXAX+ LXq.q.e.e.q.DX9.+ 9.PXLXJXHX=.=.#.X.X.X.6.D.Z P.%X%X%XZ s v R.-X&X",
"P.XXXXXX&XXXXXXXN.P e.e.e.e.e.w.e.e.e.e.e.w.5.5.u.LXLXLXLX+ + JXq.e.e.e.q.tX0X+ LXLXLXHXtX=.=.&.+.X.X.e.2.B J.%X%X%XK.u f.+X#X-X",
"S. X X@X@X X X@XL P e.u.e.e.e.e.e.q.q.e.q.q.q.-.,.DXLXLXLX9.X HXe.e.e.e.e.e.LXPXPXKXHXHX#.=.#.#.#...} e.1.V G.%X%X@XP.< f. X&X;X",
"K Y.+X+X{. X{.{.V P e.e.e.e.e.e.e.,.,.,.,.,.,.,.>.*.t.FXHXHXHXu.e.e.e.e.e.e.u.HXHXHXHX;.;.=.#.#.@...| e.1.< m OX%X%XP.v m  X;X#X",
"r u R.+XOX|. X&X-X=Xe.e.e.e.e.e.e.,.,.,.,.,.,.>.,.+ o ^  .;.r.=.-.-.>.,.7.e.e.,.*.*.*.#.#.#.#.#.X. .{ 7.1.1 m m +X%XP.v m R.$X&X",
"1 % , H.M.K.-X-X:X:Xe.t.e.e.e.e.e.,.,.,.,.,.,.>.>.X X X X FXLXPXLXLXKXKXKXPXHX. . . o ;.#.#.#.@...} { e.<.G B m f.J.F 9 v f.H.G.",
"T.= , , 9 R.{.;X:X,Xe.e.e.e.tXe.e.,.,.,.,.,.>.,.>.o o o o o + o o o . . . o o o o . + %.#.#.X... .{ ] e.V B v : 9 * : : * : : * ",
":X2 2 ; G E.oX-X,X:Xq.e.e.e.e.e.,.,.>.,.>.,.>.>.>.! o o o o o o o O o o o o o + o o ~ #.@.X. .| | { #.e.B v v v * : : * G.XX XY.",
";XT.c.c.R.R.{.,X<X,Xw.e.e.e.e.q.,.>.,.>.>.>.>.>.:.,.o o o o o o o o o . o o o o O o #.+..... .| | ( e.e.G.F V B 9 v F J.}.;XXX.X",
"V.< f.- B G.R.E.R.|.=Xq.q.,.5.,.>.,.>.>.>.>.:.>.:.:.o o o o o o o O o o o o o o O ! @..... .| | ( ( e.q.*X*Xm B : - : f.T..X.X;X",
"& = 1 6 6 w s S D D u >.>.>.>.-.>.>.-.>.>.>.-.-.-.=.O.X o ! ) @ o o o o o o o o X #..... .| | ] ( ( 7.i.=XfXF : *     9 v f.Y. X",
"6 = 2 p g s w 7 w w 7 -.>.>.>.>.>.*.-.-.-.-.:.-.=.-.-._ %.r.%.$._ ! ~ @ o X X o _ @. . . .( ( ( ( %.7.6X6X%X: - 5 * 5 5 * v m E.",
"6 & B.U.I.k.v.t r q 5 6 -.*.>.>.-.-.-.-.-.-.-.-.=.=.=.-.r.u.%.%.%.$.3.! @ X X @ #. .| | | ] ( / / 7.6.*X6XV % : : : > 5 5   - : ",
"6 - J.!.~.!.V.b r 0 6 & -.>.-.-.-.-.-.-.&.=.=.=.=.=.o.=.#.@ u.t.3.3.$.$.! ! ! @.O.O.| ] ( ( / / ..7.G.L L K.K.G : < < w   5   5 ",
"5 ; C.~.^.!.!.B.0 p Z g.g.*.-.:.-.=.=.=.&.=.=.=.=.=.&.o.#.#.;.3.t.t.$._ ~ %.O.O.| | ] ' _ / / / 7.6.u ].5X5X$X5XF , > -     G *X",
"6 e B.!.'.^.!.h.1 j.z.H.V.1.=.u.-.=.&.#.+.+.+.o.&.#.#.o.#.#.#.@.%.@.%.@.O.O.O.O.O.] ' / / / / $.5.+X3X5X5X5X5X4XG.< y 5 5 K.lXCX",
"g b.v.m.!.!.m., j..X;X|.k.I.o.&.+.#.#.@.X.X.+.+.o.o.#.#.r.#.@.@.+.+.O.O.O.O.| O.[ ] ' / / ^ / 7.2.H `.5X4X3X3X].M.v.6 5 V lXZXZX",
"b.n.b.l , u & & c.;X;X;XJ.U.~.#.+.#.#.+... .+.....@.X...@...@.@.O.O.O.O.O.| | ] ' ' ^ ^ ^ ^ 5.5.Y.C H N.K.C.C.J.m.m < 5 &XjX2XCX",
"C b.b.A e 3 5 5 v.Y.Q.E.j.V.j.b o.X.X... . .|  . . . . . .|  .......O.] [ ' ] ' / ^ ^ ^ ^ %.w.g +XD i S H.J.^.-XC.d.l & jXjXjXjX",
"s n.n.n.k B B 6 - v.j.k.j.j.b b m X.X. .O.| | | | ] | ] ] ] ] O.| ] [ ' ' / / ^ ^ ~ _ ~ / w.+X#X#XG H Z.I.C.C.-X^.Z v v jXjXjXjX",
"0 j A v.Y.|.#XY.- r G F.A = , j.j.b ..| | ] | ] ] ] ' ' ' ( / ' _ / _ ^ ^ ^ ^ ^ ^ ~ ~ / q.-X-X:X:XpXK S C.Z.b.n.m.b 1 * hXjXjXlX",
"t 8 w N.#X@X@XXXL.K /.A.s % b j.k.d.N.| ] ' ( / / ' ( ( ( ^ ~ ^ ~ ^ ^ ^ ~ ^ ^ / ^ ~ ] 4.m.R.E.Q.-X-XL.j D D Z.A Z n ,   R.jXjXjX",
"i 4 5 E.#X#X X.X XG.r t ; % d.j.k.C.C.S.J ( / / ^ ^ ~ ~ Q Q W 0.a.a.u.[ ~ ~ ~ ^ ^ t.J.M.m H.J.J.U.-X~.y x K n.Z n v * * * B K.P.",
"x 8 u -X-XoX X.X X Xu & 1 & I.j.z.Y.F.Z.H S.K.3.rX0.0.i.0.# 9 s j 9 + @ @ ^ %.2.$XJ.H.l.A g.H.U.^.$XG.y h D D C v - 9 9 - G P.OX",
"I 3 f :X,XoXoX X X XK.> n v.H.{.Q.E.F.L.L.F.S.S.K.G.G B 9 i d h u - d.m.d.b M.OX%XR.l.H.A d K.$X[.S.B v H d r 9 9 : : V m P.OX3X",
"x L.;X:X,XoX#X X X XH.j.H.= & H.^.Y.!.L.L.L.L.G 7 8 w j u y w 7 8 s m.d.v.n V.@X%XOXl.l.V.> % u - D G G < M V y 7 5 7 D m P OXOX",
"Y.:X;X:X,XoX X.X.XE.& M.& %   3 S.P.!.L.!.L.!.'.G j i h B g e r 8 u B.M.b 2 g.OX%X%Xl.l.l.v * v -X<XjXjX1XI.b l d 5 5 g F N.OXP.",
";X:X:X:X;X X X X+Xd v d.: - % 3 L.P.].[.[.3X4X4XS.7 e C.U.j.v.8 8 w m.B.m.A d.Y.%X%XY.l.l.v V hXnXjXnXjXjX2XE.b v.e 3 w A m G.P.",
";X>X:XoXE.}.@XJ.r w H.g.V.C.Z & K.!.$X4X5X4X3X3XS.7 N.Y.U.V.g.u r 8 C m.B.B.g.j.OX%XY.l.j.= @XmXmXmXjXCXlX2X2XW.d.l 6 6 w G m G.",
"}.}.{.T.R.T.J.5 & M.< g.$X%XY.n A L.].3X^.].~.L.H g Y.U.U.V.m.s 7 r 8 C B.C.m.g n I.l.f.: < +XhXlXmXmXmXjX2X2X1X-XL.6 0 i y B V ",
"V.T.R.T.T.E.M.0 m., > g.^.%X5XL.u F.P.L.`.P.L.H u G !.U.T.U.m.s 8 r w 7 0 r 6 5 6 y < d.v R.{.{.XX2X2X2X2X2X2X1XE.m.w x H j w u ",
"m.A F G.G.B B H., & & v.M.^.%X+X: t K L Z.H i i i C.!.U.~.3Xg.u B V.l.l.m.> 8 8 6 < < - * {.{.{.>X>X>X>X>X>X>X:XC l j j j H w 7 ",
"= & w e & > 1 v.g.d.0 q m M.^.Y.w 6 8 5 5 r r i i G P.U.~.[.f.f.J.J.l.l.l.l.B w v f.n : - f.{.{.{.XXoX>X}.}.,XH.C , x j j x u H ",
"g g.g.g.g.; = m.g.V.m.& q l S s 3 5 5 5 8 w r 0 8 w S.L.L.n.N.|.#Xz.l.l.l.j.f.m < M.l.G.l.f.l.T.{.{.{.{.{.E.H.s s h x x k c T /."
};
