/* XPM */
static char *out[] = {
/* columns rows colors chars-per-pixel */
"64 64 256 2 ",
"   c #253F22",
".  c #671C13",
"X  c #582919",
"o  c #6B281C",
"O  c #793527",
"+  c #1D491C",
"@  c #1F541D",
"#  c #244B1D",
"$  c #28491C",
"%  c #26551B",
"&  c #2B531D",
"*  c #2C5B1D",
"=  c #36591B",
"-  c #345C1C",
";  c #34621D",
":  c #3A641C",
">  c #3C6B1C",
",  c #3E751E",
"<  c #1D4422",
"1  c #1E4A22",
"2  c #224524",
"3  c #244B24",
"4  c #2A4D24",
"5  c #264B29",
"6  c #294C29",
"7  c #265224",
"8  c #265725",
"9  c #2B5324",
"0  c #2B5A23",
"q  c #2B532A",
"w  c #2C592A",
"e  c #355726",
"r  c #335C25",
"t  c #355029",
"y  c #325C2B",
"u  c #2B6526",
"i  c #356323",
"p  c #3A6424",
"a  c #336B27",
"s  c #3B6B23",
"d  c #34632C",
"f  c #3A642C",
"g  c #3B6B2C",
"h  c #3D7224",
"j  c #3A7728",
"k  c #3C742B",
"l  c #396932",
"z  c #3E7733",
"x  c #424A1A",
"c  c #466C1D",
"v  c #47781C",
"b  c #447B1D",
"n  c #557C1C",
"m  c #4B552D",
"M  c #6C522E",
"N  c #794837",
"B  c #436B23",
"V  c #456B29",
"C  c #437424",
"Z  c #457A23",
"A  c #4B7D23",
"S  c #42742B",
"D  c #4B7729",
"F  c #457B2B",
"G  c #537B27",
"H  c #4D7233",
"J  c #467834",
"K  c #6F6C31",
"L  c #3F7541",
"P  c #557446",
"I  c #821F1B",
"U  c #8B3528",
"Y  c #AB342C",
"T  c #D21E1F",
"R  c #D51E20",
"E  c #CA2F2A",
"W  c #D42322",
"Q  c #D62B28",
"!  c #D4332C",
"~  c #D9332E",
"^  c #CA3B33",
"/  c #D73833",
"(  c #D53C34",
")  c #D93B34",
"_  c #904B32",
"`  c #B14E39",
"'  c #8F6833",
"]  c #AD643B",
"[  c #C9473A",
"{  c #D54137",
"}  c #DA4036",
"|  c #D4443A",
" . c #D9433B",
".. c #D54A3D",
"X. c #D94A3E",
"o. c #8D5848",
"O. c #B75A49",
"+. c #926D50",
"@. c #B56D4B",
"#. c #947764",
"$. c #AC7766",
"%. c #CB4D42",
"&. c #D54C41",
"*. c #DA4D41",
"=. c #CC5748",
"-. c #DA5145",
";. c #D75548",
":. c #DC5B4D",
">. c #DC5F51",
",. c #E05C4F",
"<. c #C96757",
"1. c #CA6F52",
"2. c #D76657",
"3. c #DC6454",
"4. c #DD6B5B",
"5. c #E16556",
"6. c #E16C5D",
"7. c #DC7364",
"8. c #D37769",
"9. c #E36F62",
"0. c #E37363",
"q. c #E17D6B",
"w. c #3F852C",
"e. c #46841B",
"r. c #4D851D",
"t. c #57861C",
"y. c #538C1D",
"u. c #46941A",
"i. c #5C951D",
"p. c #579B1D",
"a. c #64961D",
"s. c #659B1E",
"d. c #59A21D",
"f. c #66A51E",
"g. c #4B8223",
"h. c #478528",
"j. c #4B822B",
"k. c #548C23",
"l. c #5B8D24",
"z. c #578628",
"x. c #559223",
"c. c #5C9323",
"v. c #5A9727",
"b. c #4C8537",
"n. c #558937",
"m. c #4F9733",
"M. c #599538",
"N. c #638C28",
"B. c #639423",
"V. c #649A23",
"C. c #689829",
"Z. c #6C9D2C",
"A. c #70992A",
"S. c #658939",
"D. c #689A37",
"F. c #759A35",
"G. c #5AA222",
"H. c #6AA425",
"J. c #6DA32C",
"K. c #77A728",
"L. c #74A42B",
"P. c #7AA52B",
"I. c #7CAA2B",
"U. c #6FB129",
"Y. c #77B428",
"T. c #6AA537",
"R. c #77A836",
"E. c #7DB438",
"W. c #508C43",
"Q. c #649843",
"!. c #759348",
"~. c #68A342",
"^. c #7AA744",
"/. c #7BB545",
"(. c #9A8D3D",
"). c #83AC27",
"_. c #85B32C",
"`. c #8BB62E",
"'. c #8CBA2D",
"]. c #93BB2D",
"[. c #82AB35",
"{. c #90AA3C",
"}. c #83B233",
"|. c #8CB534",
" X c #8BBA33",
".X c #87B63C",
"XX c #8BB43A",
"oX c #93BB33",
"OX c #96BC3A",
"+X c #94C732",
"@X c #97C537",
"#X c #9DCA34",
"$X c #A4CB3A",
"%X c #A3CE3C",
"&X c #AED633",
"*X c #A9D43A",
"=X c #8F8856",
"-X c #B49E4C",
";X c #86B545",
":X c #8AB444",
">X c #89B24F",
",X c #98BC43",
"<X c #918E65",
"1X c #9C9973",
"2X c #A89678",
"3X c #9BAC6D",
"4X c #A5A57D",
"5X c #B0AB70",
"6X c #D18F79",
"7X c #E1806F",
"8X c #E38675",
"9X c #E48E7B",
"0X c #E4917E",
"qX c #8CC54A",
"wX c #99C547",
"eX c #9AC655",
"rX c #A7CA46",
"tX c #A8D245",
"yX c #ADD345",
"uX c #B5DC45",
"iX c #B2D54B",
"pX c #B5D94A",
"aX c #A5CA58",
"sX c #ABD257",
"dX c #ACD15C",
"fX c #B5D552",
"gX c #B5D758",
"hX c #BAE14E",
"jX c #BBE153",
"kX c #B3CD62",
"lX c #B6D561",
"zX c #BFE265",
"xX c #C6E75A",
"cX c #C5E668",
"vX c #B09B92",
"bX c #ABA983",
"nX c #B9B496",
"mX c #D0998C",
"MX c #E68E80",
"NX c #E49583",
"BX c #E59B89",
"VX c #CEA79A",
"CX c #E5A08E",
"ZX c #E7A797",
"AX c #D3B8B1",
"SX c #EBB4A7",
"DX c #BDC191",
"FX c #CFC4AD",
"GX c #DAC4B0",
"HX c #DFD3CE",
"JX c #E8CEC7",
"KX c #E9DAD5",
"LX c #F1E2DB",
"PX c #F3ECE9",
"IX c #F9F5F3",
"UX c #FFFEFD",
/* pixels */
"7 5 q P T.D.j.C i i * # 8 8 0 0 8 d d l q w H D {.rXiXfXfXfXOXoXG * k eXdXdXeXn.a u 0 0 8 @ u d., , s.K.P.P.P.K.a 5 k T.m.w.w.a ",
"@ l J 0 > j.j.j.s i i # 7 * 8 0 q w l w 5 q V D |.iXfXiXfXfXOXOXH.8 >XaXdXdXdX>Xa j a 8 8 + @ u.* p.H.P.|.wXP.A.a 7 # k w.j 0 5 ",
"z 3XH 9 i j.j.j.s s g.r + 0 0 0 6 y J z 5 q f D XXiXfXfXfXfXOXoXE.0 J.B.;XdXdXqXS j j % + * h.d.b i.).wXsXaXP.z.u 2 3 8 8 d u z ",
"dXsXXXN.f S j.F s C Z Z i 9 w q z T.T.T.J q 6 y A.rXfXfXfXfXrXoX}.: B.V.E.aXqX/.j j j g.0 i _.+Xk.r.Z.}.}.K.g.* u a a a u u 0 8 ",
"lXlXgX,XF.9 s s S h h s g q q 7 D.~.T.~.D.9 5 2 t XX@XrXrXrX@XoXI.Z v.J.eXeX/./.j a a p.g.* G.h.< + 7 d s * a a u 7 7 1 8 q 5 1 ",
"kXlXlXdX[.G & i C C F D f q q q j.n.M.T.T.6 5 2 2 D |.OXoXoXoX Xz.F V.qXaX/./.m.j h k.x.e.b p.@ < < < 2 u l 7 < < 2 < q u u u u ",
"gXlXkXkX[.A.# s G >XsXaXQ.q q q l F j.M.J 5 5 5 4 3 i C._.XXP.c.; j qXeXqX/.~.w.h.p.p.x.@ + e.@ 1 j e.u.h.# + + < < < q u u u u ",
"kXlXgXkX[.K.r p eXlXdXgXdXP q 5 q q y p # 3 6 6 4 H D A Z c 0 9 y.c.E.;XT.m.w.w.x.p.v.v.G., , % v.v.v.d.d.v.n.F.H 2 5 1 u u u u ",
"lXdXkXrXP.P.& D Z.P.dXdXdX^.i g F M.M.l < 3 3 q >XfXfXrXrX@X[.i e.x.@ j b.m.Q.>XbXbXbX1XbXbXFXDXd.v.G.G.@XiXjXzXjX[.2 2 q u u u ",
"dXdXaX[.I.Z.* z.C.[.kXaX>X^.Z k C j M.T.g < 3 D.fXrXrXrXrXrXrXXXz.wX0 0 /.eX3X4XbXbX1XbXbXbXnXlX+XG.p.@XtXiXzXcXcXlXV V D y q 8 ",
"[.,X[.I.I.k.; C.Z.aXeXQ.Q.Q.F F F F j T.D.8 1 !.rXrXrX$XrX,XOXwXeX~.; Q.eXeX1X4XbXbX1X<X1XbXDXtX*Xb b %XtX%XyXgXzXzXR.D J z.F.,X",
"F.P.K.L.L.B A C.wX,XQ.Q.Q.b.h F F S k M.~.l q J fXrXrX|.K.L.H.H.j M <XR.eX3X1X1X1X1XbXbXnXDXdX*X*Xs B wX%XtX%XtXgXzXR.S F.wXyXgX",
"n.j.G l.c.& z.:XaX^.Q.Q.b.V g h z h.F M.Q.L 9 9 ;X|.L.A.J.J.Z.Z & M #.=X^.<X1X<X#.1XbXnXFXnXY.+X#Xp e %X#XtX%X%X*XtXG z.rXpXfXpX",
"aXrX[.e - ; l.R.T.n.J F S d g k j j F ~.W.W.t 6   G L.H.J.z.r 3 t O O X x K +.<X<XbXbXnXFX/.d.G.d.% # @XtX#X%X%XtXI.f ,XpXfXjXpX",
"rXaXaX:X# t.i B l.C F g i C h k j b.~.~.W.L q # 2 3 - p 9 2 g n.K o.M 4 d P 2X<X1XbXnXFX!.G.d.G.k.+ < D %XtX%X%XL.9 G $XyXrXiXpX",
"sXrXOX[.B A G # 3 H >X>XeX>Xz.s b.~.~.W.W.W.5 3 3 2 3 2 1 0 D.D.K N m < q Z <X3X1XbXDX/.L p.d.u.& < < # S @XC.f # # Z._.|.|.|.$X",
",X[.P.K.P.:Xl.< W.^.3XaXkXaX~.2 l ~.~.b.W.l 1 5 4 y 3 < 2 d D.D.M M = # 3 b B.N.F.D.B.g.% x.p.e.* % # # + Y.* > g.k.K._.}. X|.wX",
"OXP.K.S.S 0 A l Q.Q.;XaXeX!.V 5 5 J Q.L l < 1 M ' O.] ` U M S.Z.M M l.G ; C i.L.C.c.c.C.H.> w , d.x.H.J.J.I.Y.U.x.* - n.M.z.= $ ",
"V V y 6 8 J m.b.Q.Q.^.,XH 5 6 q 0 w q 2 m $.8.:.)  .) / ( ^ E ^ U M N.t.r.- i.:XXXi.V q 7 6 4 = y.# g.+ u j.h.m.p.* V n.n.S #   ",
"4 6 q w z M.W.n.J J b.C < 5 w w q q f vXZX8X%.( / *.*.| ^ ^ Y Y o U [ ` %.%.O.=.@.] K m 6 7 % b >   e.Z m.m.h.w.j.OX$X%XyXiX.X3 ",
"y w w d W.W.M.b.W.z q 5 2 6 q q w m VXVXvX>.| *.5.5.5.5.&.[ Y . . I Y Y O.>.2.2.2.8.7X0X6X=XB.d.r.% d.Y.Y.Y.U.u.S.$XyXyXuXyXyX:X",
"y y d d W.M.J k b.J l t q 2 q q y q.$.m <.&.*.>.6.>.6.>.,.;.^ Y . . ` ..4.q.NXNXNXNXNXNX0XBXCX5Xf.c U.E.Y.Y.Y.Y.C.|.yXuXyXpXyXpX",
"y d u d n.W.J z S J l y q 5 5 t 8.+.K 2.,. .*.,.6.9.9.6.>.>.,.,.,.,.:.3.q.8XNXNXNXNXNXNX0XNXZXSX5XC U.wXY.U.U.U.Z.V.I.tXyXuXiXyX",
"9 w d d d l k l l y y q 2 2 2 +.8.S.%.&.) )  .*.>.5.9.9.9.9.9.9.3.5.5.0.9XBXBXBXNXNXNXNX0X0XZXSXSX<XH.qX+XU.f.f.f.s.V.rXiXyXiXD.",
"q r z.N.z.r e q 6 7 y 5 2 2 m 8X(.] | / )  .} *.,.9.9.6.9.9.7.7.0.0.0.0.0XZXBXBXNX9X0X9X9X9XBXZXSXVXS.I.qXqXH.f.f.y.b.}.wXwXn.u ",
"f OX*X*X&XOXD < 2 7 y 5 2 2 U | K | { ~ ~ ) } *.-.,.6.6.9.4.9.4.6.6.6.0.9X0X9X9XMX9X9X9X9X9XNXBXZXZX<XC H.E.U.f.f.h.b.W.b.b.b.u ",
"[.&XiXpXpXiX$XG 2 6 6 6 2 t ^ ^ [ { ( ! ~ )  . .-.5.6.6.9.4.4.2.3.2.3.0.0.0.8X8X8X8X8X9X9X9X9XNXCXZXmX6 3 * : s & d b.b.W.b.z l ",
"@X$XpXgXjXfX$XoXw q 5 2 2 m &...^ ( ( / ~ *.*.) :.,.5.6.5.5.4.>.3.3.3.4.2.;.:.0.7X8X8X8X8X8X8X9XBXBXCX!.j.i 3 3 2 q b.b.b.W.u j ",
"oX].pXfXjXfXyX].r 2 q < 2 N &...! { (  .*.*.*.:.5.:.>.4.3.>.=.O.VXHXHXPXHXvXO _ _ =.0.q.7X7X7X8X9XNXBX<Xn.b.a V V < d J l d g.Z.",
"OX].OXfXgXjXfX].G d d d 6 _ &.| { ( / / *.*.*.*.:.,.3.<._ N 2XKXIXUXUXUXUXUXHXo.O O ` ,.4.0.0.7X8XNXBX5Xn.b.z..X.XH w i w z.|.+X",
"].].oXoXrXfX$X].M.l S k l O.*. .( ) ! ~ ) *.:.:.6.3.O.N N vXJXIXUXUXUXUXUXUXUXAXN X . ` :.:.3.0.7X0XNX6XM.G F.XXXXXXS f C P.+X X",
"[.`.].].].oX].`.z.S J z J <.*.) ! ( / ) *.*.:.,.6.4._ o.o.GXPXPXUXUXUXUXUXPXUXIX$.O X _ X.:.:.4.7XBXmX6XJ c Z.XX|.XXC.: n I.OX+X",
"M.|.`.|.`.`.`.|.F k j z S 9.*./ ( ) )  .X.;.3.5.4.@.o.o.$.KXPXvXPXUXUXUXIXvXIXUXvXO X o [ ;.=.3.3.8X0X6Xl C N.XXXXXXF.: t.`.+XoX",
"J A.}.}._._._.).k j z z l <.*. ./ ( / / X.-.;.:.5.=.o.+.VXPXIXUXUXUXUXUXUXUXUXUXHXO X o [ ;...=.1.7.9.-Xw : n ).XXXXF.c n `.+XoX",
"w - I.[._.[._.].@X@X.XZ.9 <.-. .) ( Q E | X.-.&.>.2.N o.AXPXUXUXIXAXAXnXLXUXUXUXKX_ X U [ =.=.>.2.4.>.o.7 V n t.}.XXF.c t.A. X X",
"> + : B.G A.@X$X#X#X#X#XR.O.*. .( / W Q ( { ....-.3.` o.JXIXUXUXUXUXIXIXPXIXUXUXPXo.X _ [ ....:.2.2.2.N s G c n t.C.G $ c t.C.N.",
"K.% ; * t P.).oX$X#X#X@X#X] ;.{  .! T W Q ! { ..*.*.:.o.JXPXUXUXUXIXLXHXKXHXPXIXLXo._ | [ ....=.2.2.2.M B B c x = $ = = $ = = $ ",
"#X, v * G ).`.@X$X#X#X#X#X+.&.} ( Q W T T Q ^ { *.*.*.,.8XJXIXUXUXKXKXKXPXKXHXHXJXmX*.....;.;.>.2.2.2.K B B c c $ e = & N.].].A.",
"+XL.f.H.P.P.`.@X%X$X@X#XOX!.*.) ! Q W T T W ! { } X.*.-.:.>.q.VXAXAXVXAXJXVX$.2.<.JX7.=...=.;.2.2.3.<.G N.G B B t c n C.'.'.].].",
"c.: t.& B B.F.).K._.oXXXS.Q...( ! E W T R W E ! )  .-.-.*.*.&.X.*.*.&.%.| *.&.&.| SXGX1.X.:.:.3.3.4.1.@X$X,Xc B = $ = t.K. X'.+X",
"# % > 2 5 7 - D D D p V S.n.`  .( W W R W W Q ~ ( } ..*.X.| X.X.*.*.*.:.X.X.| | { 8.9X2.:.3.>.3.4.5.-X,XOXrXn = $     4 c n K.`.",
"2 % , u s a 7 5 7 9 2 3 6 l M | ! Q ~ W W W Q ~ ( { { { { | *.X. .*.*.*.X.X.| | { *.:.>.3.3.3.4.4.6.-XrX,X{.= &   $ 2 2 4 c n [.",
"5 # x.J.H.p.k.9 q 9 3 2 6 y m X.( Q / ~ Q Q Q ! ^ / | X...X. .X.*.*.*.X.X.&.....X.;.:.3.3.3.3.4.4.<.,X,X,XD $ = = = - 2   < & = ",
"3 * v.R.E.T.x.b q 7 2 # 6 0 l ` ( / / / ~ Q Q Q ( (  .X.*.*.X.*.*.*.X...*.X.[ [ %.=.:.4.4.4.4.9.7.+.S.G G S.S.D = : : 9 < <   # ",
"2 * v.R.R.R.T.x.8 i b y.y.b f m &./ ) ) ~ W Q ~ ! { *.-.-.-.-.*.X.| |  .{ | [ | %.3.4.7.4.4.0.7.1.F.r ;X:X:XXX;XD = : # <   G oX",
"3 0 x.T.~.E.T.e.; i.s.c.c.c.B.h._ *. .) ~ ~ Q ~ / } -.-.-.-.*.-... .{ ( | [ { [ ..:.4.7.0.0.7.7.=X'.;X:X:X:X:X;XN.c 9 2   S.fXxX",
"g g.g.k.T.T.x.; c.+X+X_.V.H.R.U.V =. .) ~  .Q Q Q / }  .X.*.X.X. . .( ( ( { | | ..;.7.0.4.4.7.<.F.S S.>X>X:X:XR.N.g.3 2 c uXcXcX",
"g.j.h.h ; u # # s.+X+X+XV.J.R.H.0 M &. .~ ~ ~ R Q ! / }  . .|  . .) ( ( ( { | ..%.>.4.0.7.7.1.H D.V H z.v.N.M.C.z.r.- # OXuXhXhX",
"Z h.j.g.0 < 2 2 g.K.Y.I.i.c.s.b : > M [ { ! Q Q Q ! / ( { }  .} { | { / | X.X.X.;.;.:.3.<.1.K g }.J y D B.C.E.@Xv.A b 3 uXuXuXuX",
"r j.j.h.g s B 3 3 A i.s.i.i.b b e.v v M ` E ! Q ! (  .|  . .| { ^ ^ { } X.X.-.-.X...[ ` ] ' .X|.|.G l j.H.l.v.@XE.b c p uXuXuXuX",
"7 f A j.L.`.`.R.& q b.n.g.% - i.i.b e.s S.] ` ^  .*.*.*.X.| Y U O . I Y [ [ ( ( [ ` ` _ G @X@X#X#XwXJ S V.b.h.j.k.b > $ yXuXuXuX",
"w 5 e g. X'.|.`.Z.J b.W.i + , i.p.e.k.n.n.~.OX-X1.] 1.O.+.' K K t x x n _ _ _ U _ K n v t.P.K._.@X@XD.f F J j.A Z v ;   P.uXuXuX",
"y 1 3 I.oX X`.].'.N.w q * + r.i.i.v.M.n.J Q.}.OX#X'.P.i.r.- J J 6 9 r.r.k.r.c v s.s.A.t.t.B.V.V.J.wXL.y l J F A v c $ $ $ B F.F.",
"l 5 0 +X@X].`.'.`.`.r 2 , + H.a.s.I.M.j.J n.~.XX@X'.P.N.p 9 9 i y B r.y.r.r.e.K.].s.a.a.D t.c.J.E.+XN.t d D F v > = t t & G S.:X",
"L < s #X$XoX].`.`.`.C.= v A B.Y.Y.K.M.D.D.M.z.n.N.N.G B r f p f r & r.y.g.b N.[.|.A.a.A.Z p D.E./.z.B D V V 6 t t x t c n A.F.{.",
"l D.+X#X#X]. X`.`.'.N.i.B.& $ a.E.T.T.D.D.D.D.n.4 4 9 s s q 5 7 5 0 k.k.r.b c.|.XX[.a.a.B.- $ e # D G H r V m r 6 3 t c n S.[.[.",
"H.+X#X#X#X].`.'.'.I.# N.# + < 2 n.F.D.D.T.T.R.Q.G p r r S > 0 6 6 i i.k.Z b y.I.XXXXs.a.a.v 2 B @X%X*XhX*XK.b h i 2 2 s n z.[.F.",
"#X#X#X#X@X`.].'.}.p c e.% & + < D.T..XR.^.;X;X;Xn.6 y M.Z.i.g.q q 3 k.l.k.Z Z L.{.XXA.s.a.c D yXpXhXhXhXuX&XI.Z e.0 3 7 D n N.F.",
"#X#X#X].I._.'.B.t 7 c.y.c.c.D # D.F.;X;X;X;X;X^.n.4 l.J.J.i.y.w 6 4 C k.x.x.x.i.[.XXH.a.i.% |.pXjXjXhXjXhX&X&XU.g.C 1 5 = V n N.",
"_.'.).P.K.K.Z.2 # l.> t..X.XK.v D T.^.^.^.E.^.D.V V J.J.J.c.k.i 7 q 5 C k.v.l.s v H.a.t.% c }.yXjXjXhXhXuXuX&X&X@XT.3 3 y e B D ",
"s.K.I.K.K.P.c.7 l.- - y.E.XX:XZ.r S.D.F.D.F.Q.S w z.J.J.R.J.y.i 6 q e 4 q q 3 5 4 9 > n c ).).).'.&X&X&X&X&X&X&XR.k.9 l V l t y ",
"n v G B.N.B B N.- + % A l.E.:X[.- q D n.H H y y y n.T.J.R.;Xt.r C l.a.a.r.: 2 5 6 - c 3 % ).).).#X&X&X&X&X#X&X#Xb C f f l V 9 5 ",
"# # 8 0 # ; > g.y.r.8 9 A l.R.L.0 2 5 2 6 q y t q G T.L.R..Xr.t.V.s.a.a.a.a.C 4 c t.n = & t.).).).].].].'.).$XB.C * l f f l 0 J ",
"s k.y.y.y.% % k.y.c.k.7 % k Z i < 2 2 3 5 q q q 6 9 n.D.D.J l.[.oXs.i.a.a.a.t.n : l.i.a.t.t.a.K.).).).).).I.B.i i f l g l S P W."
};
