/* XPM */
static char *out[] = {
/* columns rows colors chars-per-pixel */
"64 64 256 2 ",
"   c #030101",
".  c #0C0505",
"X  c #180302",
"o  c #1A100F",
"O  c #191614",
"+  c #280604",
"@  c #330B06",
"#  c #2A120C",
"$  c #3A130A",
"%  c #2A1B1B",
"&  c #3A1B15",
"*  c #39231C",
"=  c #203F1F",
"-  c #1E3F23",
";  c #382B27",
":  c #44190B",
">  c #51160C",
",  c #451D14",
"<  c #6C1D10",
"1  c #482519",
"2  c #522D12",
"3  c #572818",
"4  c #632A17",
"5  c #713012",
"6  c #482A23",
"7  c #542C24",
"8  c #4C3229",
"9  c #593528",
"0  c #473A37",
"q  c #593833",
"w  c #643A29",
"e  c #753826",
"r  c #643C35",
"t  c #1D4B1C",
"y  c #244C1D",
"u  c #28481C",
"i  c #304B1E",
"p  c #2A561D",
"a  c #355B1C",
"s  c #38651C",
"d  c #3D761E",
"f  c #1E4422",
"g  c #1E4A21",
"h  c #224423",
"j  c #244B24",
"k  c #2A4D24",
"l  c #274B29",
"z  c #265224",
"x  c #2B5325",
"c  c #2B5A23",
"v  c #2B532A",
"b  c #295828",
"n  c #335925",
"m  c #35522C",
"M  c #335C2B",
"N  c #2B6526",
"B  c #356323",
"V  c #34632C",
"C  c #396928",
"Z  c #3C7425",
"A  c #3C742A",
"S  c #396832",
"D  c #3F7936",
"F  c #4E5618",
"G  c #6F4B19",
"H  c #4B701C",
"J  c #467A1D",
"K  c #515036",
"L  c #6B422E",
"P  c #78442C",
"I  c #705822",
"U  c #694437",
"Y  c #774A37",
"T  c #7B543D",
"R  c #446A26",
"E  c #427424",
"W  c #43742B",
"Q  c #487A28",
"!  c #537B26",
"~  c #466D36",
"^  c #477835",
"/  c #547534",
"(  c #6C732D",
")  c #3F7541",
"_  c #50534B",
"`  c #674843",
"'  c #754C42",
"]  c #615B4A",
"[  c #7A5547",
"{  c #795B55",
"}  c #696F54",
"|  c #706E55",
" . c #94361B",
".. c #A23C1D",
"X. c #893A26",
"o. c #943B22",
"O. c #944A2D",
"+. c #854C34",
"@. c #88543B",
"#. c #96563B",
"$. c #B0502E",
"%. c #A8583A",
"&. c #A5642A",
"*. c #C27534",
"=. c #895945",
"-. c #945C46",
";. c #835C53",
":. c #A55C45",
">. c #996349",
",. c #896458",
"<. c #996956",
"1. c #8E7255",
"2. c #A86549",
"3. c #B96847",
"4. c #A76C55",
"5. c #B66D51",
"6. c #AB7458",
"7. c #B87657",
"8. c #896A66",
"9. c #97766A",
"0. c #96746D",
"q. c #A87A68",
"w. c #B77D66",
"e. c #A37D75",
"r. c #C1714D",
"t. c #C47A58",
"y. c #C47E64",
"u. c #3F852C",
"i. c #4A871C",
"p. c #56871C",
"a. c #59981D",
"s. c #63971D",
"d. c #5AA21D",
"f. c #66A51E",
"g. c #498325",
"h. c #4B832B",
"j. c #578926",
"k. c #599625",
"l. c #4C8537",
"z. c #558937",
"x. c #4F9733",
"c. c #5A9539",
"v. c #648D29",
"b. c #679827",
"n. c #6B8F34",
"m. c #699836",
"M. c #769A34",
"N. c #5DA225",
"B. c #6AA428",
"V. c #76A529",
"C. c #7AA52B",
"Z. c #7CAA2B",
"A. c #76B427",
"S. c #6AA637",
"D. c #77A736",
"F. c #7BB432",
"G. c #5A8D42",
"H. c #659843",
"J. c #759246",
"K. c #79A646",
"L. c #7BB547",
"P. c #868826",
"I. c #83AC26",
"U. c #91A528",
"Y. c #84B32D",
"T. c #8BB62E",
"R. c #8CBA2D",
"E. c #94BC2D",
"W. c #83AB36",
"Q. c #8AB636",
"!. c #95BB36",
"~. c #C98737",
"^. c #93C732",
"/. c #98C735",
"(. c #A4CC3B",
"). c #AED633",
"_. c #A8D639",
"`. c #8A9B52",
"'. c #AB9F5C",
"]. c #8AB444",
"[. c #89B648",
"{. c #95BB44",
"}. c #90AF51",
"|. c #968E6F",
" X c #AB8E6C",
".X c #B7856A",
"XX c #A98678",
"oX c #B88977",
"OX c #B99478",
"+X c #B0AE75",
"@X c #C8864E",
"#X c #DFA453",
"$X c #C78769",
"%X c #D48B6B",
"&X c #C88B74",
"*X c #C89378",
"=X c #D09070",
"-X c #D99878",
";X c #E49D78",
":X c #CEAB7A",
">X c #E6A27C",
",X c #99C448",
"<X c #96C551",
"1X c #A6CB47",
"2X c #ABD344",
"3X c #B4D948",
"4X c #A6CA58",
"5X c #ABD15B",
"6X c #B5D651",
"7X c #B5D758",
"8X c #BBE155",
"9X c #B2C664",
"0X c #B6D561",
"qX c #BFE265",
"wX c #C9D65B",
"eX c #C5E668",
"rX c #968685",
"tX c #AC908B",
"yX c #A89588",
"uX c #BA9587",
"iX c #B59995",
"pX c #B4A793",
"aX c #B4A9A5",
"sX c #C18C84",
"dX c #C89988",
"fX c #D89C82",
"gX c #E19E81",
"hX c #CAA589",
"jX c #D8A488",
"kX c #C7A695",
"lX c #D6AB96",
"zX c #D0B595",
"xX c #D8B799",
"cX c #E5A787",
"vX c #EDB592",
"bX c #E8B598",
"nX c #C8B1A8",
"mX c #DCB8A3",
"MX c #E7BCA6",
"NX c #F1BFA1",
"BX c #DEC397",
"VX c #DDC3A5",
"CX c #D2C4BB",
"ZX c #E8C5AB",
"AX c #F3C6A8",
"SX c #E9CAB6",
"DX c #F2CCB8",
"FX c #F3D3B7",
"GX c #D7CFC9",
"HX c #DAD4CB",
"JX c #E5D6CD",
"KX c #F7D8C3",
"LX c #E6E3DB",
"PX c #F2E4DB",
"IX c #F3EEE6",
"UX c #FCFCF9",
/* pixels */
"z g v G.S.m.h.E B B p j c c c c b V V S b v R E Q.1X6X6X6X6X!.!.! x W <X5X5X4Xl.A N N c z t N d.d d s.V.V.V.C.V.N x A S.x.u.u.N ",
"z S ~ z d h.h.h.C B B y z p c c b v S b l M W / !.6X6X6X6X6X!.!.V.b [.4X5X5X5X[.N Z N c N t p i.p a.V.Z.Q.,XC.V.N j y A u.A b z ",
"C +X~ n n h.h.h.C C i.a g c c b z M ~ D l v S Q W.6X6X6X6X6X!.!.Z.p D.s.L.5X5X<XA A Z p t N g.d.J s.Z.,X6X4XC.j.N g j b b N V A ",
"5X5XQ.v.B Q l.Q C J E Q B x b b D S.S.S.^ l l n M.1X6X6X6X6X1X!.W.C k.b.Q.<X,XL.u.A Z i.c N A.^.j.i.B.F.W.V.g.p V C A N N N N b ",
"0X0X5X{.M.n C s E Z Z Z C v v v c.S.S.S.m.v l h i Q.!.(.1X2X(.!.W.Z k.B.4X<XL.L.Z N Z g.g.p N.i.f g b N C c N A N g z l z v l g ",
"0X0X0X0XI.! p B E E Q Q C v v v h.z.S.H.S.z l f h / !.'.:X-XgXgXfXfX:X:X9XL.L.x.u.d k.k.i.d d.p f f g g N A b f f f l b N N N N ",
"0X0X5X0XW.M.y R ! {.5X4XJ.m v v S ^ h.c.^ l l l K |.$X%Xy.@X%X%X-X%X=X;XcXjX}.u.g.k.d.i.t t i.t t Z i.g.i.g f u f h f v N N N N ",
"5X0X9X5XC.C.c C 4X5X5X5X5X) v v v v M C g f v 1.&X.Xr.3.3.t.y.t.$X-X%X%X-XgXgX+Xx.k.k.d.d.d d p k.k.k.d.d.k.z.n./ h f g N N N N ",
"0X5X5X,XC.V.p Q m.D.5X5X5XK.B A h.c.c.S h m e.$Xy.t.t.*.r.t.t.=X=X$X=X-X-XcX;X>X>Xz.B b.N.k.a.N.d.d.d.N.,X3X8XqX8XD.u h b c N N ",
"5X7X5XW.V.M.p j.b.D.5X4X}.K.E W Z Z x.S.~ XXy.y.r.7.7.3.7.$X%X%X-X=X@X-X-XjX-X;X;XjXn.k.d.f._._.^.x.d.^.2X3XqXqXqXqXR A W M v b ",
"W.{.W.Z.Z.j.s b.b.4X{.H.H.G.Q Q Q D A K.OXy.w.5.3.:.2.2.7.5.y.t..X$X=X=X-XfX-X;XcXfXlXM.i.A._._._.J i.2X/.2X2X7XqXeXD./ / j.M.,X",
"M.C.Z.V.V.R Q b.,X<XJ.H.H.l.A Q Q Q W |.uXe.,.-.%.O.O.#.2.7.7.7.$X$X%X&X*Xw.&Xq.<.XXsX:Xi.f._._._.B N 2X/.2X(.2X7X0XD.W M.,X2X6X",
"z./ ! j.k.y j.].4XK.H.H.z.A C A Q Q J.kXe.tX{ 7 w #.O.-.=.:.5.:.7.$X$X.X6.<.' r { iXtXjX|.a.A.^./.C a (.2X(.(.(.(.1Xj.! 1X3X6X6X",
"1X1XW.n a s v.D.D.l.^ ^ W V A A A Q pXdXe.XXiX` , r O.O.X.:.5.o.5.@X$X2.+.w 6 q iXdXfXcXbXD.d.d.d.p y !.(.(.(.(.(.D.R {.3X6X6X3X",
"1X1X4X].y i.s R p.Q Q A c W Z A D |.nXrXr , ` rX, 7 =.o.X.:.:.$.3.$X7.#.w , , 0.e.3 q e.nXpXf.d.i.f f ! (.1X(.(.C.x j.1X2X2X3X3X",
"5X1X{.Y.H ! Q g g / K.}.4X[.j.R } iXiX8.7 & * rX` , ' o...:.$.$.$.t.%.4 , & 6 iXr 6 8.e.iXiX}.a.p f f f W /.b.C y y b.Y.T.Q.Q.(.",
"{.W.V.V.D.].j.j l.K.4X9X4X4XJ.g yXpX8.q q 7 & { 8.& q X...$.$.$.$.:.o.: 1 8 [ 0.r ;.' U 8.uXlXk.N y y y t A.c s i.j.Z.Y.Y.T.Q.{.",
"!.C.V.n.W x Q C H.H.K.9X4XH.~ ~ MX9.6 6 6 q ` 0 8.7 ; r X.o.....$.o.< & 7 7 8.8.8.e 7 3 7 ;.bX Xd.a.B.B.B.A.A.A.k.c n z.c.j.a h ",
"R ~ n z v ^ x.h.G.H.K.4X) l v kXbXoXq.X.X.e 7 r ` ` & 7 ' X.......< : , ' q ,.;.Y X.2.5.7.*XvXbXM.u i.y N g.u.x.a.p W c.c.W y = ",
"l v v m D x.G.c.^ l.Q E - k } SXmXlX.X2.:.X.< 6 q ` q & r ' X. .< > , r ` [ { nXLX;.2.>X>XvXNXNX+Xk J J x.x.g.x.g.!.(./.2X3X].k ",
"b M M V G.x.G.D l.^ v k l v nXMXlXgXsXy.:.< q rXiX8.q ; 7 ' ' < @ $ 6 ' ` 0.HXIXIXCXO.;X;X>XvXNXMX] d.A.A.A.f.u.n.(.2X2X2X_.3X].",
"M M V V G.G.D A ^ l.S v v | MXlXlXsXy.:.-.q tXCXaXaX8.q & 7 ;.> @ , r ` yXLXIXIXIXIX#.%XgXcXvXNXAX+XA.F.A.A.A.A.v.Q.3X3X3X3X2X3X",
"M V N V l.G.D D A ^ S v S mXmXfXfXy.y.y.:.8.GXGXnXaXrX; 6 & 7 > @ & ` 0 CXLXIXIXUXIX<.gX;X%XcXvXAXAX+X,XA.A.A.A.b.b.Z.2X3X2X3X1X",
"x b V N S S C D S V M l rXMXMXfXjXy.sXsX:.aXLXGXGXCXiX_ { o 3 X., X rX_ aXPXUXUXUXUXe.%X;X%XcXbXbXAXzX<X,XA.d.f.B.s.b.1X2X3X3Xm.",
"v n j.v.j.n n m j z M _ mXmXlXsXfXw.&X&X4.JXLXGXGXGXaXO O . r $.-.. O O aXLXUXUXUXUXq.gX;X%X;XcXvXMXDX+X<X,XB.f.f.a.h.F.<X,Xz.N ",
"S !._._._./.W h f z V |.MXlXlXy.y.y.sXy.:.IXLXGXHXHXaXO   O e $.:.X   O aXLXUXUXUXUX4.gX-X%X%XgXvXbXZXmXF.F.A.f.f.g.l.G.l.l.l.N ",
"W.(.3X6X3X3X(.! j v } VXMXsX&Xw.*X%X&X5.:.HXGXGXHXHXGX0   % X.$.$.6 . % GXLXIXUXUXLX5.;X-X%X%X%XjXcXMXDX|.b B s y V l.l.l.l.D A ",
"(.(.6X8X6X6X(.!.b v kXSXmXsXw.dX*XsX:.5.:.iXGXGXGXGXGXaX] { o.$.3.:._ rXGXLXLXUXUXkXy.=Xy.y.%XgX-XbXMXSXKXG.y z f x l.l.l.G.b A ",
"E.E.3X6X6X7X3XE.n } KXMXlXdXw.lXy.-.>.4.5.4.iXnXaXGXGXGXnX@...$.$.r.dXCXGXHXLXLXHX4.%X$Xy.5.7.fXfXcXMXDXKXpXA C C f N ^ ) V g.V.",
"E.E.!.6X7X8X6XE.! nXKXZXdXdXuXsX<.sX*X$Xy.7.w.w.w.w.&Xq.X. .......O.%..XaXCXCXaXdX.X$X-XgXfXy.y.&X-XbXZXKXFXJ.Q.Q./ M n b g.Q.E.",
"E.E.!.!.2X6X(.E.J.KXSXmXdXsXsX4.lXMXsXq.4.4.4.6.q.7.7.:.O.o.X.O.X.X.O.%.6..X.X.X.X.X*XdXjXMXAX=Xw.&XlXNXKXKX+XQ.Q.].Q C E C.^.^.",
"W.U.E.E.E.E.T.T.+XFXSXlXlXuXe.lXSXe.-.-.>.=.=.-.>.<.4.6.6.5.5.5.5.7.6.4.6.4.<.6..XdXhXsXw.sXMXDX&Xy.lXNXFXKXBX{.Q.Q.v.s ! F.!.!.",
"c.Y.T.T.T.T.T.T.xXDXMXlXe.q.e.JXOX@.4 r =.=.=.@.@.@.@.@.=.#.>.>.2.-.=.-.-.>.4.q.OXOX.X-.r @.&XDXZX$XfXbXFXKXFX,XQ.Q.M.s ! I.^.E.",
") V.W.Y.W.Y.Y.Z.ZXMXNX&XsX-.SXhX=.4 # { e.<.=.Y @.@.+.+.+.Y T #.Y T Y @.=.>.6.w.7.oXmXuX6 , @.hXPXjX-XbXAXFXFX1XQ.Q.M.R p.E.^.!.",
"x a Z.Y.Y.Y.T.!.DXMXlXsX4.sXGX4.e @ X { iXuX,.w Y +.+.+.+.Y P +.+.Y @.O.-.>.4.#.<.SXHXnX* + 3 9.SXZX-XcXAXFXFX`.W.!.W.R ! C.!.!.",
"s t s v.j.n./.(.DXbXdXy.5.mXuX-.> + . 8 tXe.0 O 7 4 G e P P e P P P +.+.O.#.@.[ 9 nXJX0.. X @ P dXKX>X;XvXFXFX`.! b.H i H p.s.j.",
"Z.p s p i C.I.!.NXbX*X$X2.MX,.+.@ X . o 9.{ O { ,.8 8.,.9 3 3 2 4 4 4 @. X9.XXHX{ { HX_   . X 3 <.SX>X;XvXNXAX1.a i a a = a a i ",
"/.J d a ! I.E./.bXcX-X&X:.mX=.X.+ X   K nXpXK e.0.rXVXCX+X; & U 1.8.1 ;.XXXXLXPXGX{ JXpXo     $ ' zXvX>X>XvXAXn.i i a a v.E.T.V.",
"^.V.f.f.V.V.T./.zXjX>X$X:.lX;.e + X o XXCXCX9.U ,.uXuXuXOX@.P 4..XoX-.L =.pXSXIXkXuXJXLX]     # U kXvX>XNXNX>Xj.i H H b.Y.^.E.R.",
"k.s p.i R n.M.U.{.cX-X$X3.mX;.Y . . 6 tXnXnX XL >.2.2.2.2.2.2.2.5.6.7.7.7.@X=XlX<.*XJXPXtX.   * ;.lX>X;X>XNX+XJ a u a p.V.R.E.E.",
"y p s j j x n E Q jX-X.X5.lX,.=.3 # 9 9..X.X$Xw.6.@.#.#.@.@.#.-.>.>.>.7.6. X.X&X=X=XjXMXhX* 1 [ XXxXcX>XvXvXJ.a u = = i R p.C.T.",
"h p d N C s x x b 1.fX=X7.lXq.=.>.2.>.q.oXXX6.=.@.Y Y +.+.+.+.+.@.+.@.>.>. Xq.*XhXhXdX&Xw..X.XoXdXbX-X;XcX:XF p h h h - k R H I.",
"j y a.S.B.a.g.b v v  X&Xw.w.dX0.;.<.;.,.[ T T L L L P P P +.+.P +.O.+.@.@.=.>.{ q.oXuXhXkXzXhXuXdXcX$X-X:X( = a a a a h - h i s ",
"j p k.D.D.S.a.Q b j l OXdXy.dXXX,.,.T Y [ Y Y U 9 w L L P +.+.I T @.Y P P L U T -.>.4.<.<.q.q.oXhXfXfXdXJ.n.n.! s a s n - f - u ",
"j p N.D.F.F.S.j.x B J j.+XdXoXuXe.1.[ q L U L q 8 2 9 9 L L L Y P I L L 9 9 8 L U T Y U =.9.9.dXdXlXOX`.].].Q.[.H a n p - = ! !.",
"j c j.S.K.S.S.i.s a.s.k.j.`.oXe.XX9.{ [ Y U 9 8 8 8 8 L Y L L 2 w L Y P 9 8 2 8 9 U T [ ,.<.oXuXuX'.[.[.].].[.[.m.s n h h n.3XeX",
"C g.g.g.S.S.k.p a.R.^.Y.b.b.D.].] [ T Y T L Y P 9 9 G 9 L 9 9 9 9 L 9 L L L L Y T Y @.=.,.1.1.| M.W H.[.[.[.[.D.v.p.y = H 3XeXeX",
"g.h.g.Z s B t p f.^.^.^.B.B.D.v.K * # o # & * Y 1.[ Y T T T T T @.=.=.T T [ [ 1.1 * 1 & 6 K R R M.R W z.v.j.c.b.j.J s u /.3X3X8X",
"Q g.g.g.c h h h g.V.Y.Z.a.m.1.' 7 @ + X .     K hXzXhXhXOXhX:XhXhXzXzXBXVXBXxX X  . + + $ 1 ' 9.}./ M ^ b.b.Y./.k.J Z y 3X3X3X3X",
"n h.h.h.Z C R h y g.a.a.M.tX,.U 1 @ + + + X   & oXlXzXxXVXxXVXVXVXVXSXVXSXZXxXL X + + + : 3 P <.uX|.~ l.f.c.k.,XF.Q H s 3X_.3X3X",
"z S g.g.V.Q.T.D.p z l.c.aXtX8.U 1 : @ @ + X X . Y OXzXxXVXVXVXVXVXSXZXFXZXVX.X# + + + @ $ 7 ` ,.tXkX|.E k.h.h.j.j.J d u ).3X3X3X",
"b h x j.Q.R.T.T.M.^ z.yXaXiX8.r 1 & $ @ + + + X # #.OXzXzXxXmXVXVXVXZXVXBX*X1 + + + + @ & q [ ,.e.uXaX~ Q ^ h.Q Q J a = R.3X3X3X",
"M j j Z.!.R.T.R.T.v.M aXaXrX{ 8 6 * : $ $ $ & # X & @..XOX:XhXxXBXzXzX:X6.1 X + + + $ : 1 ` ,.8.0.XXpX| S l.Q Q J E u i p R n.M.",
"S l c ^./.R.T.R.Q.Y.} nXtX8.` 8 ; 1 , : , 8 q 6 $ X # 9 <. XoX&X+X.X2.L # X @ @ @ $ : > 3 ' { 0.0.9.yX|.S W Q W E p i i a ! M.W.",
") g C /.(.!.E.T.T.R.`.iX8.{ q q 6 2 , : 1 q q 1 2 : @ & 8 ~ / / / ` * o + + @ $ : : : > 3 U { 8.8.<.XX|./ n m i i F F W H M.M.Q.",
"S b./.(./.E.E.T.T.T.J.XX{ ` q 8 8 6 1 2 9 w 9 2 3 : & % K M l k k K % # # @ @ $ : 1 > 2 9 U { ,.,.,.e.|.a R R n l h x H ! n.M.W.",
"V.^.^.(.(.E.E.T.R.Z.p 9.{ ` q 8 8 6 1 2 9 L 5 5 4 2 3 L T J M k k K 2 , # $ : : , 2 1 2 9 L ' ' { ;.0.wX_.V.Q d V h h C ! j.W.M.",
"^.^.)./.^.T.T.R.Y.B E ( { ` 8 8 6 6 1 1 1 2 2 2 5 O.&.I k.p.g.v v x F , 5 2 : : * 1 & 1 9 9 q ` ' ;.'.3X3X).Z.Z i.b f x H j.v.M.",
"^.^./.E.Z.I.R.b.x n v.b.xX XY 8 1 : 2 9 U T -.&.&.G ! M.B.k.k.c x l E p.a 2 5  .G 4 2 2 2 9 Y 1.6.-XwX8X3X).).A.g.E g l a E ! v.",
"R.^.I.V.C.Z.b.j y j.s p.'.~.@X@X~.*.*.@X@X~.&.( R R V.B.B.v.p.B k v l E a.i.H F G &.&.*.~.~.#X#X#X#X8X8X8X).).).^.m.j z M n R H ",
"s.Z.V.Z.V.Z.j.y p.s s p.Y.W.P.( F I ( ( ( n.n.~ n z.V.S.D.B.j.B l v k i p y u l k i a F G ( P.P.I.).).).).).)._.Z.j.k S ~ S i M ",
"J ! ! v.v.R R b.a t t Q j.W.].D.n v / ! h.^ M M n j.S.B.D.L.p.n R v.s.s.p.s j l j R F y a I.I.I./.).).).).).).^.J E C S S R x k ",
"p y p p y s d i.i.i.c c ! j.D.V.b h l h l v m M b / M.B.D.F.j.p.b.s.s.s.s.s.E i H J H a p p.I.I.I.E.E.E.R.I./.b.C s S C S S c ~ ",
"C i.a.p.i.a u g.i.B.j.y p Z Q B f f h h l k v x k x z.m.m./ j.Y.^.s.s.s.s.s.p.J a s.a.s.a.p.s.V.I.I.I.I.I.I.v.B B V S S S S G.G."
};
