/* XPM */
static char *out[] = {
/* columns rows colors chars-per-pixel */
"64 64 253 2 ",
"   c #203F1F",
".  c #1E3F23",
"X  c #1D491D",
"o  c #1F5519",
"O  c #25461C",
"+  c #234B1D",
"@  c #2B4C1D",
"#  c #2A5817",
"$  c #25541D",
"%  c #2B531D",
"&  c #2D5C1D",
"*  c #375A1B",
"=  c #335C1D",
"-  c #2F601C",
";  c #356A17",
":  c #34621D",
">  c #3B641D",
",  c #3C6B1C",
"<  c #3E751E",
"1  c #1E4423",
"2  c #1E4A23",
"3  c #224524",
"4  c #294424",
"5  c #244B24",
"6  c #294D25",
"7  c #224628",
"8  c #264B29",
"9  c #2A4E29",
"0  c #265224",
"q  c #265526",
"w  c #2B5324",
"e  c #2B5A23",
"r  c #2C542A",
"t  c #2D5A2A",
"y  c #325523",
"u  c #335C25",
"i  c #3A5C25",
"p  c #31562B",
"a  c #335C2B",
"s  c #2B6424",
"d  c #2F6C26",
"f  c #2C6529",
"g  c #356323",
"h  c #3B6424",
"j  c #346A24",
"k  c #3C6B24",
"l  c #35622C",
"z  c #3A632C",
"x  c #336B2A",
"c  c #3C6B2C",
"v  c #3D7224",
"b  c #3A7729",
"n  c #3C742B",
"m  c #356633",
"M  c #396432",
"N  c #3C6C31",
"B  c #3E7433",
"V  c #466B1C",
"C  c #446C1D",
"Z  c #43741D",
"A  c #48761A",
"S  c #447B1D",
"D  c #4A7C1C",
"F  c #537C1D",
"G  c #415A25",
"H  c #436C23",
"J  c #466925",
"K  c #436D2C",
"L  c #437323",
"P  c #4B7423",
"I  c #457B23",
"U  c #4B7D23",
"Y  c #43742B",
"T  c #4B752B",
"R  c #457B2B",
"E  c #4B7B2C",
"W  c #527B24",
"Q  c #547827",
"!  c #537B2B",
"~  c #436C32",
"^  c #426E38",
"/  c #427334",
"(  c #467737",
")  c #4A7C34",
"_  c #537B33",
"`  c #3F7541",
"'  c #415F43",
"]  c #477E42",
"[  c #3F8629",
"{  c #468519",
"}  c #4D841E",
"|  c #54841D",
" . c #5A851A",
".. c #548C1D",
"X. c #5C8C1D",
"o. c #48931C",
"O. c #5B951D",
"+. c #55991D",
"@. c #5C9E1C",
"#. c #618D1E",
"$. c #63951D",
"%. c #639B1D",
"&. c #6A9B1E",
"*. c #56A31B",
"=. c #5CA21D",
"-. c #64A41E",
";. c #68A61D",
":. c #4C8323",
">. c #498825",
",. c #45832B",
"<. c #4B822B",
"1. c #548422",
"2. c #548C23",
"3. c #5C8C23",
"4. c #53832A",
"5. c #588728",
"6. c #5A852B",
"7. c #5B8C2B",
"8. c #559323",
"9. c #5C9424",
"0. c #579B21",
"q. c #5C9A25",
"w. c #55932D",
"e. c #5C922B",
"r. c #5D9A28",
"t. c #4C8332",
"y. c #4C863A",
"u. c #548433",
"i. c #5C8B33",
"p. c #558938",
"a. c #538B3C",
"s. c #4F9733",
"d. c #5C9434",
"f. c #58943A",
"g. c #628D24",
"h. c #628D2A",
"j. c #698D2D",
"k. c #639423",
"l. c #699526",
"z. c #649B23",
"x. c #6A9C25",
"c. c #64932C",
"v. c #6A952B",
"b. c #639B2B",
"n. c #6C9C2C",
"m. c #719D2A",
"M. c #638B36",
"N. c #658C3E",
"B. c #659C35",
"V. c #6C9D35",
"C. c #689638",
"Z. c #639C3A",
"A. c #759B35",
"S. c #5DA225",
"D. c #67A526",
"F. c #6DA224",
"G. c #6DA22C",
"H. c #73A326",
"J. c #78AB26",
"K. c #74A42B",
"L. c #7AA52B",
"P. c #76AB2C",
"I. c #7CAB2C",
"U. c #6FB129",
"Y. c #72B325",
"T. c #77B528",
"R. c #7DB32C",
"E. c #6CA332",
"W. c #69A63A",
"Q. c #75A333",
"!. c #7BA534",
"~. c #7CA934",
"^. c #78A738",
"/. c #74AC3B",
"(. c #7DAB3B",
"). c #7DB338",
"_. c #488845",
"`. c #568D46",
"'. c #5B9543",
"]. c #639844",
"[. c #749C43",
"{. c #63A241",
"}. c #6AA342",
"|. c #7AA844",
" X c #7BB644",
".X c #6CA559",
"XX c #82AC25",
"oX c #82AD2C",
"OX c #87B52A",
"+X c #84B32D",
"@X c #8BB52E",
"#X c #8CBA2D",
"$X c #94B92D",
"%X c #93BC2D",
"&X c #83A836",
"*X c #82AC34",
"=X c #83B233",
"-X c #8CB534",
";X c #8CBA33",
":X c #84B33C",
">X c #8BB43A",
",X c #84B938",
"<X c #8CBB3C",
"1X c #93BC33",
"2X c #96BB3B",
"3X c #8FC32E",
"4X c #97CB2F",
"5X c #8CC23B",
"6X c #93C333",
"7X c #9BC535",
"8X c #9DCA34",
"9X c #9AC33A",
"0X c #98C83A",
"qX c #9FD13C",
"wX c #A8CF2C",
"eX c #A3CB39",
"rX c #A3CD3B",
"tX c #AAD637",
"yX c #A3D23D",
"uX c #B2DA39",
"iX c #B9E23C",
"pX c #84AD42",
"aX c #83B444",
"sX c #8AB444",
"dX c #8ABA47",
"fX c #97BC44",
"gX c #8EB852",
"hX c #97B376",
"jX c #8CC449",
"kX c #9DC243",
"lX c #96C648",
"zX c #9AC757",
"xX c #A7C946",
"cX c #A8D245",
"vX c #ADD345",
"bX c #B4DD44",
"nX c #B2D54B",
"mX c #B4D848",
"MX c #B9DB4C",
"NX c #A6CA58",
"BX c #ABD257",
"VX c #ACD15C",
"CX c #B5D552",
"ZX c #B8DC54",
"AX c #B2D25E",
"SX c #BDE242",
"DX c #BAE14E",
"FX c #BBE252",
"GX c #BAE159",
"HX c #B6D561",
"JX c #BFE265",
"KX c #C6E75A",
"LX c #C5E668",
/* pixels */
"0 2 q _.V.B.<.L j g & 5 e q & e q m l m t r K P >XkXCXCXCXCX2X1XW q n zXVXVXzX_ x x e q e o s 0.v < z.L.L.m.XXm.j 0 j W.s.[ [ x ",
"o ' ^ y < <.<.<.h g g + $ q e e r t m t 8 p L ! 2XnXCXCXCXCX2X1Xx.s dXNXVXVXVXgXj b x $ q 2 o o.& +.H.L.>XlX&Xm.d 6 5 b [ b t 8 ",
"K hXT y u <.<.<.h k :.e 2 e q e q a / x 8 p g T >XnXCXCXCXCX2X1XR.e Q.k.aXVXVXjXR b b $ X e :.*.S @.I.kXBXxXL.3.s 3 5 6 t f x b ",
"AXNX>Xv.g R ) R k I L U u e e t / W.W.W.( r 9 p j.xXCXMXCXCXxX1X=Xg r.z.).NXjX Xb b b :.& j T.4X4.} F.=X).H.W s f x b x f f t q ",
"HXHXAXfXA.y k k L v v k c r r q d.}././.B.r 8 3 y >X9XxXxXxX9X$XR.v q.E.zXzX X}.[ j j 8.>.& r.<.X 1 0 g h s j x s + $ 5 0 q 8 2 ",
"HXHXAXAX&XQ % g k L E T z q 9 r <.p.f.W.B.w 7 3 7 Q ;X1X1X1X1X;X3.I b.jXNX X X{.b v 2.8.{ < +.o 1 2 2 5 s x 0 1 1 3 7 t s f f t ",
"AXHXAXAX&Xm.@ k 4.gXNXNX[.p r r M ) <.d.) 6 8 8 6 8 i v.oX-X!.3.e I aXBXjX X{.>.,.+.+.8.o X { o 2 v :.>.,.+ 3 O 1 3 X q s f s f ",
"AXAXHXAXoXL.w k NXVXVXVXAX] r 9 r r a g 5 5 7 8 6 T T U U Z e e ..8.).dX{.s.[ [ 8.+.8.0.0.< < # 8.0.0.*.*.q.i.C.! 3 5 2 f f f f ",
"AXAXVXxXL.Q.% T n.!.VXNXVX[.z c E d.f.N 3 3 8 a sXBXxXxXxX2X*X: } 8.2 b ,.s.{.|.{.< : S.S.S.+.S.*.0.0.S.5XnXGXHXZX~.3 3 0 t s f ",
"VXAXNX&XP.K.$ 7.l.~.VXNXgX|.L L L b s.W.c 5 8 C.CXCXxXxXxXxXxX<X4.lXe q jXzXzXzXzX[ S q.0.=.tXtX3X0.*.6XvXmXLXLXLXHXP ~ T a q e ",
"&XfX>XL.J.X.: l.x.NXzXW.].f.R R R b b Z.Z.q 8 [.CXxXxXeXxXeX2XlXzX/.; ].zXzXzXzXzX< >.S.{ T.tXtXtXU Z cXrXyXnXZXJXJX~.E _ 4.A.lX",
"n.L.L.K.H.k U x.lXgX[.N.].a.v R R T R f.'.B 6 T xXxXxX-XL.m.G.D.v $ r./.zXzXzXdXw.& ,.0.{ Y.tXtXtXJ J cXrXcXrXrXAXJXQ.Y A.kXvXZX",
"p.u.U h.3.% 5.dXNX[.].'.u.k c n R R R f.f.] w w pX-XL.m.G.K.n.I q o j E.dXdXZ.<.e O ; +.{ *.T.6X8Xh * rXkXyXyXrXrXcX6.u.xXnXZXMX",
"NXxXpX* : : 7.Q.^.p.) R / z n v Y I R }.`._.p 8 4 ! F.H.n.4.u 5 q q + ,.; e & U O.q...< S *.*.*.*.0 O <XqXqXyXyXcXI.h 2XnXnXZXMX",
"xXNXxXsX@ } g H 3.I Y c g v c v n t.{.{._._.r 5 3 5 u g e 1 c i.d.f.p.& d X :.@.q.q.q.8.- +.*.*.2.1 + ! qXcXyXyXK.w Q xXvXnXxXnX",
"NXxXfX&XV U ! 1 3 _ pXgXzXgX5.v a.{.{.'._.] 6 5 5 3 5 3 5 e Z.Z.Z.Z.Y 3 q < 9.O.O.%.%.q.{ +.*.+.$ X 1 1 L 0Xv.h O O x.R.@X-X-XeX",
"2X&Xm.L.~.dX3.1 p.|.NXNXNXhX}.5 l }.}.y._.m 5 5 q s $ 2 3 l Z.B.e.e.k O 5 } O.O.k.O.z.>.# O.+.{ & $ $ + + U.& ; U 3.K.R.=X;X;XfX",
"2XH.Q.c.P w I c ].].|.NXNXpX~ 8 9 R `._.m 8 5 q [ [ >.e 3 0 e.n.9.9.X.D : k O.K.x.9.X.r.b.j u Z =.8.F.D.G.T.T.U.8.e g i.d.6.* 3 ",
"T ~ u 9 q B s.t.'.'.|.zX^ 4 9 r r r r 8 3 1 3 e [ >.b $ 5 5 E.5Xk.X.X.X.} # $.jX:XO.Z 9 5 r 6 & ..@ :.O s ,.,.s.+.& Y i.p.R + . ",
"6 9 r r ( f.'.a.) ) ! L . 9 p r t t t 9 9 5 3 3 5 + 1 3 5 5 G.dX:X9.k.X.X., X.(.:XX.H 6 6 9 w A ; O S I w.s.t.,.4.2XeX9XvXnX>X6 ",
"t t t l a.`.a.,.a.B r 9 3 6 r t r e t 1 8 6 0 8 3 5 5 5 O 8 U ~.sX).X.3.X.| C $.$.X.h 9 8 v 8.*.>.% *.Y.Y.Y.U.[ M.eXvXmXvXvXbXsX",
"a u l m `.s.y.B ( y.l p r 3 r t r z t 5 0 0 6 9 5 5 3 5 5 6 u 3.K.<Xn.X.X.3.$ | #. .p 9 < D.=.=.%.Z U.,XT.T.Y.Y.v.-XvXvXmXvXvXnX",
"a l a l a.`.B B Y ) z p r 7 5 0 0 k >.e.e.U 1 5 6 5 5 3 5 w & >  .g.k.| X.| O % A y 4 u =.-.=.jX-.Z U.lXT.Y.Y.Y.F.z.I.cXnXvXnXvX",
"e t f l x x c N m l a r 3 7 3 0 >.q.q.e.9.9.$ 1 5 h F X.9.X.X.W L A | |  .* 6 # > % @ ..=.-.).lXO.= D.lXjXY.;.;.-.D.F.xXvXvXnXV.",
"r i ! c.6.g i t 8 0 p 8 1 3 5 5.b.q.9.9.q.9.g 1 L X.g.#.#.3.X.#.X.P y C V C % @ 4 J V 9.=.D.jXlXS O >.P.lXjXD.;.-...t.:XlX2Xi.f ",
"z 2XtXtXyX9XK X 7 6 a 8 7 1 R r.r.9.q.r.9.q.v & X.g.n.Q.A.A.l.X.X.X.H * O V 1 5 i F W X.@.=.,X~.$ 5 5 L D.).Y.;.;.>.t.y.a.y.y.f ",
"&XeXvXMXMXvXyXQ 5 0 r 8 5 6 w.q.r.r.e.0.q.+.I H 3.A.~.(.(.!.!.^.#.#.C . 6 > 1 5 w W W Q F X...e 5 1 . 3 5 & g , 5 l y.y.y.y.B d ",
"eX7XZXZXMXZXrX1Xe 9 8 7 3 e r.q.r.r.r.r.e.0.Z C k.(.~.~.(.~.^.~.v.3.% V | C.0 3 3 6 P Q F Q u 3 1 3 l t.) x X @ 3 e y.y.y._.f b ",
"%X$XnXZXZXMXvX%Xy 7 q 1 1 a r.r.q.q.q.e.r.9.j w g.Q.!.(.!.!.&X!.#.P F W g.fX2.w 6 7 4 u i p 7 7 1 3 t.a.f.<.z K z . f ( ^ z U x.",
"1X$X7XnXZXZXnX$XW M l l 3 5 e.r.b.q.q.q.q.2.5 X H v.^.!.^.!.!.g.F C 3.1.3.5XP.P 3 3 7 5 p p 8 7 7 3 ) a.f.t.4.:X>X_ p g t 3.<X6X",
"$X1X$X1XxXCXxX$Xi.N n B z 1 c r.r.q.r.r.8.e 2 5 6 H 5.v.A.n.3.P @ W 3.| ..dX~.1.w 7 4 M ( ( ^ 9 5 r N d.d.E m.>X-X>XI g V L.6X6X",
"&X$X$X1X-X$X$X@X5.B / R R q 1 g <.9.8.v 5 2 8 9 6 6 y J L k p 7 7 5.c.| X.n.k.1.y 7 9 ] ] ( ( N _.`..X'./ H m.>X<X>XC.> F +X5X1X",
"f.-X@X@X@X@X@X-XR n B B / 6 . 7 2 5 8 1 1 0 6 0 6 9 6 p M l p 8 4 T K.P.P.L.K.5.6 8 r ^ ( ( ( ( .X.X.X.XN H g.>X>X-XA.h  .@X1X1X",
") H.*X=XoX+X+XI.v R b n N 3 7 3 3 8 9 6 9 5 6 6 6 y a 9 a M M p 9 c.6XbXyXR.~.K.a r p t ^ ( ^ t .X.X.X`.e k F ~.>X-XA.V  .@X6X6X",
"q u ~.oX+XoX@X1X0X7X<XV.e . 3 7 8 8 3 O 6 0 0 5 8 a i p p M l a K #XSXSXSXeXR.I.e.a M M p 8 3 1 M ] m 8 5 H F  .=X>X!.>  .H.;X5X",
", X : l.! m.9X8X8X8X8X8Xm.w ^ G 8 8 8 e u r 5 5 8 a a a r M a i l.rXSXSXSXbX*XR.P./ N n N M 7 1 7 1 1 3 H W V F | v.W @ V F l.g.",
"I.# ; & i L.XX1X8X9X8X9X9XN.N.N.p y h.K.L.n.> 5 8 a z a a a a a D.uXSXSXSXSXR.I.P./ N N / N l a r 1 1 u H H V * * 4 * * O * * @ ",
"4X, Z & Q L.$X7XrX8X8X8X9XA.N.N.N M.I.I.+X1X%.> 8 a z z a a u u 9.yXSXSXSXuXI.R.P.Y / N N N B N ^ M 6 i V H V J 4 i * @ j.$X#Xm.",
"4XH.;.m.H.L.@X9XrX8X7X7X2XN.M.].~ K.I.oX1XeXOX{ r r a z a a y i T 6XSXiXSXtXJ.R.P.n N Y e.c.4./ / N ~ W j.Q P V * V A l.#X3X$X#X",
"7., | % J v.m.L.oX+X7X-XN.N.`.N.~ L.I.I.2XeX$X| i 9 a z f a p a w l.6XSXuX#XY.J.v.n ) x.F.F.G.u.B / &XkX2X2XV J * @ i  .J.;X#X3X",
"+ $ ; 8 8 w u L P E i J M.`.( z / L.I.I.I.@XXX..l u k v a a a w 9 a x.R.R.J.J.I.E E b.k.&X2X&Xk.~ ! kXkXkXkXW * O   . @ V  .L.-X",
"5 $ < g k g 0 0 0 w 3 8 p i M z ^ V.I.I.I.oXJ.U :.......:.a w a L J H x.Y.J.Y.D.Y z.$.l.2X>X&Xm.c M.fXkXkX2X* @ 4 4 3 3 4 V F I.",
"5 $ 2.b.D.q.2.t r 0 3 8 9 z l z M ].K.L.I.I.k.Z ....O.....| K.8XeXeX7Xn.7.P.J.U | O...n.2X&X!.!./ ) fXkXfXJ O * * * * 3 3 . % * ",
"5 & r././.E.+.P q 6 5 + 8 w l M z y.].m.I.7.% | ..........R.rXrXeXrXeX8Xh.c S k ....3.x.-X&X&X&X) u.j._ Q N.M.E * : : y . 1 1 O ",
"3 & r./././.D.2.0 g S ....S g p l z k  .& + ; ............OXeXeX8X8X8X8X<Xl L k ..9.aXdX*X&X!.!.~ V.i |.sXsX:XsXP : * % .   Q 2X",
"8 e 2.E.|./.E.} , O.%.9.9.O.q.:.+ 5 5 } ; : 0 k >.......| 5.4X6X3XOXI.+X6Xk L S 2.v.dXdXsX7.C.v.M.+XpXsXsXsXsXsXC.> y 3 3 j.FXKX",
"k :.:.2.B.E.8.- z.#X3X+Xk.D./.P.g 2 # S } q h P 6.9.| u e 9 7.;X6XR.9.k.G.| P , Z 3.(.pXB.7.5.J V.Y [.sXsXsXaX(.g.| 8 1 J MXLXLX",
"<.R >.v j s 5 $ D.3X6X4Xz.G.Q.D.$ : - # L E.K.H.H.H.L.6.t w r J k.l.3.:.g + , 0 1 v >.| 5.L g z n.K N i.c.i.d.b.1.D = X 2XMXSXSX",
"I ,.>.U e 3 3 3 1.G.R.J.O.9.O.S ; ; + X W E.L.L.L.L.L.Q.U u t r 9 9 5 2 3 3 > e P } } } >.2.Y H =XT a Y b.z.=X0Xe.S < O bXbXbXbX",
"u <.4.,.c k H 3 @ :.O.O.O.O.S A { A A + p.}.<X1XI.L.P.$...H a.l 9 6 8 3 5 8 & , { } >.} } k.=X-X;XE N <.F.7.e.6X).I C J bXbXbXMX",
"0 z :.:.G.@X#X!.$ 0 u.w.:.$ - O.+.S S j f.}.<X1X;XL.!.k...F a.y.0 9 e H :.Z u < } } :.} | 0X0X0XqX5X) Y b.<.,.<.2.S , @ cXbXbXMX",
"t 8 w 4.;X#X-X@XV.( a.`.g X S O.O.} w.w.p.}.>X9X9XI.L.z. .U f.a.r 0 H | } :.Z u S ..| U | L.K.R.6XkXV.z R <.<.R U S :   L.mXbXbX",
"m 1 6 !.;X#X@X#X@Xh.t t & 1 ..O.O.9.s.p.( ].:X9X9X-XL.O.| : / ) q e } | } } P A n.x.z.3.F z.z.x.K.lX!.a M ) <.I A V 4 @ @ J C.A.",
"m 2 & 6X7X$X#X@X@X@Xi 3 , X F.O.%.P.f.u.N a.V.:X9X-XL.3.g w w g g k } } } } { H.>Xm.k.g.P ..k.G.).,X5.p z Y E P H * y @ % Q A.&X",
"` 2 k 8XrX$X1X-XOX@Xv.& A 1.k.T.R.P.d.Z.Z.f.u.i.7.7.Q J u z g z u $ ..} >.D 3.*X>XH.$.$.U h c. X).i.J P T z p 4 y G * J Q j.A.>X",
"B M.8X8X8X3X$X@X@X@Xk.X.z.$ O k.R.~.Z.V.V.B.W._ w 4 u k g p r 0 r : >.2.:.A 9.=X>X*X&.l.k.* @ y w P ! Q * G J i 7 4 6 Q F j.&X&X",
"H.8X4XeX8X$X#X@X#X~.@ #.+ X . 3 i.V.V.V.V.W.|.V.! g a a L k e r 8 g 8.3.S S 1.~.>X>X&.$.$.A + P 9X8XyXDXyXH.Z < i 3 3 , W 6.A.&X",
"4X4X8X4X7X@X#X#X+Xg , } & % X 1 C.^.|.).|.aXaXaXi.9 e e.D...1.r r 5 2.8.2.I { K.>X>Xx.&.$.C J cXZXDXFXDXSXtXR.S } e 5 6 P F j.A.",
"4X4X7X%XJ.+X@Xl.p e g...9.e.P + C.V.sXaXsXaXsXpXi.6 7.K.E.9...e 9 9 L 3.8.8.8.O.*X>XH.$.X.# <XZXGXDXDXFXDXtXuXH.:.L 2 8 y P  .g.",
"#X#XXXJ.L.L.n.3 O 7.;  .,X<XK.Z E V.|.pX|.|./.Z.K c G.G.G.k.2.u 9 0 8 L 8.8.5.k A G.$. .# > >XcXFXFXFXDXSXuXuXtX5XG.8 0 a g h J ",
"k.L.I.H.I.L.7.0 2.* = ..).<X<XB.= M.V.V.[.A.C.~ e 4.E.E.P.E...g 9 r w 9 9 r 5 9 8 % , D V &XXXXX#XwXuXuXuXwXuXyXP.5.e M ~ z y a ",
"W U W c.c.H C k.* X $ U 7.*X<X*X= t ) _ u.T a a p i.E.G.^.aX..u L 3.&.$.| : 6 7 8 > C 6 % oXXXXXwXwXuXwXuXwXtX4XS v z z M ~ e w ",
"% + w & O = , } ..} q e U 3.(.n.w 8 7 3 1 r p p t _ E.Q.^.|.| | x.$.$.$.$.$.H w C | A > %  .XXXXXX%X$X%X#XXXeXk.v g M c z K w ^ ",
"k 2.} ....& $ >...q.2.+ e v I g 1 3 3 3 8 r r 0 9 0 i.B.V.) 3.+X;X&.$.$.$.$. .D > 3.$.k.#.1.#.J.XXXXXXXXXXJ.k.g g z M N c ~ ] `."
};
