/* XPM */
static char *out[] = {
/* columns rows colors chars-per-pixel */
"64 64 256 2 ",
"   c #000000",
".  c #0C0705",
"X  c #160A06",
"o  c #19100A",
"O  c #171813",
"+  c #28140A",
"@  c #2A150D",
"#  c #34170C",
"$  c #1D2E18",
"%  c #33210D",
"&  c #272515",
"*  c #372917",
"=  c #29381A",
"-  c #37351B",
";  c #1E3F22",
":  c #2B3823",
">  c #343A22",
",  c #451D0D",
"<  c #431D12",
"1  c #4B2511",
"2  c #482916",
"3  c #592A14",
"4  c #5A361B",
"5  c #6D3116",
"6  c #4C3926",
"7  c #603C22",
"8  c #1C491C",
"9  c #1F5519",
"0  c #29471A",
"q  c #244B1D",
"w  c #36471B",
"e  c #25541B",
"r  c #2B521E",
"t  c #2C5B1C",
"y  c #36581C",
"u  c #335C1D",
"i  c #34621D",
"p  c #3A631C",
"a  c #376A1D",
"s  c #3C6B1C",
"d  c #3C761D",
"f  c #1D4423",
"g  c #1E4A22",
"h  c #224423",
"j  c #244B24",
"k  c #2A4D24",
"l  c #274A28",
"z  c #364B25",
"x  c #255324",
"c  c #265725",
"v  c #2B5324",
"b  c #2B5A23",
"n  c #2B532B",
"m  c #2C592A",
"M  c #365826",
"N  c #335C24",
"B  c #325C2B",
"V  c #305F31",
"C  c #2B6424",
"Z  c #2C6628",
"A  c #356323",
"S  c #3B6424",
"D  c #3C6B24",
"F  c #34632C",
"G  c #3A652C",
"H  c #336B28",
"J  c #3B6B2C",
"K  c #3D7323",
"L  c #3C732B",
"P  c #397729",
"I  c #396932",
"U  c #3E7937",
"Y  c #51461D",
"T  c #6B431D",
"R  c #456B1C",
"E  c #447C1D",
"W  c #48781D",
"Q  c #537C1C",
"!  c #504F2E",
"~  c #674A28",
"^  c #7A532B",
"/  c #6E5331",
"(  c #436C23",
")  c #476928",
"_  c #546826",
"`  c #437424",
"'  c #447A24",
"]  c #497827",
"[  c #43732B",
"{  c #4E7B2B",
"}  c #537C23",
"|  c #56792A",
" . c #426C34",
".. c #477835",
"X. c #577B33",
"o. c #6D6E2F",
"O. c #3F7541",
"+. c #5A5F43",
"@. c #726E43",
"#. c #86381C",
"$. c #8D471B",
"%. c #875629",
"&. c #925428",
"*. c #885C33",
"=. c #A85426",
"-. c #8B6538",
";. c #996739",
":. c #8E7132",
">. c #AE6B2C",
",. c #A76B36",
"<. c #A9753C",
"1. c #B7763A",
"2. c #C87837",
"3. c #8E7148",
"4. c #A97746",
"5. c #B77D45",
"6. c #A37E55",
"7. c #3F852C",
"8. c #4C831E",
"9. c #4B871D",
"0. c #54841E",
"q. c #57891B",
"w. c #48931C",
"e. c #5B951D",
"r. c #58991B",
"t. c #63951D",
"y. c #659B1E",
"u. c #59A21D",
"i. c #478526",
"p. c #4B8223",
"a. c #4B832B",
"s. c #548C23",
"d. c #5C8D24",
"f. c #578628",
"g. c #599724",
"h. c #4B8538",
"j. c #568937",
"k. c #4F9733",
"l. c #599538",
"z. c #648B28",
"x. c #639324",
"c. c #649A23",
"v. c #689829",
"b. c #6C9C2B",
"n. c #74992B",
"m. c #668A39",
"M. c #768834",
"N. c #699837",
"B. c #769B35",
"V. c #62A220",
"C. c #69A225",
"Z. c #6EA32D",
"A. c #74A32B",
"S. c #77A628",
"D. c #7AA52B",
"F. c #7CAA2B",
"G. c #7BB329",
"H. c #6AA537",
"J. c #78A736",
"K. c #7DB139",
"L. c #588A41",
"P. c #798F45",
"I. c #649943",
"U. c #7AA843",
"Y. c #78B346",
"T. c #889633",
"R. c #AC933F",
"E. c #85AD28",
"W. c #88B227",
"Q. c #84B32D",
"!. c #8CB52E",
"~. c #8CBA2D",
"^. c #93BC2D",
"/. c #83AC33",
"(. c #85A936",
"). c #91A83C",
"_. c #84B536",
"`. c #8CB533",
"'. c #8CBA32",
"]. c #8BB33B",
"[. c #93BB33",
"{. c #97BB3A",
"}. c #CB8237",
"|. c #DD8B35",
" X c #D58738",
".X c #DD8D39",
"XX c #DF913C",
"oX c #E18E38",
"OX c #E1913C",
"+X c #96CA2F",
"@X c #92C134",
"#X c #93C635",
"$X c #9CCB33",
"%X c #99C639",
"&X c #A8CF2C",
"*X c #A4CD3A",
"=X c #A4CD3C",
"-X c #A9D639",
";X c #B1D937",
":X c #92904C",
">X c #BA8449",
",X c #AD924E",
"<X c #B98855",
"1X c #86B445",
"2X c #8AB443",
"3X c #96BA45",
"4X c #90B34D",
"5X c #B5946C",
"6X c #ABA26C",
"7X c #C98A4B",
"8X c #D58B48",
"9X c #DA924A",
"0X c #C68C52",
"qX c #D28F51",
"wX c #CB945A",
"eX c #D59453",
"rX c #DB9957",
"tX c #E5964B",
"yX c #E39B54",
"uX c #E59E58",
"iX c #E8A35A",
"pX c #ECA55B",
"aX c #F2A456",
"sX c #F2A65B",
"dX c #F5AA5C",
"fX c #FAAC5E",
"gX c #C89966",
"hX c #D39660",
"jX c #D6A56A",
"kX c #E8A765",
"lX c #F2A963",
"zX c #F5AB61",
"xX c #FBAD60",
"cX c #FAB369",
"vX c #8AC24D",
"bX c #9AC347",
"nX c #9AC554",
"mX c #A7CA48",
"MX c #A7D244",
"NX c #ADD444",
"BX c #B4DC45",
"VX c #B3D54B",
"CX c #B6DA4A",
"ZX c #A6CA59",
"AX c #A8D158",
"SX c #ACD25C",
"DX c #B5D652",
"FX c #B8DC54",
"GX c #B3D25E",
"HX c #B9E14E",
"JX c #BBE153",
"KX c #B5D561",
"LX c #BFE265",
"PX c #C7E85B",
"IX c #C4E668",
"UX c #DAAD82",
/* pixels */
"x f n ..b.H.{ L A A t j t b b b m V F I m m ) ] ].bXDXDXDXDX{.[.} b L nXSXAXnXh.H H b c b 9 i g.d d c.S.D.D.D.A.H x H H.k.7.7.H ",
"9 O. .m K a.a.a.H A A q x c c b n n F m l m ) { {.VXDXDXDXDX{.{.C.t 4XZXSXSXSX4XH P H b c g 9 w.t r.C.F.].bXE.n.Z j k L 7.P m x ",
"P 6XX.v A a.a.a.D D p.u j c t m x V U F l n G { ).DXDXDXVXDX{.[.K.b Z.c.Y.AXSXnX[ P P 9 8 b i.u.E y.F.bXAXmXJ.d.Z g j x C m F P ",
"SXAX].M.A [ h.] D ` ` ' N b b n L H.H.H...n l M n.mXVXDXDXDXmX[._.p g.c._.AXvXY.P P P 9.b H G.+Xa.8.C._.G.A.} t F H P Z Z H m c ",
"KXKXKX4Xn.M D D ` K K D D n n n l.U.H.Y.N.n l h M _.%XbXmXmX%X[.(.R z.n.AXnXY.Y.7.H a s.i.t g.i.8 q c F H t H H C q e l x x j g ",
"KXKXGXGXF.| r A K L { [ H n n n a.j.l.H.H.x l h h ] [./.[.[.[.'.Q ) f.X.nXY.vXk.P K s.g.9.K u.9 f f f g C H x f f f l c Z Z Z m ",
"KXKXGXKX/.A.q ( | vXZXZXI.n n n I { a.l...j l l l h B _ T./.D.z.b ' ) m.vXY.H.7.a.g.e.w.9 8 9.9 g P i.s.i.q h 8 f h f n Z Z Z Z ",
"SXKXGXSXJ.D.b S ZXSXGXGXGXX.n n n n B A j j l l k ) ! o.:._ z b q.s.N.M.N.k.7.7.w.g.g.g.u.d d t g.g.r.u.u.g.m.N.{ h f g Z C Z Z ",
"GXGXKXmXS.J.r ` b.J.SXSXSXP.H J { k.l.I f h l z 4X3X> -.dXdX,X3.M.n.3.pX,XP.N.Y.H.K i g.u.g.r.V.u.u.g.V.@XDXJXJXFX(.h h n m C Z ",
"SXSXZX(.S.n.q ( z.J.GXAX4XU.' ' [ L l.H.I g q Y :X,X4.~ dXfXdXdXsXaXfXfXfXzX6X4X:Xo.! E r.u.-X-X@Xu.u.#XMXDXLXLXIXKX` ) { B c b ",
"(.3X/.D.S.d.p x.v.ZX3XI.I.j.' ] ' ' ( | m.z ^ >X9XfXrX-.uXdXzXzXfXdXfXfXfXdX>XiXpXtXo.f.E G.-X-XMXE ' -XMX=XMXLXIXLXJ.{ { f.B.3X",
"b.J.S.S.S.D p.v.3XnXI.I.I.j.L ..] [ ( ~ ;.8XaXfXsXfX>X>XdXzXzXzXxXsXfXfXfXfXfXfXfXsX! @.E G.-X-X-XD S MX%XMX=X=XGXLXH.[ B.bXNXFX",
"j.a.} z.d.r f.2XZXU.I.I.j.[ J ` [ [ >XdXdXfXfXxXfXfXaXeX>XpXxXxXfXpXdXxXfXfXfXfXfX<./ kX:Xe.G.#X$XS N *XMXMX$X=X-XMXf.f.mXVXFXDX",
"mXZXU.y i A d.J.H.h...{ [ N J L [ :.sXdXfXfXfXfXfXfXfXlXpX;.aXxXfXiXiXfXfXfXfXdX4./ iXfXaXR.V.u.V.e q ].$XMX=XMXMX/.M 3XVXDXFXDX",
"mXmXmX4Xq 0.u ( d.' [ J 0 Y / _ o.9XfXfXfXfXxXfXfXdXsXdXxX>XsXxXfXwX<XfXfXfXxXiX3.pXfXfXdXaXT.u.s.j = { =XMX=X*XA.v | *XNXNXNXVX",
"ZXmX3X/.R } { 8 h X.1X4X4X:.2.tXiXfXfXxXxXfXxXxXxXfXsXlXzXeX0XuXrXwX0XrXfXfXsX4.pXfXfXxXdXfX>X9.o./ ! 8 [ #Xd.S j q b.G.`.`.!.*X",
"3X/.S.S.J.1Xd.f L.U.ZXZXZX3.tXsXsXfXxXxXfXxXxXxXxXfXrX7X0X>X7 ;.;.*.8X1.rXiX-.iXfXdXxXfXfXiX>X<.}. X3.q q o.6X@.X.f.S.G.Q.`.'.3X",
"{.n.D.m.] v ' J j.I.1XZX,XqXaXaXuXlXsXxXxXfXxXxXsXqX,.*.5 , , 5 5 # o . % 7 ;.fXfXfXfXfXyX;.1.|.|. X7XN.v.= 0XcXUX0 C f.l.f.y k ",
"]  .b l c U k.h.j...M.:X5.aXfXfXfXfXfXaXsXfXfXsX8X=.$.#.5 1 @ , # X . X # + $.=.qXfXdX7X;. X}.|.1.}.|.o.C 0 % 7 -.> _ l.j...q ; ",
"k n n M ..L.l.j...J T 2.aXsXsXfXfXsXfXfXsXyXpX,.#.#., . + & .   .     . < , # X %.eX>X^ 1.oX|. X%.}..X2.3.X.y $ 0 (.3.=XNXNX].k ",
"m B m F L.L.k.h.L.U k <.aXdXfXfXfXsXsXxXsXwX5 5 , X       O           X @ 3 @ X 5 5 3 T oXOXoXoX|.|.|.|.}.5Xo.o.) %X).NXNXNXBX1X",
"B m F F k.L.U U ..h.n ;.fXdXfXfXfXxXsX7XqX2.3 @                         . # o o % X % &.OXoXoXoXOX|.|.|. X0X6 Q z.'.NXVXM.R.mXVX",
"B F F F h.L.U L  .a.h * 1.iXfXfXsXxXxXrX$.=.X                                 # . . # 5 |.oXoXoXOXoX|.|.|.0Xo.G.b.c.F.MXmXNXNXMX",
"m m F Z I J L  .J - 5.>X~ ;.rXfXfXxXsX2.<                                     . X X X 3 T :.9XXXOX.X.X|..X<Xn.r.-.:Xy.mXVXNXVXN.",
"v M f.z.f.N M B l Y iXxXdX>X:.^ yXlX8X=..                                         + + + 5 |.|.oXoX|.oX|. X5XN.u.^ wXa._.bX2Xl.Z ",
"G {.-X-X-X%X] ; : ,.dXfXfXfXeX*.%.;.5 <                                           # . . &..XoX9XoXoX|..X|.rX:XV.W o...h.h.L.h.Z ",
"/.*XVXCXCXNX*X] ~ yXfXfXzXfXfXzXrX;.<                                             + X # $.}.oX.XoXoX|.|.|. XgX@.k G h.h.h.L.U H ",
"%X*XFXFXFXDX*XE.%.sXfXfXfXfXfXfXlXlX+.                                        .   X # + # >.}.|.|. X|..X.X|.1.5X! 6 X.h.L.h.Z P ",
"^.^.CXDXDXJX=XT.-.dXfXfXfXfXfXfXxXxX+..                                           . X . # $.7X9X X X8XoX X2.%.~ > $ m ..I F p.b.",
"^.^.%X{.KX).:.>.rXdXfXdXfXfXfXfXxXxX!                                               @ X 2 1.sXxXfXaXtX X X>.<.3.5X..m N m p.[.@X",
"[.^.[.).mX4XT.o.-.aXfXfXfXfXzXpXuX<X.                                               3 @ 2 1.xXfXfXfXxXxXaXaXtX2.6X1X[ S R F.@X@X",
"(.!.!.^.^.^.^.!.Y -.qXdXfXpXiXpXlXhX                                              . 1 @ 1 1.sXfXfXpXsXxXxXfXfXuXgXJ.v.S 0./.@X@X",
"l._.!.!.`.!.!.!.' ! 9XaXfXfXxXxXxXcXO                                             + # X 4 qXfXfXsX~ 7XfXfXfXfXlXcXP.B.N 0.!.[.'.",
"..n.Q._.E.Q.W.z.u R yXfXfXfXfXfXxXlX+.                                            # # o %.yXfXfXfXqX9XfXfXfXfXpXzXUXo.p q.!.@X@X",
"n u J.Q./.Q.!.`.D.T.1.fXfXfXfXfXxXhX6                                             , X + ;.qXuXzXfXfXxXxXfXfXxXsXqX^ o.u q.n.@X'.",
"s 8 p d.f.n.[.*X[.E.&.9XfXfXfXxXxXhX<X+.                                        X + < 4.uXlXlXzXfXfXfXfXxXzXzXiX3._ } r R q.x.z.",
"S.e i i M D.E.^.*X$XE.*.qXdXwXjXlXsXxXlXo                                       , 3 #.uXxXzXfXdXfXxXsXdXeXlXxXsXwX= y y w y y 0 ",
"$Xd E t | D.~.(.,X,X).W.~ -.0XpXxXxXxXxX/   &                                 # #.3 4.zXfXfXxXfXfXxXzXdXzXxXxXsX5X! y r z.~.~.n.",
"+XS.y.C.D.S.E.| :.<.(.^.^ }.aXfXxXzXxXxXrX@ *                               + 5 4 ;.dXxXxXxXfXfXfXfXxXzXfXsXpXwX! R Q c.W.@X@X@X",
"d.p q.r ( v.B.D.F.W.~.^ 8XfXfXfXxXxXxXxXkX3.~                             X 5 4 qXzXxXzXxXxXfXfXfXfXxXxXfXfXsXgX0 k y q.S.~.~.@X",
"j e s j j v N ` ] _ ,.tXfXfXfXfXxXxXxXxXrXzXxX/                         @ 5 < 5.lXxXsXlXfXfXfXfXxXxXxXzXrXqXqXrX! ; h k R d.n.!.",
"j e K Z D H b l = ~ ;.>XdXdXfXfXfXxXdXlXzXxXxX7X/ .               o 3 5 6 & + =.8XsX>XfXfXfXfXfXfXuX^ 2 4 Y * * O 8 : h k R Q F.",
"j q q.g.Z.r.a.b n 0 & ;.dXdXfXfXaX5.kXxXlXxXxXuXdXeX*.6 O / ~ 6 T #.3 ^ <XkX6 6 3 5 5.lXfXfXfXfXuX^ & _ J._ 0 y u u y h ; h r y ",
"j t V.U.J.Z.g.W m x f 4 9XfXfXdXxX0XsXxXsXxXpXxXxXfXfXxX5XeXrXkXwX3.rXlXxXrXhX4.4.. qXxXxXfXfXxX6.X z X.a.m.m.{ p i p v f h ; q ",
"j t g.J.Y.H.H.g.b b W * ;.rXiX<X6.sXfXfXxXfXsXxXfXxXfXfXgXfXxXzXxXxXyXsXxXsXfXsXuX6.2 ,.5.5.<X8XrX6 z 1X2X2X2X1XW p N r ; 0 { [.",
"l b s.H.H.K.Z.9.a t.y.w ;.iX6.* 7XsXfXfXfXfXfXfXfXfXxXpX6.xXxXxXxXxXfXuXxXxXlXsXsX5X: + 3 * # o X @.P.P.B.2X2X2Xm.p M ; h m.FXPX",
"D p.i.s.b.H.s.i c.~.^.Q -.- = - 7 qXsXfXsXfXrXfXlXdXfXsXkXiXuXxXxXxXxXsXxXfXfXfXyX5X.     O z h : O & X.2X2X2XU.d.0.k 8 _ CXIXIX",
"{ a.a.K H C j 9 y.@X$Xz.} C.J.f.> ,.fXsXaXfXfXfXsXdXfXfXiXfXfXxXxXxXxXxXxXfXuXrX-.> z h z z z ! N.)  .) ( f.l.v.8.Q u q [.BXHXHX",
"' i.i.] b f h h p.A.Q.t.e.g.e.W : ;.>X7XqXzXsXfXfXfXfXfXuXfXfXfXfXxXxXxXxXxX3.* & s p.8.p.s w M /.[ V [ d.Q b.bXz.T.:X: VXBXBXBX",
"A a.a.a.J ( ( j q p.r.r.e.e.E W R -./ > yXsXdXdXfXfXfXfXsXzXfXfXfXfXxXiXuXkX@.+.8.8.8.0.p.x._.'.'.{ J X.c.s.d.'.~ wX@.) BXBXBXBX",
"x G p.p.Z.`.!.J.r n h.j.' t u e.r.o.p & uXdXuXrXrXuXuXaXzXxXlXeX0X5.6./ ~ 6./ X.8.9.8.8.f.%X%X$X$XvX) @.:X,X:Xs.N w p q NXBXBXCX",
"m l b a.'.~.!.~.b...j.L.D 8 d e.r.s s.- yX1.3 * & % 5 >.9XxXuX%.* & O & > : = y E 0.0.W 0.S.S.Q.#X{.! tXdXaXiX5X{ E i 0 D.BXBXBX",
"V h j J.^.~.!.~.`.d.m m t f 9.e.r.g.j.& 3.- X.(./.n.w % &.pX0X: l k } p.0.W 0 R b.v.y.d.} c.v.c.A.bX! 1.yXtXyXfX:XK h r r ) M.B.",
"I j b %X%X!.`.~.~.!.M h s q C.e.y.Z.l.S -...U.K.).`.n.R ~ 9X3.M M S | f.8.W W v.J.x.t.d._ | x.Z.K._.f.> * - 4 8XrXy w 0 r | N.(.",
"O.g D $X*X^.~.!.!.!.v.y W p.c.W.G.G.l.l.o.l.a._ 3.:X] ( C ! o.F k $ <.wXm.E d.`.(.z.t.Q -.:.N._.K.j.) R [ ) : & 6 w y _ } n.B.2X",
"I N.+X$X*X^.[.!.~.W.x.q.c.t q d.Q.J.N.N.l.N.H.{ h h y S H M z l : 2 8XiXpXgXB./.]./.t.x.} y q M t ] | | y M ) M l j k ] Q N.T.(.",
"b.$X$X$X*X^.!.~.~.J.q t.8 f f f j.Z.H.H.m.N.U.m.} S F N [ a m x ; 2 1.aXtXfX:XK.].].y.y.t.W 0 ( @X=X-XHX-XS.E K A j j D Q z.B.T.",
"+X+X$X$X+X!.!.~.Q.S s 8.y r 8 f m.J.U.K.(.Y.1XB.j.l N l.b.q.( n l ; - >XdXxXm.A.].].b.t.t.R ( NXFXHXHXHXBX;XF.E p.m h v ] Q z.B.",
"$X$X$X^.E.E.Q.v.M v d.q.t.l.` q N.B.1X1X1X1X1XY.j.k d.Z.Z.q.8.b v l 0 ^ dXxXm.t./.].C.t.q.e J.2XJXJXHXJXHX-X;XC.9.L g j v ] s.d.",
"~.~.F.S.S.D.b.h j d.s q._._.D.W p.N.U.U.U.U.U.N. .G Z.Z.Z.g.0.A l n h 2 4 ~ } D W n.y.q.u s E.).JXHXJXHXBX;X;X;X@XH.j j B S S ) ",
"t.S.S.S.F.S.d.x s.u i q.K.].].Z.N m.N.N.U.B.N. .N j.Z.Z.J.Z.q.F n n M 0 j z j j k b p Q R E.S.%.E.;X;X;X;X;X;X-XK.s.b I  .) v B ",
"} } p.z.z.( ( v.u q e ' d.K.2XK.u n { j.{  .B B M f.H.Z.J.].s.N ( d.t.t.0.u l l k p p v t S.E.Q $X&X;X&X&X&X-X+XE ( F G  .G b l ",
"r q b b q i s 8.0.8.c b ' d.K.b.b l h l l l m n B { Z.H.J.Y.s.0.v.y.t.t.t.t.` r R 8.Q y r q.E.E.W.W.^.+XW.W.*Xx.D i I G I I b  .",
"D s.9.q.0.t e i.e.g.f.e t L ' p f f h h l n M n l n f.N.N.{ f.Q.'.y.e.t.t.t.0.Q p z.e.t.d.0.t.S.E.E.E.E.W.F.d.S A F I I I  .X.L."
};
