/* XPM */
static char *out[] = {
/* columns rows colors chars-per-pixel */
"64 64 188 2 ",
"   c #000000",
".  c #0B0906",
"X  c #0E0B0A",
"o  c #120E0B",
"O  c #15110D",
"+  c #19160F",
"@  c #171310",
"#  c #1C1613",
"$  c #1D1814",
"%  c #1D1C1A",
"&  c #24150D",
"*  c #24180E",
"=  c #2B1B0E",
"-  c #251A13",
";  c #2B1D14",
":  c #241E19",
">  c #2C1E1A",
",  c #311E15",
"<  c #311E18",
"1  c #2D2116",
"2  c #26211C",
"3  c #2A231C",
"4  c #342216",
"5  c #3A2317",
"6  c #34231A",
"7  c #39261B",
"8  c #36291E",
"9  c #3B2A1D",
"0  c #2C2622",
"q  c #2D2824",
"w  c #322721",
"e  c #342B23",
"r  c #3B2C22",
"t  c #3E3225",
"y  c #353229",
"u  c #42271E",
"i  c #432C1D",
"p  c #47301E",
"a  c #422E21",
"s  c #492E23",
"d  c #443425",
"f  c #4C3424",
"g  c #4D3827",
"h  c #42342A",
"j  c #45392D",
"k  c #4B3A2B",
"l  c #503927",
"z  c #533D2D",
"x  c #593F2C",
"c  c #443B33",
"v  c #4C3D34",
"b  c #453B39",
"n  c #523E32",
"m  c #55402E",
"M  c #5B422D",
"N  c #4F4230",
"B  c #49403B",
"V  c #544334",
"C  c #594534",
"Z  c #5F4A37",
"A  c #53463B",
"S  c #5B4639",
"D  c #52483C",
"F  c #5B4B3C",
"G  c #644B37",
"H  c #614D3E",
"J  c #684E3D",
"K  c #65503C",
"L  c #6D543E",
"P  c #5A4D43",
"I  c #574949",
"U  c #5E5142",
"Y  c #54504D",
"T  c #5D5451",
"R  c #595856",
"E  c #614F41",
"W  c #645343",
"Q  c #6C5543",
"!  c #6D5A45",
"~  c #62544C",
"^  c #6E574F",
"/  c #6C5B4B",
"(  c #725A45",
")  c #735C4A",
"_  c #695B53",
"`  c #786046",
"'  c #75624D",
"]  c #79634D",
"[  c #6D6153",
"{  c #756354",
"}  c #7A6654",
"|  c #7C6A55",
" . c #75665A",
".. c #7A6359",
"X. c #76695A",
"o. c #7C6B5A",
"O. c #756B62",
"+. c #796E62",
"@. c #81654F",
"#. c #826A55",
"$. c #826C5A",
"%. c #85715C",
"&. c #8B745D",
"*. c #86785E",
"=. c #847463",
"-. c #8B7563",
";. c #8D7964",
":. c #85776A",
">. c #887668",
",. c #877B6F",
"<. c #8D7C6C",
"1. c #907762",
"2. c #937C65",
"3. c #927E6A",
"4. c #997F6C",
"5. c #8B7F73",
"6. c #927E73",
"7. c #A07F6C",
"8. c #9F8167",
"9. c #94826C",
"0. c #9B846D",
"q. c #9C886F",
"w. c #8E8173",
"e. c #8D847D",
"r. c #958473",
"t. c #9B8673",
"y. c #9C8974",
"u. c #96877A",
"i. c #9B8679",
"p. c #9D8C7B",
"a. c #9F907C",
"s. c #A18467",
"d. c #A2866C",
"f. c #A4896E",
"g. c #A88A6D",
"h. c #A18771",
"j. c #A38C74",
"k. c #A98D74",
"l. c #A28E7B",
"z. c #A98F79",
"x. c #A59176",
"c. c #A99176",
"v. c #A5927C",
"b. c #AB937C",
"n. c #AC987F",
"m. c #B0967E",
"M. c #B0987C",
"N. c #9D8F84",
"B. c #9F9181",
"V. c #9F948C",
"C. c #A28E81",
"Z. c #A49482",
"A. c #AA9682",
"S. c #A69986",
"D. c #AC9A84",
"F. c #A1968C",
"G. c #A99789",
"H. c #A79D8D",
"J. c #AC9C8A",
"K. c #B09781",
"L. c #B19C85",
"P. c #B29E8C",
"I. c #A29A93",
"U. c #AC9E92",
"Y. c #A49A98",
"T. c #B29F92",
"R. c #AEA08D",
"E. c #B2A286",
"W. c #B3A18D",
"Q. c #B9A28E",
"!. c #AEA293",
"~. c #AEA498",
"^. c #B3A392",
"/. c #B9A591",
"(. c #B6A995",
"). c #BAA995",
"_. c #B7A798",
"`. c #B5AA9C",
"'. c #BAAC9C",
"]. c #B6ACA1",
"[. c #BAAEA2",
"{. c #BCB1A3",
"}. c #BEB5AA",
"|. c #C3AE99",
" X c #C1B09C",
".X c #C3B4A3",
"XX c #CBBFB3",
"oX c #C7C4B5",
/* pixels */
"s.g.K.^.!.^.^.^.(.^.^.H.R.^.^.W.^.T.P.P.U.T.W.R.S.S.D.n.v.Q t.d.t.W i G v.Z.Z.v.p.Z.B.Z.Z.Z.Z.l.Z.G.S.{ v.R.S.J.D.S.r.`.^.R.+.S.",
"s.s.g.K.(.(.(._._.(.(.W.^.^.^.^.^.P.P.D.D.A.A.A.A.Z.v.y.t.! 4.0.h.3.s f -.v.Z.p.p.p.p.p.p.p.v.Z.G.S.Z.{ { S.R.H.J.J.p._.`.`.`.{.",
"f.f.g.j.b.^.(.(.).).)./.(.^.W.W.H.D.A.b.x.x.l.Z.v.y.9.*.-.H ;.q.t.l.J u Q S.B.p.p.r.u.p.p.p.=.Z.D.S.a.{ V X.p.G.S.r. .~.`.`.{.{.",
"! 8.k.m.c.x.A.W.^./.W.W.P.J.D.A.b.b.v.x.v.q.t.p.t.<.*.X.X.^ ' $.t.h.4.a l r.v.p.p.u.2.p.p.p.p.v.v.a.*.+.a./ V V F F u.{.}.'.`.`.",
"8 K 8.9.j.b.b.x.v.b.n.b.v.x.c.x.x.z.j.j.j.y.t.t.t.;.o.} | / W o.4.v.Z.Q p ( v.v.p.N.N.t.p.p.p.v.+.X.! u.B.R.H.r.U.U.!.R.R.'.{.`.",
"; 8 H 2.#.#.%.8.x.y.t.0.q.f.j.j.j.y.y.y.y.y.y.t.0.*.#.| | W / y.J._.P.i.g M 2.z.p.p.Y.N.p.p.p.u.W p.R.'.R.S.D.H.!.G.J.R.R.R.~.{.",
"( 6 r F 9.| ] | ] ;.t.f.9.0.0.0.f.y.y.q.q.q.q.t.2.%.| ] | A =.}.oX'.T.J.E z &.x.y.y.i.p.t.p.a.%.=.!.S.S.'.R.D.G.H.J.D.U.J.R.'.'.",
"8.) < 6 z | *.#.] ] ` &.h.8.9.0.0.0.d.y.q.q.q.q.;.$.} } / D `.oX}.^.J.Z.n f 3.z.t.p.t.i.i.p.Z.>.a.W.R.<.t.S.D.G.J.J.G.D.J.G.!.(.",
"x.f./ 7 > 7 V ) | | | ` ` -.q.9.8.q.q.d.t.q.y.0.;.#.} } W +.oX}.`.~.B.k a V x 0.h.t.i.i.t.p.p.p.^.(.^.^.J.G.P.J.J.D.G.D.G.G.J.J.",
"W.A.j.' 7 < , 4 8 d v K ! ! ] 9.0.0.t.0.0.t.0.9.*.$...$.F X.].~.H.V.k k <.p.l } t.i.t.i.p.p.t.<.J.Q.^.^.W.^.P.U.D.J.G.J.G.D.G.D.",
"Q.L.A.x.} 5 < , = 1 1 6 e h V K | 2.j.j.j.y.0.4.$.$.} o./ U :.,.+.V 9 w.p.l.W V 2.t.i.t.i.p.y.p.R.^.^.^.^.W.P.J.J.J.J.J.G.D.G.G.",
"Q.W.D.b.x.} g 6 4 1 ; ; 1 6 r h V Q #.*.9.q.q.2.#.} / ~ d 3 = 1 1 7 :.l.j.z.r.r { p.u.i.p.p.u.y.J.^.W.^.^.W.^.W.J.J.G.D.H.J.G.G.",
"E.L.m.b.t.2.*.H 9 6 < , > > 4 7 k g W | %.%.;.-...k = 1 ; r <.r.<.r.l.j.j.l.v./ F i.p.p.l.N.p.<.P.W.W.W.W.^.^.J.J.J.G.A.A.D.G.G.",
"L.L.x.j.8.2.%.$.^ r 7 6 6 6 = , r g N ! *.0.0.>.t - j r.>.Z.p.p.a.a.j.v.b.A.v.p.k i.v.p.p.Z.A.;.J.S.J.P.W.W.W.P.J.A.D.A.A.S.D.J.",
"| ( L Q ! ( ( K n < 6 6 6 6 5 5 5 5 4 a C ) { t - j Z.a.C.v.Z.h.y.j.j.v.n.L.A.b.W { C.p.v.Z.Z.;.J.D.A.L.D.A.A.A.A.D.A.v.b.Z.Z.W.",
"( ! Z V h i s r ; , P +.>./ d 5 5 6 6 6 6 7 ; - t p.p.t.t.i.h.y.1.q.j.b.b.v.v.v.=.s E <.u.<.Z.<.J.W.A.b.b.b.b.b.b.l.v.l.l.Z.S.r.",
"z 9 ; * $ - r _ >.i.p.r.0.2.$.u 7 5 5 5 7 1 1 1 P p.9.2.2.2.4.4.t.y.z.x.l.x.b.v.r.7 , 9 V =.Z.l.-.l.j.z.x.j.j.j.j.j.l.z.p.u._ / ",
"* w b c w  .X                                                                                                                   ",
"6.A.A.).^.y..                                                                                                                   ",
"b.b.Q.Q.y.l..                                                                                                                   ",
"L./.|.x.x.b..                                                                                                                   ",
"|. XD.n.A.L..                                                                                                                   ",
"E.P.A.n.A.D.                                                                                                                    ",
".X/.W.D.L.L.                                                                                                                    ",
"Q.).Q.D.D.L.                                                                                                                    ",
"W.L.E.E.L.P.                                                                                                                    ",
"Q.L.L.D.L.P.                                                                                                                    ",
"Q.W.E.E.P.P.                                                                                                                    ",
"Q.Q.P.P.P.L.                                                                                                                    ",
"Q.Q.Q.P.P.K.                                                                                                                    ",
"/.Q.Q.P.P.b.                                                                                                                    ",
"_.Q.P.Q.P.m.                                                                                                                    ",
"Q.P.Q.Q.W.b.                                                                                                                    ",
"Q.Q.P.W.Q.A.                                                                                                                    ",
"Q.Q.E.W.P.z.                                                                                                                    ",
"M.E.E.E.L.y.                                                                                                                    ",
"k.m.E.L.L.t.                                                                                                                    ",
"k.k.m.E.E.t.                                                                                                                    ",
"c.g.k.K.L.t.                                                                                                                    ",
"k.g.k.b.L.t.                                                                                                                    ",
"c.k.k.k.m.t.                                                                                                                    ",
"M.c.k.k.k.;.                                                                                                                    ",
"L m.b.z.b.%.                                                                                                                    ",
"g #.m.z.b.;.                                                                                                                    ",
"a x j.j.x.-.                                                                                                                    ",
", f #.b.j.=.                                                                                                                    ",
", u G x.x.<.3 3 3 3 2 3 3 0 # # @ O o O o . . + 0 0 % @ X . X O o O - - @ X % q 2 : 3 0 q q q q q 0 q w q q q q q q 0 O X O 3 2 ",
"i 5 M @.A.9.-.<.=.w.9.3./ e ; & - ; 4 > - v U h j.b.x.v.i.w.w.~ g m E A y R I.y.j.j.z.D.J.^.P.P.W.W.W.P.P.P.P.P.T.P.W.v.i 7 H D ",
"G u s x v 9 < w > 7 r w - - - & - & 6 ~ 5.l.7.^ F x.j.0.v.P.Z.p.m k B B Y V.p.j.l.x.A.L.P.P.^.P.W.E.W.P.P.P.P.P.P.P.P.T.6.7 ; > ",
", < < , > > > > : > - & - 6 e P X.i.p.i.8.7.7.d...V { ;.9.S.l.u.D I T O.Y.S.j.k.z.A.D.P.L.P.P.J.W./.P.W.W.P.P.P.T.P.T.P.T.<.7 , ",
"< < ; ; > , > ; ; - ; ; 6 r.y.p.t.4.0.f.h.d.d.s.d.0.o.k k v.v.9.w.U.F.Z.p.l.v.b.A.L.P.P.P.P.P.P.P.'._.E.P.J.P.P.P.P.L.P.P.J.<., ",
"v [ <.r.C.N.C.i.,. .< < 9 { q.t.j.j.j.j.j.j.k.k.j.d.j.9.N S A.r.*.r.p.p.l.v.b.A.D.P.P.P.T.T.^.J.P.^.^.P.P.^.J.P.P.D.L.P.J.J.P.=.",
"l.o.Z.Z.D.L.P.K.D.L...u u #.j.j.v.x.v.x.x.x.c.k.k.g.j.d.9.W ! b.o.p.a.a.v.n.S.D.P.P.T.W.^.^.W.W.P.D.J.!.W.R.^.P.W.D.D.D.P.W.J.E.",
"z.Z.r.b.A.K.K.m.M.L.K.;.d M l.z.x.x.x.b.x.b.b.c.b.z.j.g.s.4.W S ' q.a.B.Z.G.H.J.J.T.W.R.W.W.Q.W.W.P.W.^.W.R.P.W.L.D.D.n.A.J.n.n.",
"A.c.b.b.b.K.b.z.c.b.c.z.4.d f z.v.b.b.b.b.b.z.A.W.W.b.c.c.j.9.[ d } a.b.D.D.J.P.^.^.^.^.v.y.D.R.P.^.P.R.R.P.T.W.W.J.n.A.n.n.y.F ",
"4.A.b.b.b.b.b.b.b.b.b.k.k.2.d C v.v.x.n.A.A.A.P.).).m.b.x.k.d.q.X.W a.Z.A.J.J.!.P.W.^.Z.p.H.J.^.^.W.T.T.W.P.J.J.y.A.R.D.n.r.t - ",
"m &.A.b.b.c.b.b.c.M.c.c.k.k.4.5 z ) =.A.A.A.D.D.W.Q.L.n.x.z.h.;.g N X.l.A.D.J.P.W.^.^.a.B.Z.R._.^.P.^.P.S.J.J.J.Z.X.w.v.b.t 1 - ",
"9 d 1.b.b.b.c.c.M.c.m.c.c.k.k.$.= Q P.b.b.A.A.D.J.L.A.m.b.l.$.j T ;.C F t.S.D.P.W.^.(.(.!.H.H.].U.^.P.^.^.J.J.D.D.a.V ~ r.t - - ",
"( 7 g q.c.b.c.m.c.m.k.c.c.c.k.k.#.7 Q D.D.D.D.L.L.A.A.b.6.P D N.W.b.v.F V r.Z.S.!.^.^.^.`.`.].}.^.^.^.W.J.T.J.S.S.Z.<.k F 1 * 6 ",
"#.( 7 x j.b.c.m.m.c.m.c.b.b.c.k.j.1.8 g y.L.D.L.L.K.v.{ c P ~.R.v.b.v.a.C n <.i.Q.J.P.W.R.`.}.).^.T.T.P.U.P.P.J.D.Z.u._ 3 & > F ",
"t.#.Q 5 ] b.b.b.m.b.M.b.m.k.c.k.c.x.9.z 9 } D.D.v.o.N c e.XX{.(.Q.A.v.v.i.n C >.Z.D.A.D.K.P.P./.^.^.T.J.J.P.J.J.G.Z.r.~ & - k ;.",
"Z.Z.1.m g j.b.M.m.m.K.m.b.m.b.m.c.c.g.j.} 4 A H h v 5.}.(.S.b.v.A.P.W.P.P.D.d z =.W.Z.b.A.L.L.D.L.P.^.J.^.W.^.G.v.y.%.> = k $.4.",
"l.I.S.$.s %.n.n.K.K.K.n.b.b.m.m.b.c.k.b.a.;.d 4 P {.~.Z.b.v.b.v.j.x.l.z.x.b.3.s n <.S.b.b.A.A.b.b.A.J.J.H.D.G.Z.y.2.V & 9 C V %.",
"h.l.[.j.E Q L.L.L.K.A.L.K.m.m.m.m.m.m.).(.y.t.C o.R.A.Z.Z.b.b.v.x.c.z.z.z.x.x.o.u F 9.b.b.b.c.b.z.z.A.b.A.Z.v.p.3.o.; < S | ) ) "
};
