/* XPM */
static char *out[] = {
/* columns rows colors chars-per-pixel */
"64 64 184 2 ",
"   c #000000",
".  c #0E0604",
"X  c #0D0A06",
"o  c #0E0C0A",
"O  c #120E0B",
"+  c #15110D",
"@  c #19150E",
"#  c #171310",
"$  c #1C1613",
"%  c #1D1814",
"&  c #1D1C1A",
"*  c #23150D",
"=  c #2B1B0E",
"-  c #251A13",
";  c #2B1D14",
":  c #241E19",
">  c #2C1E1A",
",  c #311E15",
"<  c #311E18",
"1  c #2D2116",
"2  c #26211C",
"3  c #2A231D",
"4  c #342216",
"5  c #392316",
"6  c #34231A",
"7  c #39261B",
"8  c #36291E",
"9  c #3B2A1D",
"0  c #2C2622",
"q  c #2D2824",
"w  c #362C22",
"e  c #3B2C21",
"r  c #3E3225",
"t  c #353229",
"y  c #42271E",
"u  c #432C1D",
"i  c #47301E",
"p  c #422E22",
"a  c #492E23",
"s  c #443425",
"d  c #4B3424",
"f  c #42342A",
"g  c #45392D",
"h  c #4B3A2B",
"j  c #503927",
"k  c #533D2D",
"l  c #593F2C",
"z  c #443C33",
"x  c #4C3D34",
"c  c #523E32",
"v  c #54412E",
"b  c #5B422D",
"n  c #4F4230",
"m  c #49403B",
"M  c #544334",
"N  c #594534",
"B  c #5F4A37",
"V  c #53463B",
"C  c #5B4639",
"Z  c #52483C",
"A  c #5B4B3C",
"S  c #614D3E",
"D  c #684E3D",
"F  c #64513C",
"G  c #6D543E",
"H  c #5A4D43",
"J  c #574949",
"K  c #5E5142",
"L  c #54504D",
"P  c #5D5451",
"I  c #595856",
"U  c #614F41",
"Y  c #645343",
"T  c #6C5543",
"R  c #6D5A45",
"E  c #62544C",
"W  c #6E574F",
"Q  c #6C5B4B",
"!  c #715746",
"~  c #725A45",
"^  c #735C4A",
"/  c #635852",
"(  c #6F5E56",
")  c #786046",
"_  c #75624D",
"`  c #79634D",
"'  c #6D6153",
"]  c #756354",
"[  c #7A6654",
"{  c #7C6A55",
"}  c #766659",
"|  c #7A6359",
" . c #76695A",
".. c #7C6B5A",
"X. c #756B62",
"o. c #796E62",
"O. c #826A55",
"+. c #826C5A",
"@. c #85715C",
"#. c #8B745D",
"$. c #86785E",
"%. c #847363",
"&. c #8A7563",
"*. c #8D7964",
"=. c #85776A",
"-. c #887668",
";. c #877B6F",
":. c #8D7C6C",
">. c #907762",
",. c #937C65",
"<. c #927E6A",
"1. c #997F6C",
"2. c #8B7F73",
"3. c #937F74",
"4. c #A07F6C",
"5. c #9F8167",
"6. c #94826B",
"7. c #9B846D",
"8. c #9C886F",
"9. c #8E8173",
"0. c #8D847D",
"q. c #958473",
"w. c #9B8673",
"e. c #9C8974",
"r. c #95847A",
"t. c #9B8679",
"y. c #978A7A",
"u. c #9D8C7B",
"i. c #9F907C",
"p. c #A18467",
"a. c #A2866C",
"s. c #A8866D",
"d. c #A4896E",
"f. c #A18771",
"g. c #A38C74",
"h. c #A98E75",
"j. c #A28E7B",
"k. c #A98F79",
"l. c #A59176",
"z. c #A99176",
"x. c #A5927C",
"c. c #AB937C",
"v. c #AC987F",
"b. c #B0967E",
"n. c #9D8F84",
"m. c #9F9181",
"M. c #9F948C",
"N. c #A28E81",
"B. c #A49482",
"V. c #AA9682",
"C. c #A69986",
"Z. c #AC9984",
"A. c #A1968C",
"S. c #A99789",
"D. c #A79D8D",
"F. c #AC9C8A",
"G. c #B09781",
"H. c #B19B85",
"J. c #B19E8C",
"K. c #A29A93",
"L. c #AC9E92",
"P. c #A49A98",
"I. c #B29F92",
"U. c #AEA08D",
"Y. c #B2A18E",
"T. c #B8A38E",
"R. c #AEA293",
"E. c #AEA498",
"W. c #B3A392",
"Q. c #B8A691",
"!. c #B6A995",
"~. c #BAA996",
"^. c #B7A798",
"/. c #B9A598",
"(. c #B5AA9C",
"). c #BAAC9C",
"_. c #B6ACA1",
"`. c #BAAEA2",
"'. c #BCB1A3",
"]. c #BEB5AA",
"[. c #C2B3A4",
"{. c #C6BFAD",
"}. c #C7C4B5",
"|. c #C8C1B6",
/* pixels */
"p.s.G.W.W.W.W.W.!.W.W.U.U.W.W.Y.W.W.I.J.J.L.W.U.Z.Z.C.Z.x.! 7.w.w.T u S k.x.B.B.m.B.u.m.x.B.B.x.B.C.C.] x.U.C.U.C.C.q.).R.C.=.m.",
"p.p.s.H.!.^.^.!.!.^.Q.Y.R.W.W.W.W.J.J.Z.Z.V.V.V.C.x.i.e.t.R 1.7.w.<.a d &.x.B.u.u.u.u.n.u.u.x.B.S.C.B.] ] C.D.F.F.J.u.(.(._.'.'.",
"d.d.d.d.c.Y.!.!.~.~.!.W.!.W.Y.Y.Z.V.V.B.x.l.j.x.x.y.6.$.%.F *.8.w.j.D u G C.u.u.u.w.e.y.u.u.%.B.S.C.m.] M  .u.C.B.q. .W._.(.(.'.",
"~ p.z.b.z.l.Z.Y.W.Q.T.Y.J.F.Z.v.v.V.l.l.k.8.w.u.8.6.@.....R _ ..1.g.1.p j w.B.u.y.t.<.y.u.u.j.x.x.x.%. .x.Q M V C A y.'.].).(.(.",
"8 F 5.6.g.c.c.l.j.v.v.c.x.l.z.l.l.k.g.g.g.e.8.t.q.*.+.{ ] Q G ..6.B.B.T s ~ x.j.y.n.m.w.u.u.i.x.%. .E y.B.U.F.9.L.R.R.F.U.).'.).",
"; 8 S 6.O.O.@.7.l.g.7.e.8.d.g.g.g.e.e.e.8.e.w.w.8.#.+.[ { Y Q y.J./.F.w.d b <.l.g.u.P.n.y.u.u.r.S u.U.).U.C.C.U.R.S.F.U.U.U.E.`.",
"~ 6 7 A ,.{ ` ` ` *.8.7.7.1.7.7.7.d.e.e.8.e.8.w.*.@.[ ` { N o.].{.).L.J.U l #.h.t.t.t.u.e.u.u.@.%.R.C.C.~.U.D.C.D.F.S.J.F.U.).(.",
"5.^ 6 6 v { *.{ ` _ ) #.7.7.7.7.8.7.d.7.8.8.8.8.*.+.[ { Q Z `.}.].W.F.B.c d <.k.g.y.w.t.t.u.B.*.i.U.Y.6.w.B.Z.Z.F.F.F.Z.D.Z.R.!.",
"l.a.R 7 ; 7 M ^ { { { ) ) &.8.7.7.7.8.a.8.8.e.8.*.+.[ [ Y X.}.].(.R.n.h p N l 7.f.t.q.t.t.e.j.u.W.W.Y.W.F.F.F.F.Z.F.S.S.S.S.S.F.",
"Y.Z.j._ 7 < < 4 8 s n S R R [ ,.8.8.7.w.w.8.7.7.#...[ ..A X._.W.R.M.g h :.u.j [ q.t.w.w.t.j.w.;.U.W.W.W.Y.I.W.F.Z.F.F.V.V.H.D.S.",
"T.H.V.k.{ 7 < , = ; 4 6 w f M F ` 6.g.g.w.g.7.<.+.{ { ..Q K =.;.o.n 9 q.u.j.Y c ,.t.t.t.y.u.e.u.U.W.W.W.W.J.Y.F.F.F.F.F.C.F.F.V.",
"T.J.Z.v.d.[ h 6 4 1 ; ; ; 3 r r M G O.&.6.7.8.,.+.[ Q E s 6 = ; 1 7 =.j.g.k.q.e ] t.e.u.u.u.y.w.U.Y.T.W.W.T.W.J.F.F.S.F.F.C.F.S.",
"Y.Y.b.z.d.,.#.A e < < , < ; 6 8 h h Y { @.@.*.&.| g = 1 ; e 2.q.;.e.j.g.h.j.x.Q C j.j.u.u.B.u.:.J.Y.Y.Y.W.Y.W.Y.F.Z.S.S.S.S.C.C.",
"H.b.z.g.7.,.@.+.W e 7 7 6 < , 4 e d v R #.7.8.%.r = g q.-.B.u.u.i.u.g.x.v.V.x.j.h t.j.u.u.B.V.-.Z.S.S.J.J.J.Y.F.F.V.V.V.V.V.S.H.",
"{ ~ G R R ~ ~ G c < 6 6 6 6 4 4 5 6 4 p N ] ] r - g B.x.N.x.k.t.e.g.h.x.v.J.B.B.U | B.u.u.B.B.*.J.Z.Z.H.H.Z.Z.Z.V.V.V.x.x.B.S.J.",
"~ R B v s p u 8 ; < H o.-.^ p 5 5 5 6 6 6 4 ; ; r u.y.w.w.t.f.g.>.8.g.x.l.z.z.x.%.p S :.y.<.B.:.F.J.V.v.c.z.c.c.c.x.x.N.k.B.B.w.",
"v 8 > % % - e ( =.t.u.q.7.,.+.y 7 5 5 5 7 1 1 1 H u.6.,.,.,.6.1.8.e.j.l.k.k.v.x.q.7 , 9 M %.B.j.&.j.g.h.l.h.g.g.e.g.j.k.u.r.' Q ",
"                                                                                                                                ",
"                                                                                                                                ",
"                                                                                                                                ",
"                                                                                                                                ",
"                                                                                                                                ",
"                                                                                                                                ",
"                                                                                                                                ",
"                                                                                                                                ",
"                                                                                                                                ",
"                                                                                                                                ",
"                                                                                                                                ",
"                                                                                                                                ",
"                                                                                                                                ",
"                                                                                                                                ",
"                                                                                                                                ",
"                                                                                                                                ",
"                                                                                                                                ",
"                                                                                                                                ",
"                                                                                                                                ",
"                                                                                                                                ",
"                                                                                                                                ",
"                                                                                                                                ",
"                                                                                                                                ",
"                                                                                                                                ",
"                                                                                                                                ",
"                                                                                                                                ",
"                                                                                                                                ",
"                                                                                                                                ",
"                                                                                                                                ",
"X X + 3 3 3 3 3 3 3 2 3 3 2 $ $ # + + + + X . @ 0 0 & # o X X O O + $ - # o & q 2 : 3 0 q q q 0 0 q q q q q q q q q q O X + 3 2 ",
"u 5 b O.V.w.&.-.%.6.6.<.( w ; * - ; ; > - z K g h.x.l.x.t.9.9./ h b U C t I K.e.g.g.k.Z.F.Y.I.J.Y.T.Y.J.J.J.J.J.J.I.Y.i.i 7 S Z ",
"S < j l x y < 0 < 7 e w - - * - - * 6 E 2.j.4.W C l.k.6.B.J.B.u.v g x m L M.j.e.g.k.Z.J.H.J.W.J.Y.Y.Y.H.J.J.J.J.J.I.J.I.q.5 ; > ",
", 5 < , > > 3 > > : - - - 6 w H o.q.j.t.5.4.4.a.| M [ &.6.Z.u.y.V J P X.P.B.g.h.k.V.H.H.J.J.J.J.Y.T.Y.Y.J.J.H.J.J.J.J.I.I.2.4 < ",
"< < ; ; ; < > - ; - - ; 6 q.w.t.w.1.7.w.f.s.a.p.s.7...h k x.x.6.9.R.A.C.u.j.x.k.V.Z.J.J.J.J.J.J.I.).Q.Y.J.Y.J.J.J.J.J.J.J.F.:.5 ",
"x ( :.3.N.n.N.t.;.} < < 9 ] e.w.f.g.h.h.g.g.g.h.d.d.g.6.h N C.w.$.q.y.u.x.x.v.v.S.H.J.I.J.I.J.J.H.J.T.T.J.J.J.J.J.H.H.H.F.F.J.%.",
"j...x.B.F.Z.H.H.b.U.| y y O.g.g.l.z.l.z.l.l.z.h.g.g.d.a.7.F Q x...y.u.x.x.x.V.F.J.J.W.Y.W.Y.W.J.J.F.U.U.U.U.W.F.Y.Z.Z.v.J.J.F.F.",
"k.B.w.v.V.G.G.b.b.b.H.*.s l j.k.l.c.x.x.v.c.z.z.c.k.g.h.p.6.Y N _ e.u.B.C.Z.U.F.J.Y.W.U.Y.Y.Y.Y.Y.J.Y.W.U.Y.Y.J.H.Z.Z.v.Z.Z.v.v.",
"V.c.v.c.c.b.c.c.z.z.z.h.<.d d l.x.x.c.x.l.v.v.V.T.T.c.z.l.g.1.' s [ i.B.V.Z.F.Y.W.W.W.W.u.l.C.Y.T.L.Y.F.Y.I.J.Y.Y.H.v.Z.C.x.i.B ",
"1.c.x.z.b.c.k.c.z.c.b.h.h.,.f N x.l.l.v.v.V.V.Z.~.T.v.c.l.k.a.8. .Y x.x.S.F.F.L.J.W.W.x.i.F.F.R.Y.Y.I.W.Y.J.J.F.e.C.U.Z.v.8.r - ",
"v #.v.v.c.z.z.z.b.c.b.h.h.h.5.4 k ^ $.V.V.V.S.H.Y.T.H.c.l.h.g.>.h n ..j.B.V.F.Y.Y.W.W.x.m.C.U.^.I.W.W.J.S.F.F.F.B...<.B.B.r - - ",
"9 d >.z.c.c.z.b.b.b.b.z.h.h.z.O.= R J.v.c.V.H.V.H.Z.Z.b.x.j.+.g P *.C N e.S.C.J.W.W.W.W.R.D.D._.L.W.J.W.Y.J.F.Z.C.i.V Y q.s - ; ",
"T 7 j 8.c.c.c.b.z.z.z.z.z.z.z.h.| 5 T Z.V.V.H.H.H.H.Z.c.q.H Z n.Y.x.x.K N q.x.S.U.W.W.W.(.(._.].W.Y.W.J.F.I.F.B.S.B.:.g H 1 * 6 ",
"O.) 7 k g.c.z.z.z.b.b.z.c.z.h.h.h.>.8 h e.H.V.H.H.Z.x.] z H E.Y.x.z.x.x.M c :.e.T.J.J.J.U.).].!.W.Y.W.J.L.J.J.F.C.B.w.' 3 * ; A ",
"w.@.G 4 ^ b.c.b.b.c.b.c.c.z.c.h.z.z.7.h 9 [ Z.Z.j...x z 0.|.[.Q.Y.Z.x.x.w.c N &.B.F.v.Z.H.J.I.Q.W.W.J.F.J.J.F.D.C.x.q.E * - k &.",
"N.B.>.v j f.c.b.b.b.G.b.c.b.z.b.z.z.s.g.[ 4 N A f x 2.].W.C.x.x.V.H.T.J.Q.B.s c %.U.x.V.b.V.H.G.H.I.J.I.W.Y.Y.F.B.w.%.1 ; j @.,.",
"k.K.B.+.a @.v.v.G.H.v.c.v.c.b.b.c.z.z.c.l.=.s 6 H '.W.C.v.x.x.x.k.x.k.k.l.l.<.s x 6.B.v.c.c.V.c.c.V.F.F.F.C.S.B.e.,.M * 9 b M #.",
"f.N.`.g.U R H.Z.b.H.H.b.H.G.b.b.G.c.H.Q.!.g.e.N ..F.V.B.x.c.x.x.k.h.k.k.j.k.k.+.u C 6.V.c.c.c.k.k.c.x.v.B.V.x.u.<...- 6 C | ] ! "
};
