/* XPM */
static char *out[] = {
/* columns rows colors chars-per-pixel */
"64 64 182 2 ",
"   c #000000",
".  c #0E0604",
"X  c #0B0907",
"o  c #0D0C0A",
"O  c #110E0B",
"+  c #15110E",
"@  c #19150E",
"#  c #171310",
"$  c #1C1613",
"%  c #1C1813",
"&  c #1D1C1A",
"*  c #23150D",
"=  c #2B1B0E",
"-  c #251A13",
";  c #2B1D14",
":  c #221D19",
">  c #2C1E1A",
",  c #311E15",
"<  c #311E18",
"1  c #2D2116",
"2  c #26221D",
"3  c #2A231D",
"4  c #342316",
"5  c #392316",
"6  c #34231A",
"7  c #39261B",
"8  c #36291D",
"9  c #3B2A1D",
"0  c #2C2521",
"q  c #2D2923",
"w  c #322721",
"e  c #372B21",
"r  c #3B2C21",
"t  c #3E3225",
"y  c #393329",
"u  c #42271E",
"i  c #432C1D",
"p  c #47301E",
"a  c #422E22",
"s  c #492E23",
"d  c #443424",
"f  c #4B3524",
"g  c #42342A",
"h  c #46392D",
"j  c #4B3A2B",
"k  c #503927",
"l  c #523D2E",
"z  c #593F2C",
"x  c #453D34",
"c  c #4C3D34",
"v  c #523E32",
"b  c #54412E",
"n  c #5B422D",
"m  c #4D4134",
"M  c #49403B",
"N  c #544334",
"B  c #5A4634",
"V  c #53463B",
"C  c #5B453A",
"Z  c #54483C",
"A  c #5C4B3C",
"S  c #614739",
"D  c #624D3D",
"F  c #684E3D",
"G  c #64513C",
"H  c #6D543E",
"J  c #5A4D43",
"K  c #574949",
"L  c #5E5142",
"P  c #5D5451",
"I  c #595856",
"U  c #614F41",
"Y  c #645343",
"T  c #6B5543",
"R  c #6D5A45",
"E  c #62544C",
"W  c #6E574F",
"Q  c #6C5B4C",
"!  c #715746",
"~  c #725A45",
"^  c #735C4A",
"/  c #635852",
"(  c #6F5E56",
")  c #786046",
"_  c #75624D",
"`  c #79634D",
"'  c #6D6153",
"]  c #746353",
"[  c #7A6654",
"{  c #7C6A55",
"}  c #76665B",
"|  c #7A6359",
" . c #76695A",
".. c #7C6B5B",
"X. c #756B62",
"o. c #796E62",
"O. c #83644F",
"+. c #826A55",
"@. c #826D5A",
"#. c #85715C",
"$. c #8B745D",
"%. c #86785E",
"&. c #826F68",
"*. c #837363",
"=. c #8A7563",
"-. c #8D7A64",
";. c #887668",
":. c #867A6C",
">. c #8D7C6C",
",. c #907762",
"<. c #937C66",
"1. c #9B7D67",
"2. c #937D6B",
"3. c #997E6B",
"4. c #8C7E74",
"5. c #947D74",
"6. c #A07F6C",
"7. c #9F8167",
"8. c #95816C",
"9. c #9B836D",
"0. c #9C886F",
"q. c #8E8172",
"w. c #958473",
"e. c #9B8673",
"r. c #9C8974",
"t. c #94867B",
"y. c #9C8679",
"u. c #978A7A",
"i. c #9D8C7B",
"p. c #9F907C",
"a. c #A18467",
"s. c #A2866C",
"d. c #A8866D",
"f. c #A4896E",
"g. c #A18771",
"h. c #A38C74",
"j. c #A98E75",
"k. c #A28E7B",
"l. c #A98F79",
"z. c #A59176",
"x. c #A99176",
"c. c #A5927C",
"v. c #AB937C",
"b. c #AC987F",
"n. c #B0967E",
"m. c #9D8F84",
"M. c #9E9181",
"N. c #9F948C",
"B. c #A28E82",
"V. c #A49482",
"C. c #AA9683",
"Z. c #A69986",
"A. c #AC9984",
"S. c #A3978B",
"D. c #A99789",
"F. c #A69B8A",
"G. c #AC9C8B",
"H. c #B09781",
"J. c #B19B85",
"K. c #B19E8C",
"L. c #A29A93",
"P. c #AD9E91",
"I. c #A49A98",
"U. c #B39F92",
"Y. c #AEA08D",
"T. c #B2A18E",
"R. c #B8A38E",
"E. c #AEA292",
"W. c #AEA498",
"Q. c #B3A392",
"!. c #B8A691",
"~. c #B6A995",
"^. c #BAA996",
"/. c #B7A798",
"(. c #B5AA9C",
"). c #BAAC9D",
"_. c #B5ACA1",
"`. c #BAAEA2",
"'. c #BCB1A3",
"]. c #BEB5AA",
"[. c #C6BFAD",
"{. c #C7C4B5",
/* pixels */
"a.d.H.Q.E.Q.Q.Q.Q.Q.Y.Y.Y.Q.Q.Q.Q.Q.K.K.G.Q.T.Y.Z.Z.Z.b.c.R 9.3.g.T p S c.c.V.V.m.p.M.M.V.V.V.k.V.A.Z.] p.Y.F.G.A.Z.w.(.Q.F.*.M.",
"a.a.d.J.^./.^.^.(.^.~.T.Y.Q.Q.Q.Q.K.K.A.A.C.C.C.C.C.z.r.h.T 3.e.e.2.p f =.c.V.i.i.i.i.k.k.u.V.V.D.Z.V.] ] C.Y.G.G.G.i.(._._.'.'.",
"f.f.f.f.x.Q.^.^.^.^.~.!.^.Q.T.T.K.C.C.V.c.v.c.c.c.r.q.%.=.G -.9.e.k.F i Y A.i.i.u.r.e.u.i.k.*.V.A.F.M.] N  .i.F.V.w. .Q.)._._._.",
"~ a.x.n.z.z.C.T.Q.!.R.T.G.G.A.b.v.c.c.z.k.9.e.i.0.q.#.{  .Q ] @.e.h.5.i k e.V.i.i.y.2.r.u.i.k.c.c.c.*. .p.Q N N Z A u.'.'.).(._.",
"8 G 8.8.j.v.x.z.c.v.C.x.v.v.z.c.h.c.h.h.h.r.9.r.e.-.@.[  .Q G ..8.c.C.T p ^ v.p.u.M.N.w.i.i.i.V.o...R u.M.Y.G.w.P.P.E.G.E.).'.).",
"; 8 D 2.+.+.%.9.z.h.0.0.9.f.f.h.h.r.r.f.r.r.r.r.9.$.{ { [ R Q u.G./.G.y.f n <.c.h.u.I.m.r.i.i.w.G u.Y.).Y.Z.Z.G.Q.F.G.E.Y.Y.W.'.",
"~ 5 7 A <.{ ` ` ` -.0.0.8.7.9.9.0.h.0.r.0.r.0.e.q.#.{ ` [ N *.].{.).G.G.F z $.h.h.r.y.y.u.y.p.#.*.Y.Z.F.^.Y.D.Z.G.G.A.G.G.Y.).).",
"9.^ 6 6 b { $.@.` ` ) $.r.9.8.9.9.9.f.0.0.0.e.9.-.+.` { Q Z _.{.].Q.P.V.l f 2.c.i.y.r.r.y.i.V.;.p.Q.E.>.e.Z.A.G.G.G.G.A.F.G.Y.~.",
"j.f.R 7 ; 5 N ^ { { { ` ) =.9.9.8.7.9.0.9.0.0.9.=.+.{ [ Y X.{.].(.W.M.j a N z 0.g.y.y.e.y.i.i.i.Q.Q.R.Q.G.G.G.G.G.D.A.D.D.G.C.G.",
"T.C.k._ 8 6 ; 4 8 d j G R ~ ` 8.0.9.0.r.f.0.e.9.$.@.[ ..A X._.W.F.S.j c 2.u.k [ 5.g.e.e.y.k.r.>.G.Q.Q.Q.Q.Q.K.G.G.F.G.G.A.D.D.D.",
"R.J.C.k.{ 5 , , 1 ; 1 6 e g N Y { 8.h.h.e.r.0.3.@.@.] ..Q L :.:.o.m 9 w.k.k.Y N 2.e.y.y.u.y.r.i.Y.Q.Q.Q.Q.K.G.T.K.G.A.G.A.G.D.G.",
"T.T.J.v.h.{ j 7 4 ; ; ; 1 6 r t N T +.$.8.0.0.,.@.[ ' Y g 4 = 1 1 7 *.k.h.k.w.r ] y.u.u.i.k.w.u.Y.Q.T.Q.Q.R.Q.T.G.A.D.D.D.D.D.A.",
"R.R.b.x.f.<.$.S r < < < > ; 4 8 j j H { #.$.<.=.[ h = 4 ; r 4.w.>.u.k.k.h.k.c.Q A k.y.i.c.m.u.2.K.G.T.T.R.T.T.T.G.G.D.C.Z.D.D.F.",
"J.n.z.h.8.8.#.@.W r 7 7 6 6 ; , 9 h m R $.9.8.*.t - g w.;.C.r.y.h.i.h.c.v.C.z.k.j w.V.k.p.c.C.-.G.A.G.K.T.T.T.G.A.A.C.V.V.A.A.G.",
"+.~ H T T ~ ~ H v , 6 6 6 6 5 4 5 5 6 a V ` _ t - h S.k.B.c.v.e.r.h.h.c.b.K.c.C.U [ B.y.i.V.V.-.G.A.C.J.A.C.C.C.C.A.C.v.V.C.C.T.",
"R H S N g a i 8 > , J o.;.^ a 5 5 5 6 < 6 4 > ; t i.u.e.e.e.y.h.,.0.h.v.x.v.c.c.=.a U >.u.>.V.>.G.R.C.v.C.v.v.v.v.l.c.k.k.k.V.u.",
"b r 1 % % - r ( &.y.i.e.8.8.@.u 5 7 5 5 5 1 1 1 J i.8.<.<.<.8.3.9.r.h.c.k.c.c.v.w.7 , 9 N *.V.k.=.k.h.k.x.k.h.h.r.r.k.k.k.t.( Q ",
"                                                                                                            <.f.8.2.@.Q A N x y ",
"                                                                                                            T Y G B l j e 1 > c ",
"                                                                                                            S S z a w 8 A } t.U.",
"                                                                                                            3.w.5.4.4.B.m.5.5.6.",
"                                                                                                            ,.<.5.3.1.3.3.2.3.9.",
"                                                                                                            1.3.1.1.3.2.3.3.9.9.",
"                                                                                                            3.3.3.5.e.2.3.3.9.e.",
"                                                                                                            2.2.5.U.F.F.8.9.e.k.",
"                                                                                                            2.2.k.).Y.(.Q.w.h.V.",
"                                                                                                            r.8.2.9.i.)._.W.y.C.",
"                                                                                                            V.k.5...-.8.G.).D.F.",
"                                                                                                            G.Z.c.o.H { R  .q.V.",
"                                                                                                          X Y.G.Y.V.q.Q L m o.Z.",
"                                                                                                          X G.Q.E.Y.Y.N.q.o.p.Y.",
"                                                                                                          X C.~.E.E.E.E.E.Y.N.Y.",
"                                                                                                          X A.T.~.E.E.E.Q.E.E.G.",
"                                                                                                          X C.Z.^.Y.E.E.P.Q.Q.E.",
"                                                                                                          o b.b.Q.Y.G.F.G.G.G.G.",
"                                                                                                          X M.V.C.Y.A.V.V.V.Z.D.",
"                                                                                                            { c.V.V.C.V.V.c.V.V.",
"                                                                                                          o h @.c.c.V.V.V.c.V.V.",
"                                                                                                          # 4 N 2.k.c.V.B.V.c.V.",
"                                                                                                          # Y 8 A k.i.i.c.c.V.B.",
"                                                                                                          # r.4 p  .k.h.k.c.V.V.",
"                                                                                                          % A.] 4 f ..r.k.i.k.V.",
"                                                                                                          & J.A.B 8 l 2.r.i.i.V.",
"                                                                                                          : n.G.r.5 9 A e.e.r.y.",
"                                                                                                          : K.Y.K...4 t ] e.9.9.",
"                                                                                                          : K.K.T.G.N 5 d @.9.3.",
". o @ 3 3 3 3 3 3 3 1 2 3 2 $ # # + + + + X X @ 0 0 & # o X o O O + $ - # o & q 3 1 0 3 q q q q q q q q w c K.K.T.K.V.N 7 N 8.2.",
"i 5 n O.C.w.%.>.*.q.8.2.( r ; * - ; ; > - c L g h.v.c.c.y.q.q./ j n U C y I N.y.r.h.c.C.Y.T.U.K.T.T.K.R.K.K.K.T.U.K.T.i.d 5 D Z ",
"S 5 f z c 9 < w > 8 8 e - - - - - * 6 E 4.k.6.W C z.h.8.c.K.V.i.b h c M K L.i.h.k.k.A.J.K.K.T.K.T.Y.R.J.K.K.K.K.K.K.K.U.w.5 ; 1 ",
", 5 < > > > > > : > - - ; < 8 J o.w.k.y.7.6.6.s.| N [ -.8.Z.k.w.Z K P X.I.V.h.h.l.A.A.J.J.K.K.K.T.!.J.Y.K.K.J.K.U.K.U.K.U.>.7 > ",
"< < ; ; ; < ; > ; - > ; 6 w.r.t.e.3.0.f.g.s.s.a.s.e...j j b.c.q.q.E.N.Z.p.k.v.c.C.J.G.K.K.K.K.K.U.).^.T.K.Y.K.K.K.K.J.K.G.K.>.< ",
"c ] >.5.B.B.B.t.:.| < < 7 [ 0.e.g.h.h.h.h.h.j.j.d.f.0.9.h B b.r.%.w.i.i.p.c.v.C.C.K.U.K.R.U.K.K.K.K.Q.R.K.U.K.K.K.J.J.K.K.G.K.*.",
"B. .M.V.G.A.J.J.A.J...u a +.h.h.z.v.c.z.z.c.x.x.h.j.d.f.9.Y R c...u.i.p.z.C.Z.A.K.K.T.T.T.T.Q.T.K.A.Y.Y.T.Y.T.K.R.b.A.b.G.T.G.Y.",
"l.V.0.C.C.H.H.n.n.n.J.,.a n l.k.z.v.z.c.x.x.x.x.x.l.h.h.f.8.Y A _ r.p.c.C.D.G.Y.K.K.Q.Y.T.T.R.T.T.K.T.T.Y.Y.K.K.J.Y.A.C.C.J.b.b.",
"C.x.b.v.n.n.v.j.x.v.x.x.<.f f k.c.c.v.v.b.v.v.C.R.R.v.x.z.d.8.' p ] p.V.Z.A.G.G.T.Q.Q.Q.p.i.A.Y.T.K.Q.Y.T.U.K.T.G.J.C.b.b.b.r.G ",
"3.n.v.x.v.v.v.v.n.x.v.l.j.2.d B c.z.z.b.b.C.C.G.^.!.C.x.z.j.f.9. .R c.V.A.D.T.K.Q.T.Q.V.i.G.G.Q.R.T.P.U.T.K.G.Y.r.A.Y.b.Z.8.t - ",
"b $.b.v.v.v.v.v.x.v.n.j.j.j.1.4 l ^ #.C.v.C.A.H.T.R.J.v.c.l.h.=.h b ..c.V.A.G.T.T.Q.Q.p.M.V.Y.(.U.T.Q.G.V.G.G.G.V. .q.c.V.t - - ",
"r f ,.x.x.v.x.x.x.n.n.x.j.j.x.@.= ! K.C.C.C.A.A.G.J.C.n.l.k.@.h P ;.N C u.C.A.K.T.Q.Q.~.E.F.G.(.Q.T.Q.T.Q.K.G.A.Z.p.N Y w.h - ; ",
"T 7 j 0.x.n.v.n.x.n.x.x.x.x.j.j.{ 7 R A.C.A.H.K.J.J.C.v.8.J V m.T.z.c.D C w.c.Z.Q.Q.Q.Q.(.(._.].Q.K.T.Q.P.K.G.V.A.V.>.x J 1 * 4 ",
"+.) 5 z h.v.x.v.n.x.n.x.v.x.j.j.h.,.7 k r.J.A.H.J.C.c.] x J W.E.v.v.c.p.N v >.u.R.G.K.T.E.).].(.Q.Q.U.Q.G.U.K.G.D.V.w.' 1 * ; A ",
"r.@.T 5 ^ v.v.v.n.n.v.n.n.x.j.x.x.z.9.j 9 ] A.A.k...N x m.[.'.^.R.C.c.c.e.v N =.V.G.C.J.J.K.U.!.Q.Q.K.K.K.G.Q.G.F.c.w.E * ; j =.",
"c.V.,.b j g.v.n.n.H.H.v.v.n.v.n.x.x.f.h.[ 4 N D g c 4.].Q.A.c.p.C.K.R.J.R.C.d v *.G.c.b.b.C.J.H.J.P.U.G.E.T.G.G.V.e.*.4 ; j @.2.",
"l.L.V.@.s $.b.n.n.C.n.b.v.v.n.n.v.x.x.v.c.;.d 7 A '.E.S.c.c.c.c.z.z.k.l.z.c.2.d v 8.C.v.v.n.v.v.C.C.G.G.D.A.A.V.e.2.N * 9 B B #.",
"g.k.`.k.U R J.J.n.J.b.J.J.n.n.n.n.n.C.!.~.z.r.N ..Y.C.c.v.b.x.c.l.l.l.l.l.x.k.@.9 A 8.V.v.v.v.l.l.x.C.v.C.C.c.u.2...- 6 C [ ^ ^ "
};
